<?xml version="1.0" encoding="UTF-8"?><svg xmlns="http://www.w3.org/2000/svg" xmlns:xlink="http://www.w3.org/1999/xlink" viewBox="0 0 900.06 900.06"><defs><style>.cls-1{fill:#fff;}.cls-2{fill:#f6b40e;}.cls-3{isolation:isolate;}.cls-4{fill:url(#radial-gradient);mix-blend-mode:multiply;opacity:.3;}.cls-5{fill:#85340a;}.cls-6{clip-path:url(#clippath);}.cls-7{fill:none;}.cls-8{fill:#74acdf;}</style><clipPath id="clippath"><circle class="cls-7" cx="450.03" cy="450.03" r="450.03"/></clipPath><radialGradient id="radial-gradient" cx="450.03" cy="450.03" fx="450.03" fy="450.03" r="450.03" gradientUnits="userSpaceOnUse"><stop offset="0" stop-color="#fff"/><stop offset=".36" stop-color="#fdfdfd"/><stop offset=".48" stop-color="#f6f6f6"/><stop offset=".58" stop-color="#eaeaea"/><stop offset=".65" stop-color="#d9d9d9"/><stop offset=".71" stop-color="#c3c3c3"/><stop offset=".77" stop-color="#a8a8a8"/><stop offset=".82" stop-color="#878787"/><stop offset=".87" stop-color="#626262"/><stop offset=".91" stop-color="#373737"/><stop offset=".95" stop-color="#090909"/><stop offset=".96" stop-color="#000"/></radialGradient></defs><g class="cls-3"><g id="Layer_2"><g id="Layer_1-2"><g id="Argentina"><g class="cls-6"><g><rect class="cls-8" x="-270.02" y="0" width="1440.09" height="900.06"/><rect class="cls-1" x="-270.02" y="300.02" width="1440.09" height="300.02"/><g><g><path class="cls-2" d="m472.34,553.31c-2.19-4.7-4.68-10.04-3.67-22.53.73-9-1.1-14.58-2.87-19.97-1.16-3.53-2.28-6.95-2.68-11.12-.64.17-1.29.32-1.94.46,1.39,13.6,8.36,21.88,4.86,32.19,1.55-12.66-4.92-19.78-7.38-31.69-.74.13-1.49.23-2.25.33.86,3.97,2.19,7.6,3.5,11.14,2.43,6.54,4.73,12.71,4.02,20.53-.97,10.77,3.14,18.2,6.13,23.62,1.16,2.1,2.16,3.92,2.71,5.6,1.23,3.75.26,6.59-.37,8.46-.13.38-.3.87-.36,1.17.13-.05.35-.17.63-.44,1.19-1.16,2.97-4.71,2.09-10.67-.4-2.7-1.34-4.73-2.44-7.07Z"/><path class="cls-2" d="m472.61,496.13c-.62.31-1.25.59-1.89.88l11.54,31.01-13.77-30.08c-.61.24-1.22.46-1.84.67l29.81,64.96c.09.22.62,1.2,1.01,1.04.4-.16.07-1.23,0-1.42l-24.86-67.05Z"/><path class="cls-2" d="m433.31,532.19c6.27-11.1,3.03-20.16,5.32-32.1-.74-.17-1.47-.35-2.2-.55-.72,4-.89,7.85-1.02,11.63-.25,6.97-.5,13.55-4.14,20.51-5.01,9.58-4.07,18.01-3.37,24.17.27,2.39.5,4.45.37,6.21-.3,3.94-2.28,6.19-3.58,7.68-.27.3-.61.69-.78.95.13.03.38-.02.75-.17,1.54-.62,4.55-3.22,6.02-9.06.67-2.65.57-4.88.46-7.47-.23-5.19-.48-11.06,5.23-22.22,4.12-8.04,4.56-13.89,4.99-19.55.28-3.71.56-7.3,1.78-11.31-.66-.09-1.32-.19-1.97-.31-3.92,13.1-.65,23.41-7.83,31.6Z"/><path class="cls-2" d="m449.96,534.42l-1.21-33.07c-.65-.02-1.31-.04-1.96-.08l2.69,71.42c0,.24.11,1.35.54,1.35s.53-1.11.54-1.31l2.69-71.46c-.69.04-1.38.07-2.08.08l-1.21,33.06Z"/><path class="cls-2" d="m418.2,504.15c1.68-3.32,3.31-6.53,5.98-9.78-.58-.34-1.14-.68-1.7-1.04-8.65,10.6-9.57,21.39-19.33,26.21,10.05-7.86,10.51-17.48,17.21-27.65-.62-.44-1.22-.89-1.82-1.36-2.2,3.42-3.83,6.93-5.41,10.38-2.9,6.34-5.65,12.33-11.67,17.36-8.3,6.93-10.65,15.08-12.37,21.04-.67,2.31-1.24,4.3-2.04,5.88-1.78,3.52-4.47,4.84-6.25,5.72-.36.18-.83.41-1.08.58.13.06.37.13.76.13h.04c1.68,0,5.42-1.27,8.98-6.07,1.63-2.19,2.39-4.29,3.28-6.73,1.78-4.88,3.79-10.41,13.33-18.53,6.88-5.85,9.53-11.09,12.09-16.15Z"/><path class="cls-2" d="m431.44,497.89l-13.77,30.08,11.54-31.01c-.6-.27-1.19-.54-1.77-.82l-24.85,67.01c-.09.22-.42,1.29-.02,1.45.1.04.14.03.19,0,.33-.14.69-.73.8-1.01l29.83-64.99c-.66-.23-1.31-.46-1.95-.72Z"/><path class="cls-2" d="m382.56,498.15c8.59-2.77,13.05-6.6,17.36-10.3,2.83-2.43,5.56-4.77,9.27-6.74-.4-.53-.79-1.07-1.18-1.61-12.05,6.49-17.03,16.1-27.9,16.82,12.29-3.42,16.4-12.12,26.47-18.95-.4-.64-.79-1.29-1.17-1.95-3.34,2.32-6.19,4.93-8.96,7.51-5.11,4.75-9.93,9.23-17.43,11.57-10.32,3.23-15.61,9.86-19.47,14.7-1.5,1.88-2.8,3.5-4.13,4.65-3,2.57-5.99,2.77-7.96,2.89-.4.03-.92.06-1.22.12.1.1.29.26.65.41,1.53.66,5.49.94,10.66-2.15,2.34-1.4,3.85-3.05,5.6-4.96,3.51-3.83,7.48-8.17,19.41-12.02Z"/><path class="cls-2" d="m414.56,487.11l-24.25,22.54,22.54-24.25c-.45-.47-.89-.95-1.32-1.44l-48.62,52.42c-.17.17-.87,1.03-.57,1.33s1.16-.41,1.31-.55l52.45-48.64c-.52-.46-1.03-.93-1.53-1.41Z"/><path class="cls-2" d="m339.68,474.77c2.7-.4,4.73-1.34,7.08-2.44,4.7-2.19,10.03-4.68,22.53-3.67,9,.72,14.58-1.1,19.97-2.87,3.53-1.16,6.95-2.27,11.12-2.68-.17-.64-.32-1.29-.46-1.95-13.6,1.39-21.88,8.36-32.19,4.86,12.66,1.55,19.78-4.92,31.69-7.38-.13-.74-.23-1.49-.33-2.24-3.97.86-7.6,2.18-11.14,3.5-6.54,2.43-12.71,4.73-20.53,4.02-10.77-.97-18.2,3.14-23.62,6.13-2.1,1.16-3.92,2.16-5.6,2.71-3.75,1.23-6.59.26-8.46-.37-.38-.13-.87-.3-1.17-.36.05.13.17.35.44.63,1.16,1.19,4.71,2.97,10.67,2.09Z"/><path class="cls-2" d="m403.05,470.73l-31.01,11.54,30.08-13.77c-.24-.61-.46-1.22-.67-1.84l-64.96,29.81c-.22.09-1.2.62-1.04,1.01.17.4,1.23.07,1.42,0l67.05-24.86c-.31-.62-.59-1.25-.88-1.89Z"/><path class="cls-2" d="m338.61,430.66c2.65.66,4.89.57,7.47.46,5.19-.23,11.06-.48,22.22,5.23,8.04,4.12,13.89,4.56,19.55,4.99,3.71.28,7.3.56,11.31,1.78.09-.66.19-1.32.31-1.97-13.1-3.92-23.41-.65-31.6-7.83,11.1,6.27,20.16,3.03,32.1,5.32.17-.74.35-1.47.55-2.2-4-.72-7.85-.89-11.63-1.02-6.97-.25-13.55-.5-20.51-4.14-9.57-5.01-18-4.07-24.17-3.37-2.39.27-4.46.5-6.21.36-3.94-.3-6.19-2.27-7.68-3.58-.3-.27-.69-.61-.95-.78,0,.14.02.39.17.75.61,1.55,3.21,4.55,9.06,6.02Z"/><path class="cls-2" d="m398.7,451.17l-33.06-1.21,33.07-1.21c.02-.66.04-1.31.08-1.96l-71.42,2.69c-.24,0-1.34.11-1.34.54s1.11.53,1.31.54l71.46,2.69c-.04-.69-.07-1.38-.08-2.08Z"/><path class="cls-2" d="m336.46,403.56l64.99,29.83c.23-.66.46-1.31.72-1.95l-30.08-13.77,31.01,11.54c.27-.6.54-1.19.83-1.78l-67.02-24.85c-.22-.09-1.29-.42-1.45-.02-.03.07-.09.22.28.54.32.28.72.45.72.45Z"/><path class="cls-2" d="m354.5,389.5c2.19,1.63,4.29,2.39,6.73,3.28,4.88,1.77,10.41,3.79,18.53,13.33,5.85,6.88,11.09,9.53,16.15,12.09,3.33,1.68,6.53,3.31,9.78,5.98.34-.58.68-1.14,1.04-1.7-10.6-8.65-21.39-9.57-26.21-19.34,7.86,10.05,17.48,10.51,27.65,17.21.44-.62.89-1.22,1.36-1.82-3.42-2.21-6.93-3.83-10.37-5.41-6.34-2.9-12.33-5.64-17.36-11.67-6.93-8.3-15.08-10.65-21.04-12.37-2.31-.67-4.3-1.24-5.88-2.04-3.52-1.78-4.84-4.47-5.72-6.25-.18-.36-.4-.82-.57-1.08-.06.13-.13.37-.13.76-.02,1.66,1.23,5.44,6.06,9.03Z"/><path class="cls-2" d="m411.53,416.09c.46-.52.93-1.03,1.41-1.53l-22.54-24.25,24.25,22.54c.47-.45.95-.89,1.44-1.33l-52.42-48.62c-.17-.17-1.03-.88-1.33-.57-.3.3.41,1.16.55,1.31l48.64,52.45Z"/><path class="cls-2" d="m389.89,363.15c3.83,3.51,8.17,7.48,12.02,19.41,2.77,8.59,6.6,13.05,10.3,17.35,2.43,2.83,4.77,5.56,6.75,9.27.53-.4,1.07-.79,1.61-1.18-6.49-12.05-16.1-17.03-16.82-27.9,3.42,12.29,12.12,16.4,18.95,26.47.64-.4,1.29-.79,1.95-1.17-2.32-3.34-4.93-6.19-7.51-8.96-4.75-5.11-9.23-9.93-11.57-17.43-3.23-10.32-9.86-15.61-14.71-19.48-1.88-1.5-3.5-2.79-4.65-4.13-2.57-3-2.77-5.98-2.89-7.96-.03-.4-.06-.92-.12-1.22-.1.1-.26.29-.41.65-.66,1.53-.94,5.49,2.15,10.66,1.4,2.34,3.05,3.85,4.96,5.6Z"/><path class="cls-2" d="m427.44,403.92c.62-.31,1.25-.59,1.89-.88l-11.54-31.01,13.77,30.08c.61-.23,1.22-.46,1.84-.67l-29.81-64.96c-.09-.22-.62-1.2-1.01-1.04-.4.16-.07,1.23,0,1.42l24.86,67.05Z"/><path class="cls-2" d="m427.72,346.75c2.19,4.7,4.68,10.04,3.67,22.53-.73,9,1.1,14.58,2.87,19.97,1.16,3.53,2.27,6.95,2.68,11.11.64-.17,1.29-.32,1.94-.46-1.39-13.6-8.36-21.88-4.86-32.18-1.55,12.65,4.92,19.78,7.37,31.69.74-.13,1.49-.23,2.25-.33-.86-3.97-2.19-7.6-3.5-11.14-2.43-6.54-4.73-12.71-4.02-20.53.97-10.77-3.14-18.2-6.13-23.62-1.16-2.1-2.16-3.92-2.71-5.6-1.23-3.75-.26-6.59.37-8.46.13-.38.3-.87.36-1.17-.13.05-.35.17-.63.44-1.19,1.16-2.98,4.71-2.1,10.68.4,2.7,1.34,4.73,2.44,7.08Z"/><path class="cls-2" d="m466.74,367.86c-6.27,11.1-3.03,20.16-5.32,32.1.74.17,1.47.35,2.2.55.72-4,.88-7.85,1.02-11.63.26-6.97.5-13.55,4.14-20.51,5.01-9.58,4.07-18.01,3.37-24.17-.27-2.39-.5-4.45-.36-6.21.3-3.94,2.28-6.19,3.58-7.68.27-.3.61-.69.78-.95-.12,0-.39.02-.75.17-1.55.62-4.55,3.22-6.02,9.06-.66,2.65-.57,4.88-.45,7.47.23,5.19.48,11.06-5.23,22.22-4.12,8.04-4.56,13.89-4.99,19.55-.28,3.71-.56,7.3-1.78,11.31.66.09,1.32.19,1.98.31,3.92-13.1.65-23.41,7.83-31.6Z"/><path class="cls-2" d="m450.09,365.64l1.21,33.07c.65.02,1.31.04,1.96.08l-2.69-71.42c0-.24-.11-1.35-.54-1.35s-.53,1.11-.54,1.31l-2.69,71.46c.69-.04,1.38-.07,2.08-.08l1.21-33.06Z"/><path class="cls-2" d="m468.61,402.17l13.77-30.08-11.54,31.01c.6.27,1.19.54,1.78.82l24.85-67.01c.09-.22.42-1.29.02-1.45-.41-.19-.92.82-1,1.01l-29.83,64.99c.66.23,1.31.46,1.95.72Z"/><path class="cls-2" d="m481.85,395.91c-1.68,3.32-3.31,6.53-5.98,9.77.58.34,1.14.68,1.7,1.04,8.65-10.6,9.57-21.39,19.34-26.21-10.05,7.86-10.51,17.48-17.21,27.65.62.44,1.22.89,1.82,1.36,2.2-3.42,3.83-6.93,5.41-10.37,2.9-6.34,5.65-12.33,11.68-17.36,8.3-6.93,10.65-15.08,12.37-21.04.66-2.31,1.24-4.3,2.04-5.88,1.78-3.52,4.47-4.84,6.25-5.72.36-.18.83-.41,1.08-.58-.13-.06-.37-.13-.76-.13-1.67-.02-5.43,1.23-9.03,6.07-1.63,2.19-2.39,4.29-3.28,6.73-1.78,4.88-3.79,10.41-13.33,18.53-6.88,5.85-9.53,11.09-12.09,16.15Z"/><path class="cls-2" d="m517.5,401.91c-8.59,2.77-13.05,6.6-17.35,10.29-2.83,2.43-5.56,4.77-9.27,6.75.4.53.79,1.07,1.18,1.61,12.05-6.49,17.03-16.1,27.9-16.82-12.29,3.42-16.4,12.12-26.47,18.95.4.64.79,1.29,1.17,1.95,3.34-2.32,6.19-4.93,8.96-7.51,5.11-4.75,9.93-9.23,17.43-11.57,10.32-3.23,15.61-9.86,19.48-14.71,1.5-1.88,2.79-3.5,4.13-4.65,3-2.57,5.99-2.77,7.96-2.89.4-.03.92-.06,1.22-.12-.1-.1-.29-.26-.65-.41-1.53-.65-5.49-.95-10.66,2.15-2.34,1.4-3.85,3.05-5.6,4.96-3.51,3.83-7.48,8.16-19.41,12.01Z"/><path class="cls-2" d="m485.5,412.94l24.25-22.54-22.54,24.25c.45.47.89.95,1.33,1.44l48.62-52.42c.17-.17.88-1.03.57-1.33s-1.16.41-1.31.55l-52.45,48.64c.52.46,1.03.93,1.53,1.41Z"/><path class="cls-2" d="m497.01,429.33l31.01-11.54-30.08,13.77c.24.61.46,1.22.67,1.84l64.96-29.82c.22-.09,1.2-.62,1.04-1.01-.17-.39-1.23-.07-1.42,0l-67.05,24.86c.31.62.59,1.25.88,1.89Z"/><path class="cls-2" d="m560.38,425.28c-2.7.4-4.73,1.34-7.07,2.44-4.71,2.19-10.04,4.68-22.53,3.67-9-.72-14.58,1.1-19.98,2.87-3.54,1.16-6.94,2.27-11.11,2.68.17.64.32,1.29.46,1.94,13.6-1.39,21.88-8.36,32.19-4.86-12.66-1.55-19.78,4.92-31.69,7.38.13.74.23,1.49.33,2.25,3.97-.86,7.59-2.19,11.14-3.51,6.54-2.43,12.72-4.73,20.53-4.02,10.78.97,18.2-3.14,23.62-6.13,2.1-1.16,3.92-2.16,5.6-2.71,3.75-1.23,6.59-.26,8.46.37.38.13.87.3,1.17.36-.05-.13-.17-.35-.44-.63-1.16-1.19-4.72-2.97-10.67-2.09Z"/><path class="cls-2" d="m561.45,469.39c-2.65-.67-4.88-.57-7.47-.45-5.19.22-11.06.48-22.22-5.23-8.04-4.12-13.89-4.56-19.55-4.99-3.71-.28-7.3-.56-11.31-1.78-.09.66-.19,1.32-.31,1.97,13.1,3.92,23.41.65,31.6,7.83-11.1-6.27-20.16-3.03-32.1-5.32-.17.74-.35,1.47-.55,2.2,4,.72,7.85.88,11.63,1.02,6.97.26,13.55.5,20.51,4.14,9.58,5.01,18.01,4.07,24.17,3.37,2.39-.27,4.45-.5,6.21-.36,3.94.3,6.19,2.27,7.68,3.58.3.27.69.61.95.78,0-.14-.02-.39-.17-.75-.61-1.55-3.21-4.55-9.06-6.02Z"/><path class="cls-2" d="m573.97,449.85c-.25-.25-.94-.36-1.24-.36l-71.46-2.69c.04.69.07,1.38.08,2.08l33.06,1.21-33.07,1.21c-.02.66-.04,1.31-.08,1.96l71.42-2.69c.24,0,1.35-.11,1.35-.54,0-.11-.03-.14-.07-.18Z"/><path class="cls-2" d="m545.56,510.56c-2.19-1.63-4.29-2.39-6.73-3.28-4.88-1.77-10.41-3.79-18.53-13.33-5.85-6.88-11.09-9.53-16.15-12.09-3.32-1.68-6.53-3.31-9.77-5.98-.34.58-.68,1.14-1.04,1.7,10.6,8.65,21.39,9.57,26.21,19.34-7.86-10.05-17.48-10.51-27.65-17.21-.44.62-.89,1.22-1.36,1.82,3.42,2.21,6.93,3.83,10.38,5.41,6.34,2.9,12.33,5.64,17.36,11.67,6.93,8.3,15.08,10.65,21.04,12.37,2.31.67,4.3,1.24,5.88,2.04,3.52,1.78,4.84,4.47,5.72,6.25.18.36.4.82.57,1.08.06-.13.13-.37.13-.76.02-1.66-1.23-5.44-6.06-9.03Z"/><path class="cls-2" d="m563.59,496.49l-64.99-29.83c-.23.66-.46,1.31-.72,1.95l30.08,13.77-31.01-11.54c-.27.6-.54,1.19-.82,1.78l67.02,24.85c.22.09,1.29.42,1.45.02.17-.4-.82-.92-1.01-1Z"/><path class="cls-2" d="m488.52,483.96c-.46.52-.93,1.03-1.41,1.53l22.54,24.25-24.25-22.54c-.47.45-.95.89-1.44,1.33l52.42,48.62c.17.17,1.03.88,1.33.57.08-.08.08-.12.08-.18,0-.35-.41-.92-.62-1.13l-48.65-52.45Z"/><path class="cls-2" d="m510.16,536.91c-3.83-3.51-8.17-7.48-12.02-19.41-2.77-8.59-6.6-13.05-10.3-17.35-2.43-2.83-4.77-5.56-6.75-9.27-.53.4-1.07.79-1.62,1.18,6.49,12.05,16.1,17.03,16.82,27.9-3.42-12.29-12.12-16.4-18.95-26.47-.64.4-1.29.79-1.95,1.17,2.32,3.34,4.93,6.19,7.51,8.96,4.75,5.11,9.23,9.93,11.57,17.43,3.23,10.32,9.86,15.61,14.71,19.48,1.88,1.5,3.5,2.79,4.65,4.13,2.57,3,2.77,5.99,2.89,7.96.03.4.06.92.12,1.22.1-.1.26-.29.41-.65.66-1.53.95-5.49-2.15-10.66-1.4-2.34-3.05-3.85-4.96-5.6Z"/><path class="cls-2" d="m450.02,473.76h-.06c-3.04,0-4.58-2.27-11.3-.83.04,0,.08,0,.12,0,6.7-.08,4.7,4.28,11.19,4.28h.06c6.46,0,4.57-4.34,11.17-4.3-6.62-1.38-8.16.86-11.18.86Z"/><path class="cls-2" d="m431.52,446.22c-1.17-.56-1.98-1.74-1.98-3.12,0-1.17.58-2.2,1.47-2.82-2.1.36-4.13,1.44-5.49,3.62,1.69,1.35,3.82,2.18,6,2.32Z"/><path class="cls-2" d="m435.14,445.8c1.54-.48,3-1.35,4.22-2.7-.31-1.09-2.02-2.18-4.19-2.69.78.63,1.29,1.59,1.29,2.68s-.52,2.07-1.33,2.7Z"/><path class="cls-2" d="m450.03,401.37c-26.83,0-48.65,21.83-48.65,48.65s21.82,48.65,48.65,48.65,48.65-21.83,48.65-48.65-21.83-48.65-48.65-48.65Zm.23,60.97c2.92-.11,4.41-2.34,4.78-3.09.07,1.22,1.08,2.19,2.31,2.19s2.31-1.03,2.31-2.31c0-.98-.6-1.87-1.52-2.19,1.64.3,2.81,1.76,2.81,3.43,0,1.91-1.58,3.43-3.49,3.43-1.13,0-2.16-.53-2.81-1.46-1.33,1-3.18,1.11-4.16,1.13-.1,0-.3,0-.45,0-.99-.02-2.83-.12-4.16-1.13-.65.93-1.68,1.46-2.81,1.46-1.91,0-3.49-1.52-3.49-3.43,0-1.67,1.17-3.13,2.81-3.43h0c-.92.33-1.52,1.22-1.52,2.19,0,1.27,1.03,2.31,2.31,2.31s2.23-.97,2.31-2.19c.38.75,1.86,2.98,4.78,3.09Zm-31.31-23.08h0s.01,0,.02-.01c8.46-11.53,19.99-10.75,28.45-3.84.53,1.43.94,2.89,1.21,4.38,1,5.71-.08,11.7-3.13,17.54-.38-.39-1.15-.77-1.54-.77,3.43-4.85,4.8-9.58,4.03-13.96-.4-2.25-1.36-4.41-2.87-6.43-6.15-5.77-17.3-4.62-26.14,3.06,0,0,0,0-.01.01Zm2.3,4.23c-.77-.39,3.85-6.54,11.54-6.54h0c5,0,6.15,1.16,8.46,3.08,2.31,1.92,3.46,1.54,3.85,1.92.38.39,0,1.54-.77,1.15s-2.31-1.15-4.61-3.08c-2.31-1.93-4.61-1.92-6.92-1.92-6.92,0-10.77,5.77-11.54,5.38Zm11.3-4.16c3.41,0,7.01,1.47,9.51,4.16-2.65,1.94-5.87,2.9-8.95,3.05-.03,0-.07.01-.1.01-.02,0-.03,0-.05,0-3.58.14-6.96-.82-9.01-2.66,1.92-3.08,5.19-4.56,8.61-4.56Zm-9,6.08h0c7.69,3.08,12.31,3.08,15.38,1.54,3.08-1.54,3.85-2.31,4.61-2.31s.77.77-3.08,3.08c-3.85,2.31-10.38,2.69-16.92-2.31Zm22.59,21.76c.77,0,2.29.41,3.83,1.18h.06c1.54-.77,3.06-1.18,3.83-1.18,3.85,0,5.43,3.49,8.89,5.79-1.92-.77-3.49-2.28-6.19-3.83-2.69-1.54-4.99.34-6.53.34h-.06c-1.54,0-3.83-1.88-6.53-.34-2.69,1.54-4.21,3.06-6.13,3.83,3.46-2.31,4.98-5.79,8.83-5.79Zm3.9,12.76c-3.29,0-6.16,2.27-6.92,5.47,0-3.82,3.1-6.92,6.92-6.92s6.92,3.1,6.92,6.92c-.76-3.21-3.62-5.47-6.92-5.47Zm0-1.57h-.06c-8.46,0-4.58-4.63-12.66-5.4.46-.04.87-.04,1.27-.05,2.8-.83,4.77-1.13,6.26-1.2h0c2.53-.11,3.68.45,5.12.45h.06c2.28,0,3.81-1.48,11.28.72.44,0,.92.03,1.44.08-8.08.77-4.25,5.4-12.71,5.4Zm10.01-30.65c-3.85-2.31-3.85-3.08-3.08-3.08s1.54.77,4.61,2.31c3.08,1.54,7.69,1.54,15.38-1.54h0c-6.54,5-13.08,4.62-16.92,2.31Zm7.04-8.39c3.41,0,7.01,1.47,9.51,4.16-5.77,4.23-14.27,3.85-18.11.39,1.92-3.08,5.19-4.56,8.61-4.56Zm12.18,4.16c-.77.38-4.61-5.38-11.54-5.38-2.31,0-4.61,0-6.92,1.92-2.3,1.92-3.85,2.69-4.61,3.08s-1.15-.77-.77-1.15c.38-.39,1.54,0,3.85-1.92,2.31-1.92,3.46-3.08,8.46-3.08h0c7.69,0,12.31,6.15,11.54,6.54Zm2.3-4.23s0,0-.01-.01c-8.84-7.68-19.99-8.83-26.14-3.06-1.51,2.02-2.47,4.17-2.87,6.43-.77,4.38.59,9.11,4.03,13.96-.39,0-1.16.38-1.54.77-3.05-5.84-4.13-11.84-3.13-17.54.26-1.49.67-2.96,1.21-4.38,8.46-6.92,19.99-7.69,28.45,3.84,0,0,.01,0,.02.01h0Z"/><path class="cls-2" d="m468.77,446.03c1.87-.39,3.66-1.33,5.11-2.93-.35-1.21-2.42-2.42-4.93-2.83.88.63,1.47,1.65,1.47,2.82,0,1.24-.66,2.33-1.65,2.94Z"/><path class="cls-2" d="m465.33,446.14c-1.09-.58-1.84-1.72-1.84-3.04,0-1.07.5-2.02,1.26-2.65-1.81.48-3.52,1.54-4.71,3.45,1.5,1.2,3.35,1.98,5.28,2.24Z"/></g><g><path class="cls-5" d="m458.47,443.89c3.85,3.46,12.34,3.84,18.11-.39-2.5-2.69-6.09-4.16-9.51-4.16-3.41,0-6.68,1.48-8.61,4.56Zm15.41-.79c-1.46,1.6-3.25,2.54-5.11,2.93.99-.61,1.65-1.69,1.65-2.94,0-1.17-.58-2.19-1.47-2.82,2.52.41,4.59,1.61,4.93,2.83Zm-9.13-2.66c-.77.63-1.26,1.58-1.26,2.65,0,1.32.75,2.45,1.84,3.04-1.93-.26-3.78-1.04-5.28-2.24,1.19-1.91,2.9-2.97,4.71-3.45Z"/><path class="cls-5" d="m423.94,443.89c2.05,1.85,5.43,2.8,9.01,2.66.02,0,.03,0,.05,0,.03,0,.07,0,.1-.01,3.08-.15,6.31-1.11,8.95-3.05-2.5-2.69-6.09-4.16-9.51-4.16s-6.68,1.48-8.61,4.56Zm15.41-.79c-1.22,1.35-2.68,2.22-4.22,2.7.8-.63,1.33-1.6,1.33-2.7s-.51-2.04-1.29-2.68c2.17.51,3.87,1.59,4.19,2.69Zm-8.35-2.83c-.89.63-1.47,1.65-1.47,2.82,0,1.38.81,2.56,1.98,3.12-2.19-.15-4.32-.97-6-2.32,1.36-2.18,3.39-3.26,5.49-3.62Z"/><path class="cls-5" d="m575.39,448.44c-.91-.91-2.45-.94-2.61-.94h0l-68.58-2.58c3.01-.83,5.84-1.86,8.62-2.89,6.32-2.35,12.29-4.56,19.66-3.9,11.37,1.02,19.11-3.25,24.77-6.37,2.01-1.11,3.75-2.07,5.25-2.56,3.12-1.02,5.47-.22,7.19.37,1.3.44,2.92.99,3.65-.53.21-.44.45-1.36-.41-2.53-1.62-2.2-6.31-4.15-12.83-3.18-2.99.44-5.24,1.49-7.63,2.6-4.48,2.09-9.57,4.45-21.52,3.49-9.41-.75-15.18,1.13-20.76,2.96-3.2,1.05-6.3,2.07-9.98,2.51l64.16-29.45c1.47-.61,2.75-2,2.09-3.61-.41-.99-1.34-1.51-2.58-1.42-.75.05-1.38.31-1.42.32l-64.32,23.85c2.45-1.91,4.66-3.95,6.83-5.96,4.94-4.59,9.6-8.92,16.67-11.13,10.9-3.41,16.42-10.32,20.44-15.37,1.44-1.8,2.68-3.35,3.87-4.38,2.49-2.14,4.97-2.3,6.79-2.42,1.37-.09,3.07-.2,3.17-1.88.03-.49-.11-1.43-1.36-2.18-2.34-1.42-7.43-1.4-13.07,1.97-2.59,1.55-4.27,3.38-6.05,5.32-3.34,3.64-7.12,7.77-18.55,11.46-8.98,2.9-13.59,6.85-18.04,10.68-2.56,2.2-5.03,4.32-8.26,6.14l48.01-51.76c.05-.05.53-.54.87-1.21.55-1.1.44-2.17-.32-2.93-.76-.76-1.82-.87-2.92-.32-.67.34-1.16.81-1.18.84l-50.3,46.65c1.53-2.71,2.8-5.43,4.03-8.12,2.81-6.13,5.46-11.92,11.14-16.66,8.77-7.32,11.22-15.82,13.01-22.02.64-2.21,1.19-4.12,1.9-5.53,1.48-2.93,3.71-4.03,5.35-4.83,1.23-.6,2.76-1.36,2.21-2.95-.16-.46-.65-1.28-2.09-1.5-2.72-.42-7.4,1.54-11.32,6.82-1.8,2.42-2.65,4.76-3.55,7.23-1.69,4.64-3.61,9.91-12.75,17.69-7.18,6.11-9.93,11.53-12.58,16.78-1.52,3.01-3,5.92-5.28,8.83l24.54-66.19c.03-.07.28-.7.34-1.45.09-1.23-.43-2.17-1.42-2.58-.98-.4-2.02-.11-2.82.82-.49.56-.76,1.2-.77,1.23l-28.62,62.35c.38-3.09.51-6.09.61-9.05.25-6.74.48-13.1,3.91-19.65,5.3-10.12,4.31-18.9,3.59-25.32-.26-2.29-.48-4.26-.36-5.83.25-3.27,1.89-5.14,3.09-6.51.91-1.03,2.03-2.31.91-3.57-.33-.37-1.08-.94-2.5-.59-2.66.65-6.25,4.26-7.85,10.63-.74,2.93-.63,5.41-.51,8.04.22,4.94.46,10.54-5.01,21.22-4.3,8.39-4.76,14.45-5.21,20.31-.25,3.36-.5,6.61-1.5,10.18l-2.65-70.55c0-1.59-.79-3.31-2.54-3.31-1.74,0-2.54,1.72-2.54,3.27l-2.58,68.55c-.83-3-1.86-5.82-2.9-8.59-2.35-6.32-4.57-12.29-3.9-19.66,1.02-11.38-3.25-19.12-6.37-24.77-1.11-2.01-2.07-3.75-2.56-5.25-1.02-3.12-.22-5.47.37-7.2.44-1.3.99-2.92-.53-3.65-.45-.22-1.37-.44-2.54.42-2.2,1.62-4.14,6.32-3.18,12.83.44,2.99,1.49,5.24,2.61,7.63,2.09,4.48,4.46,9.56,3.49,21.52-.76,9.4,1.13,15.18,2.96,20.76,1.05,3.2,2.07,6.3,2.51,9.98l-29.45-64.16c-.07-.16-.69-1.6-1.88-2.1-.56-.23-1.15-.23-1.72,0-.57.24-.99.66-1.23,1.21-.5,1.2.08,2.65.13,2.78l23.85,64.32c-1.91-2.45-3.95-4.66-5.96-6.83-4.59-4.94-8.92-9.6-11.13-16.67-3.41-10.9-10.32-16.42-15.37-20.44-1.8-1.44-3.35-2.68-4.38-3.87-2.14-2.49-2.3-4.97-2.42-6.79-.09-1.37-.2-3.07-1.88-3.17-.49-.03-1.43.11-2.18,1.35-1.42,2.34-1.4,7.43,1.97,13.07,1.55,2.59,3.38,4.27,5.32,6.05,3.64,3.34,7.78,7.12,11.46,18.55,2.9,8.98,6.86,13.59,10.68,18.04,2.2,2.56,4.32,5.03,6.14,8.26l-51.76-48.01c-1.13-1.13-2.9-1.78-4.14-.55-.76.76-.88,1.82-.32,2.92.34.67.81,1.16.84,1.18l46.65,50.3c-2.71-1.53-5.44-2.8-8.12-4.03-6.13-2.81-11.92-5.46-16.66-11.14-7.32-8.77-15.82-11.22-22.02-13.01-2.21-.64-4.12-1.19-5.53-1.9-2.93-1.48-4.03-3.72-4.83-5.35-.61-1.23-1.37-2.75-2.95-2.21-.47.16-1.28.65-1.5,2.09-.41,2.7,1.54,7.4,6.82,11.32,2.42,1.8,4.76,2.65,7.23,3.55,4.64,1.69,9.91,3.61,17.69,12.75,6.11,7.18,11.53,9.93,16.78,12.58,3.01,1.52,5.92,2.99,8.83,5.28l-66.19-24.54c-1.47-.61-3.36-.53-4.03,1.08-.41.99-.11,2.02.82,2.82.57.49,1.2.76,1.23.77l62.35,28.62c-3.09-.38-6.09-.51-9.05-.62-6.74-.25-13.1-.48-19.65-3.91-10.12-5.3-18.9-4.31-25.32-3.59-2.29.26-4.26.49-5.84.36-3.27-.25-5.14-1.89-6.51-3.09-1.03-.91-2.32-2.03-3.57-.91-.37.33-.93,1.09-.59,2.5.65,2.65,4.26,6.24,10.63,7.85,2.93.74,5.41.63,8.05.51,4.93-.21,10.53-.46,21.22,5.01,8.39,4.3,14.45,4.76,20.31,5.21,3.36.25,6.61.5,10.18,1.5l-70.55,2.66h0c-.08,0-.76,0-1.47.24-1.17.39-1.84,1.23-1.84,2.29,0,.62.23,1.17.65,1.6.91.91,2.4.92,2.62.94l68.56,2.58c-3,.83-5.82,1.86-8.6,2.89-6.32,2.35-12.28,4.57-19.66,3.9-11.38-1.02-19.12,3.25-24.77,6.37-2.01,1.11-3.75,2.07-5.25,2.56-3.12,1.02-5.47.22-7.2-.37-1.3-.44-2.92-.99-3.65.53-.21.44-.45,1.36.41,2.53,1.62,2.2,6.32,4.14,12.83,3.18,2.99-.44,5.24-1.49,7.63-2.6,4.48-2.09,9.56-4.46,21.52-3.49,9.41.76,15.17-1.13,20.76-2.96,3.2-1.05,6.3-2.07,9.98-2.51l-64.16,29.45c-1.47.61-2.75,2-2.09,3.61.24.57.66.99,1.21,1.23.36.15.73.2,1.1.2.85,0,1.6-.3,1.69-.33l64.32-23.85c-2.45,1.91-4.66,3.95-6.83,5.96-4.94,4.59-9.6,8.92-16.67,11.13-10.9,3.41-16.42,10.32-20.44,15.36-1.44,1.8-2.68,3.35-3.87,4.38-2.49,2.14-4.97,2.3-6.79,2.42-1.37.09-3.07.2-3.17,1.88-.03.49.11,1.43,1.35,2.18,2.34,1.42,7.43,1.4,13.07-1.97,2.59-1.55,4.27-3.38,6.05-5.32,3.34-3.65,7.12-7.78,18.55-11.46,8.98-2.9,13.59-6.86,18.04-10.68,2.56-2.2,5.03-4.32,8.26-6.14l-48.01,51.76c-.05.05-.53.54-.87,1.21-.55,1.1-.43,2.17.32,2.92.44.44.99.67,1.59.67,1.3,0,2.42-1.09,2.52-1.19l50.3-46.65c-1.53,2.71-2.8,5.44-4.03,8.13-2.81,6.13-5.46,11.92-11.14,16.66-8.77,7.32-11.22,15.82-13.01,22.02-.64,2.21-1.19,4.12-1.9,5.53-1.48,2.93-3.72,4.03-5.35,4.83-1.23.61-2.77,1.36-2.21,2.96.16.46.65,1.28,2.09,1.5,2.69.44,7.4-1.54,11.32-6.82,1.8-2.42,2.65-4.76,3.55-7.24,1.69-4.64,3.61-9.91,12.75-17.69,7.18-6.11,9.93-11.53,12.58-16.77,1.52-3.01,3-5.92,5.28-8.83l-24.55,66.19c-.03.07-.28.7-.34,1.45-.09,1.23.43,2.17,1.42,2.58.29.12.59.18.88.18s.57-.06.85-.17c1.2-.5,1.82-1.93,1.87-2.06l28.62-62.35c-.38,3.09-.51,6.09-.61,9.05-.25,6.74-.48,13.1-3.91,19.65-5.3,10.12-4.31,18.91-3.59,25.32.26,2.29.48,4.26.36,5.83-.25,3.27-1.89,5.14-3.09,6.51-.91,1.03-2.03,2.31-.91,3.58.33.37,1.08.94,2.5.58,2.66-.65,6.24-4.26,7.85-10.63.74-2.93.63-5.41.51-8.04-.22-4.94-.46-10.54,5.01-21.22,4.3-8.39,4.76-14.45,5.2-20.31.26-3.36.5-6.61,1.5-10.18l2.65,70.55c0,1.59.79,3.31,2.53,3.31h0c.62,0,1.17-.23,1.6-.65.92-.92.94-2.48.94-2.62l2.58-68.55c.83,3,1.86,5.82,2.9,8.59,2.35,6.32,4.57,12.28,3.9,19.65-1.02,11.38,3.25,19.12,6.37,24.77,1.11,2.01,2.07,3.75,2.56,5.25,1.02,3.12.22,5.47-.37,7.2-.44,1.3-.99,2.92.53,3.65.2.1.5.2.88.2.45,0,1.02-.14,1.66-.61,2.2-1.62,4.14-6.32,3.18-12.83-.44-2.99-1.49-5.24-2.61-7.63-2.09-4.48-4.46-9.56-3.49-21.52.76-9.4-1.13-15.17-2.96-20.76-1.05-3.2-2.07-6.3-2.51-9.98l29.45,64.16c.61,1.47,2.01,2.76,3.61,2.09.99-.41,1.5-1.35,1.42-2.58-.05-.75-.31-1.38-.32-1.42l-23.85-64.32c1.91,2.45,3.95,4.67,5.96,6.83,4.59,4.94,8.92,9.6,11.13,16.67,3.41,10.9,10.32,16.42,15.37,20.44,1.8,1.43,3.35,2.67,4.38,3.87,2.14,2.49,2.3,4.97,2.41,6.79.09,1.37.2,3.07,1.88,3.17.04,0,.07,0,.11,0,.51,0,1.37-.2,2.07-1.36,1.42-2.34,1.41-7.43-1.97-13.07-1.55-2.59-3.38-4.27-5.32-6.05-3.64-3.34-7.78-7.12-11.46-18.55-2.9-8.98-6.86-13.59-10.68-18.04-2.2-2.56-4.32-5.03-6.14-8.26l51.76,48.01c1.13,1.13,2.9,1.78,4.13.55.44-.44.67-.99.67-1.59,0-1.3-1.09-2.42-1.18-2.52l-46.65-50.3c2.71,1.53,5.44,2.8,8.12,4.03,6.13,2.81,11.92,5.46,16.66,11.14,7.32,8.77,15.82,11.22,22.02,13.01,2.21.64,4.12,1.19,5.53,1.9,2.93,1.48,4.03,3.71,4.83,5.35.52,1.05,1.14,2.33,2.31,2.33.2,0,.41-.04.64-.12.46-.16,1.28-.65,1.5-2.09.41-2.7-1.54-7.4-6.82-11.32-2.42-1.8-4.76-2.65-7.23-3.55-4.65-1.69-9.91-3.61-17.69-12.75-6.11-7.18-11.53-9.93-16.78-12.58-3.01-1.52-5.91-2.99-8.83-5.28l66.19,24.54c1.47.61,3.36.53,4.03-1.08.24-.57.24-1.17,0-1.73-.49-1.2-1.93-1.82-2.06-1.87l-62.35-28.62c3.09.38,6.09.51,9.05.61,6.74.25,13.1.48,19.65,3.91,10.12,5.3,18.9,4.31,25.32,3.59,2.29-.26,4.27-.48,5.84-.36,3.27.25,5.14,1.89,6.51,3.09.72.64,1.57,1.38,2.45,1.38.37,0,.75-.14,1.13-.47.37-.33.93-1.09.59-2.5-.65-2.66-4.26-6.24-10.63-7.85-2.93-.74-5.41-.63-8.04-.51-4.94.22-10.54.46-21.22-5.01-8.39-4.3-14.45-4.76-20.31-5.21-3.36-.25-6.61-.5-10.18-1.5l70.55-2.65h0c1.59,0,3.3-.79,3.31-2.54,0-.62-.23-1.17-.65-1.6Zm-64.59-14.17c5.4-1.77,10.97-3.59,19.98-2.87,12.5,1.01,17.83-1.48,22.53-3.67,2.35-1.1,4.37-2.04,7.07-2.44,5.96-.88,9.51.9,10.67,2.09.27.28.39.5.44.63-.3-.06-.79-.23-1.17-.36-1.87-.64-4.71-1.6-8.46-.37-1.68.55-3.49,1.55-5.6,2.71-5.42,3-12.83,7.1-23.62,6.13-7.82-.7-13.99,1.59-20.53,4.02-3.55,1.32-7.17,2.64-11.14,3.51-.09-.75-.2-1.5-.33-2.25,11.91-2.46,19.04-8.92,31.69-7.38-10.31-3.5-18.59,3.47-32.19,4.86-.15-.65-.29-1.3-.46-1.94,4.18-.41,7.58-1.52,11.11-2.68Zm52.38-31.68c.19-.08,1.25-.4,1.42,0,.16.4-.82.92-1.04,1.01l-64.96,29.82c-.21-.62-.43-1.23-.67-1.84l30.08-13.77-31.01,11.54c-.28-.64-.57-1.27-.88-1.89l67.05-24.86Zm-63.04,9.62c4.31-3.7,8.76-7.52,17.35-10.29,11.93-3.85,15.9-8.19,19.41-12.01,1.75-1.91,3.26-3.56,5.6-4.96,5.17-3.1,9.14-2.8,10.66-2.15.36.15.55.31.65.41-.3.06-.82.09-1.22.12-1.98.13-4.96.32-7.96,2.89-1.34,1.15-2.63,2.77-4.13,4.65-3.87,4.84-9.16,11.48-19.48,14.71-7.5,2.34-12.32,6.83-17.43,11.57-2.77,2.58-5.62,5.19-8.96,7.51-.38-.66-.76-1.31-1.17-1.95,10.07-6.83,14.18-15.54,26.47-18.95-10.87.71-15.85,10.33-27.9,16.82-.38-.55-.77-1.09-1.18-1.61,3.71-1.97,6.44-4.32,9.27-6.75Zm36.27-49.31c.14-.14,1-.85,1.31-.55s-.4,1.16-.57,1.33l-48.62,52.42c-.43-.49-.87-.97-1.33-1.44l22.54-24.25-24.25,22.54c-.5-.48-1.01-.95-1.53-1.41l52.45-48.64Zm-54.56,33.02c2.56-5.07,5.22-10.3,12.09-16.15,9.55-8.12,11.56-13.65,13.33-18.53.89-2.43,1.65-4.54,3.28-6.73,3.6-4.84,7.36-6.09,9.03-6.07.39,0,.63.07.76.13-.25.17-.72.4-1.08.58-1.78.88-4.47,2.2-6.25,5.72-.8,1.58-1.37,3.57-2.04,5.88-1.72,5.95-4.07,14.11-12.37,21.04-6.03,5.03-8.77,11.02-11.68,17.36-1.58,3.44-3.21,6.95-5.41,10.37-.6-.46-1.2-.92-1.82-1.36,6.7-10.16,7.16-19.78,17.21-27.65-9.77,4.82-10.69,15.61-19.34,26.21-.56-.36-1.13-.71-1.7-1.04,2.67-3.24,4.29-6.45,5.98-9.77Zm14.64-59.44c.08-.19.59-1.19,1-1.01.4.16.07,1.23-.02,1.45l-24.85,67.01c-.58-.29-1.18-.56-1.78-.82l11.54-31.01-13.77,30.08c-.65-.25-1.3-.49-1.95-.72l29.83-64.99Zm-37.77,51.38c.43-5.66.88-11.51,4.99-19.55,5.71-11.16,5.45-17.03,5.23-22.22-.11-2.59-.21-4.82.45-7.47,1.47-5.84,4.47-8.45,6.02-9.06.36-.15.63-.17.75-.17-.17.25-.51.64-.78.95-1.31,1.49-3.29,3.74-3.58,7.68-.14,1.76.1,3.82.36,6.21.69,6.16,1.64,14.59-3.37,24.17-3.64,6.96-3.89,13.54-4.14,20.51-.14,3.78-.3,7.63-1.02,11.63-.73-.2-1.46-.38-2.2-.55,2.29-11.94-.96-21,5.32-32.1-7.18,8.19-3.91,18.5-7.83,31.6-.65-.11-1.31-.22-1.98-.31,1.22-4.01,1.5-7.59,1.78-11.31Zm-9.23-60.52c0-.2.11-1.31.54-1.31s.54,1.11.54,1.35l2.69,71.42c-.65-.04-1.3-.06-1.96-.08l-1.21-33.07-1.21,33.06c-.7.02-1.39.04-2.08.08l2.69-71.46Zm-15.23,61.93c-1.77-5.4-3.6-10.97-2.87-19.97,1.01-12.49-1.48-17.83-3.67-22.53-1.1-2.35-2.04-4.38-2.44-7.08-.88-5.96.9-9.52,2.1-10.68.28-.27.49-.39.63-.44-.06.3-.23.79-.36,1.17-.64,1.88-1.6,4.71-.37,8.46.55,1.68,1.55,3.49,2.71,5.6,3,5.42,7.1,12.86,6.13,23.62-.7,7.82,1.59,13.99,4.02,20.53,1.32,3.54,2.64,7.17,3.5,11.14-.75.09-1.5.2-2.25.33-2.46-11.91-8.92-19.04-7.37-31.69-3.5,10.31,3.47,18.59,4.86,32.18-.65.14-1.3.29-1.94.46-.41-4.17-1.53-7.58-2.68-11.11Zm-31.68-52.38c-.08-.19-.4-1.25,0-1.42.39-.16.92.82,1.01,1.04l29.81,64.96c-.62.21-1.23.44-1.84.67l-13.77-30.08,11.54,31.01c-.64.28-1.27.57-1.89.88l-24.86-67.05Zm9.62,63.04c-3.7-4.31-7.52-8.76-10.3-17.35-3.85-11.93-8.19-15.9-12.02-19.41-1.91-1.75-3.56-3.26-4.96-5.6-3.09-5.17-2.81-9.14-2.15-10.66.15-.36.31-.55.41-.65.06.3.09.82.12,1.22.13,1.98.32,4.96,2.89,7.96,1.15,1.34,2.77,2.63,4.65,4.13,4.84,3.87,11.48,9.16,14.71,19.48,2.34,7.5,6.83,12.32,11.57,17.43,2.58,2.77,5.19,5.62,7.51,8.96-.66.38-1.31.76-1.95,1.17-6.83-10.07-15.54-14.18-18.95-26.47.71,10.87,10.33,15.85,16.82,27.9-.54.38-1.09.77-1.61,1.18-1.98-3.71-4.32-6.44-6.75-9.27Zm-49.32-36.27c-.14-.15-.85-1-.55-1.31.31-.3,1.17.41,1.33.57l52.42,48.62c-.49.43-.97.88-1.44,1.33l-24.25-22.54,22.54,24.25c-.48.5-.95,1.01-1.41,1.53l-48.64-52.45Zm33.02,54.56c-5.06-2.56-10.3-5.22-16.15-12.09-8.12-9.55-13.65-11.56-18.53-13.33-2.43-.89-4.54-1.65-6.73-3.28-4.84-3.59-6.09-7.37-6.06-9.03,0-.39.07-.63.13-.76.17.25.4.72.57,1.08.88,1.78,2.2,4.47,5.72,6.25,1.58.8,3.57,1.37,5.88,2.04,5.95,1.72,14.11,4.07,21.04,12.37,5.03,6.03,11.02,8.77,17.36,11.67,3.44,1.58,6.95,3.21,10.37,5.41-.46.6-.92,1.2-1.36,1.82-10.16-6.7-19.78-7.16-27.65-17.21,4.82,9.77,15.61,10.69,26.21,19.34-.36.56-.71,1.13-1.04,1.7-3.24-2.67-6.45-4.29-9.78-5.98Zm-59.45-14.64s-.4-.17-.72-.45c-.38-.33-.31-.47-.28-.54.16-.4,1.23-.07,1.45.02l67.02,24.85c-.29.58-.56,1.18-.83,1.78l-31.01-11.54,30.08,13.77c-.25.65-.49,1.3-.72,1.95l-64.99-29.83Zm51.39,37.77c-5.66-.43-11.51-.88-19.55-4.99-11.15-5.71-17.03-5.46-22.22-5.23-2.58.11-4.82.21-7.47-.46-5.85-1.47-8.45-4.48-9.06-6.02-.14-.36-.17-.6-.17-.75.25.17.64.51.95.78,1.49,1.31,3.74,3.28,7.68,3.58,1.75.14,3.82-.1,6.21-.36,6.16-.69,14.6-1.64,24.17,3.37,6.96,3.64,13.54,3.89,20.51,4.14,3.78.14,7.63.3,11.63,1.02-.2.73-.38,1.46-.55,2.2-11.94-2.29-21,.96-32.1-5.32,8.19,7.18,18.5,3.91,31.6,7.83-.11.65-.22,1.31-.31,1.97-4.01-1.22-7.6-1.5-11.31-1.78Zm-60.52,9.23c-.2,0-1.31-.11-1.31-.54s1.11-.54,1.34-.54l71.42-2.69c-.04.65-.06,1.3-.08,1.96l-33.07,1.21,33.06,1.21c.02.7.04,1.39.08,2.08l-71.46-2.69Zm61.92,15.23c-5.4,1.77-10.97,3.59-19.97,2.87-12.5-1.01-17.83,1.48-22.53,3.67-2.35,1.1-4.38,2.04-7.08,2.44-5.96.88-9.51-.9-10.67-2.09-.27-.28-.39-.5-.44-.63.3.06.79.23,1.17.36,1.87.64,4.71,1.6,8.46.37,1.68-.55,3.49-1.55,5.6-2.71,5.42-3,12.86-7.1,23.62-6.13,7.82.7,14-1.59,20.53-4.02,3.54-1.32,7.17-2.64,11.14-3.5.09.75.2,1.5.33,2.24-11.91,2.46-19.04,8.92-31.69,7.38,10.31,3.5,18.59-3.47,32.19-4.86.15.65.3,1.3.46,1.95-4.17.41-7.58,1.52-11.12,2.68Zm-52.38,31.68c-.19.08-1.25.4-1.42,0-.16-.4.82-.92,1.04-1.01l64.96-29.81c.21.62.44,1.23.67,1.84l-30.08,13.77,31.01-11.54c.28.64.57,1.27.88,1.89l-67.05,24.86Zm63.04-9.63c-4.31,3.7-8.76,7.52-17.36,10.3-11.93,3.85-15.9,8.19-19.41,12.02-1.75,1.91-3.26,3.56-5.6,4.96-5.18,3.09-9.14,2.81-10.66,2.15-.36-.15-.55-.31-.65-.41.3-.06.82-.09,1.22-.12,1.98-.13,4.96-.32,7.96-2.89,1.34-1.15,2.64-2.77,4.13-4.65,3.86-4.84,9.16-11.48,19.47-14.7,7.5-2.34,12.32-6.83,17.43-11.57,2.77-2.58,5.62-5.19,8.96-7.51.38.66.76,1.31,1.17,1.95-10.07,6.83-14.18,15.54-26.47,18.95,10.87-.71,15.85-10.33,27.9-16.82.38.55.77,1.09,1.18,1.61-3.71,1.97-6.44,4.32-9.27,6.74Zm-36.27,49.32c-.14.14-1,.85-1.31.55s.4-1.16.57-1.33l48.62-52.42c.43.49.87.97,1.32,1.44l-22.54,24.25,24.25-22.54c.5.48,1.01.95,1.53,1.41l-52.45,48.64Zm54.56-33.02c-2.56,5.06-5.22,10.3-12.09,16.15-9.55,8.12-11.56,13.65-13.33,18.53-.89,2.43-1.65,4.54-3.28,6.73-3.56,4.79-7.3,6.07-8.98,6.07h-.04c-.39,0-.63-.07-.76-.13.25-.17.72-.4,1.08-.58,1.78-.88,4.47-2.2,6.25-5.72.8-1.58,1.37-3.57,2.04-5.88,1.72-5.95,4.07-14.11,12.37-21.04,6.03-5.03,8.77-11.02,11.67-17.36,1.58-3.45,3.21-6.95,5.41-10.38.6.46,1.2.92,1.82,1.36-6.7,10.16-7.16,19.78-17.21,27.65,9.77-4.82,10.69-15.61,19.33-26.21.56.36,1.13.71,1.7,1.04-2.67,3.24-4.3,6.45-5.98,9.78Zm-14.64,59.44c-.11.28-.48.88-.8,1.01-.05.02-.09.03-.19,0-.4-.16-.07-1.23.02-1.45l24.85-67.01c.58.29,1.18.56,1.77.82l-11.54,31.01,13.77-30.08c.65.25,1.3.49,1.95.72l-29.83,64.99Zm37.77-51.39c-.43,5.66-.88,11.52-4.99,19.55-5.71,11.16-5.46,17.03-5.23,22.22.11,2.59.21,4.82-.46,7.47-1.47,5.85-4.48,8.45-6.02,9.06-.37.14-.62.19-.75.17.17-.25.51-.64.78-.95,1.31-1.49,3.29-3.74,3.58-7.68.14-1.76-.1-3.82-.37-6.21-.69-6.16-1.64-14.59,3.37-24.17,3.64-6.96,3.89-13.54,4.14-20.51.14-3.78.3-7.63,1.02-11.63.73.2,1.46.38,2.2.55-2.29,11.94.96,21-5.32,32.1,7.18-8.19,3.91-18.5,7.83-31.6.65.11,1.31.22,1.97.31-1.22,4.01-1.5,7.59-1.78,11.31Zm9.23,60.52c0,.2-.11,1.31-.54,1.31s-.54-1.11-.54-1.35l-2.69-71.42c.65.04,1.3.06,1.96.08l1.21,33.07,1.21-33.06c.7-.02,1.39-.04,2.08-.08l-2.69,71.46Zm15.23-61.92c1.77,5.4,3.6,10.97,2.87,19.97-1.01,12.5,1.48,17.83,3.67,22.53,1.09,2.35,2.04,4.38,2.44,7.07.88,5.96-.9,9.51-2.09,10.67-.28.27-.5.39-.63.44.06-.3.23-.79.36-1.17.64-1.88,1.6-4.71.37-8.46-.55-1.68-1.55-3.49-2.71-5.6-3-5.42-7.1-12.85-6.13-23.62.7-7.82-1.59-13.99-4.02-20.53-1.32-3.54-2.64-7.17-3.5-11.14.75-.09,1.5-.2,2.25-.33,2.46,11.91,8.92,19.04,7.38,31.69,3.5-10.31-3.47-18.59-4.86-32.19.65-.14,1.3-.29,1.94-.46.41,4.17,1.52,7.58,2.68,11.12Zm31.68,52.38c.08.19.4,1.25,0,1.42-.4.16-.92-.82-1.01-1.04l-29.81-64.96c.62-.21,1.23-.43,1.84-.67l13.77,30.08-11.54-31.01c.64-.28,1.27-.57,1.89-.88l24.86,67.05Zm-9.62-63.04c3.7,4.31,7.52,8.76,10.3,17.35,3.85,11.93,8.19,15.9,12.02,19.41,1.91,1.75,3.56,3.26,4.96,5.6,3.09,5.17,2.81,9.14,2.15,10.66-.15.36-.31.55-.41.65-.06-.3-.09-.81-.12-1.22-.13-1.98-.32-4.97-2.89-7.96-1.15-1.34-2.77-2.63-4.65-4.13-4.84-3.87-11.48-9.16-14.71-19.48-2.34-7.5-6.83-12.32-11.57-17.43-2.58-2.77-5.19-5.62-7.51-8.96.66-.38,1.31-.76,1.95-1.17,6.83,10.07,15.54,14.18,18.95,26.47-.71-10.87-10.33-15.85-16.82-27.9.55-.38,1.09-.77,1.62-1.18,1.98,3.71,4.32,6.44,6.75,9.27Zm-37.82-1.46c-26.83,0-48.65-21.83-48.65-48.65s21.82-48.65,48.65-48.65,48.65,21.83,48.65,48.65-21.83,48.65-48.65,48.65Zm87.14,37.73c.21.21.62.78.62,1.13,0,.05,0,.1-.08.18-.3.31-1.16-.4-1.33-.57l-52.42-48.62c.49-.43.97-.87,1.44-1.33l24.25,22.54-22.54-24.25c.48-.5.95-1.01,1.41-1.53l48.65,52.45Zm-33.02-54.56c5.07,2.56,10.3,5.22,16.15,12.09,8.12,9.55,13.65,11.56,18.53,13.33,2.43.89,4.54,1.65,6.73,3.28,4.84,3.59,6.09,7.37,6.06,9.03,0,.39-.07.63-.13.76-.17-.25-.4-.72-.57-1.08-.88-1.78-2.2-4.47-5.72-6.25-1.58-.8-3.57-1.37-5.88-2.04-5.95-1.72-14.11-4.07-21.04-12.37-5.03-6.03-11.02-8.77-17.36-11.67-3.44-1.58-6.95-3.21-10.38-5.41.46-.6.92-1.2,1.36-1.82,10.16,6.7,19.78,7.16,27.65,17.21-4.82-9.77-15.61-10.69-26.21-19.34.36-.56.71-1.13,1.04-1.7,3.24,2.67,6.45,4.29,9.77,5.98Zm59.44,14.64c.19.08,1.17.6,1.01,1-.16.4-1.23.07-1.45-.02l-67.02-24.85c.29-.58.56-1.18.82-1.78l31.01,11.54-30.08-13.77c.25-.65.49-1.3.72-1.95l64.99,29.83Zm-51.38-37.77c5.66.43,11.51.88,19.55,4.99,11.16,5.71,17.03,5.45,22.22,5.23,2.59-.11,4.82-.21,7.47.45,5.85,1.47,8.45,4.48,9.06,6.02.14.36.17.61.17.75-.25-.17-.64-.51-.95-.78-1.49-1.31-3.74-3.28-7.68-3.58-1.76-.14-3.82.1-6.21.36-6.16.69-14.59,1.64-24.17-3.37-6.96-3.64-13.54-3.89-20.51-4.14-3.78-.14-7.63-.3-11.63-1.02.2-.73.38-1.46.55-2.2,11.94,2.29,21-.96,32.1,5.32-8.19-7.18-18.5-3.91-31.6-7.83.11-.65.22-1.31.31-1.97,4.01,1.22,7.6,1.5,11.31,1.78Zm60.48-8.15l-71.42,2.69c.04-.65.06-1.3.08-1.96l33.07-1.21-33.06-1.21c-.02-.7-.04-1.39-.08-2.08l71.46,2.69c.3,0,.99.11,1.24.36.04.04.07.07.07.18,0,.43-1.11.54-1.35.54Z"/><path class="cls-5" d="m467.72,436.96h0c-5,0-6.15,1.16-8.46,3.08-2.31,1.92-3.46,1.54-3.85,1.92-.38.39,0,1.54.77,1.15s2.31-1.15,4.61-3.08c2.31-1.93,4.61-1.92,6.92-1.92,6.92,0,10.77,5.77,11.54,5.38.77-.39-3.85-6.54-11.54-6.54Z"/><path class="cls-5" d="m453.1,435.42c-.53,1.43-.94,2.89-1.21,4.38-1,5.71.08,11.7,3.13,17.54.38-.39,1.16-.77,1.54-.77-3.43-4.85-4.8-9.58-4.03-13.96.4-2.25,1.36-4.41,2.87-6.43,6.15-5.77,17.3-4.62,26.14,3.06-8.46-11.53-19.99-10.75-28.45-3.84Z"/><path class="cls-5" d="m481.56,439.26h0s-.01,0-.02-.01c0,0,0,0,.01.01Z"/><path class="cls-5" d="m461.57,446.96c-3.08-1.54-3.85-2.31-4.61-2.31s-.77.77,3.08,3.08c3.85,2.31,10.38,2.69,16.92-2.31h0c-7.69,3.08-12.31,3.08-15.38,1.54Z"/><path class="cls-5" d="m445.47,459.25c-.07,1.22-1.08,2.19-2.31,2.19s-2.31-1.03-2.31-2.31c0-.98.6-1.87,1.52-2.19h0c-1.64.3-2.81,1.76-2.81,3.43,0,1.91,1.58,3.43,3.49,3.43,1.13,0,2.16-.53,2.81-1.46,1.33,1,3.18,1.11,4.16,1.13.15,0,.35,0,.45,0,.99-.02,2.83-.12,4.16-1.13.65.93,1.68,1.46,2.81,1.46,1.91,0,3.49-1.52,3.49-3.43,0-1.67-1.17-3.13-2.81-3.43.92.33,1.52,1.22,1.52,2.19,0,1.27-1.03,2.31-2.31,2.31s-2.23-.97-2.31-2.19c-.38.75-1.86,2.98-4.78,3.09-2.92-.11-4.41-2.34-4.78-3.09Z"/><path class="cls-5" d="m449.96,469.49h.06c1.54,0,3.83-1.88,6.53-.34,2.69,1.54,4.26,3.06,6.19,3.83-3.46-2.31-5.04-5.79-8.89-5.79-.77,0-2.29.42-3.83,1.18h-.06c-1.54-.77-3.06-1.18-3.83-1.18-3.85,0-5.37,3.49-8.83,5.79,1.92-.77,3.44-2.28,6.13-3.83,2.69-1.54,4.99.34,6.53.34Z"/><path class="cls-5" d="m450.02,472.19h-.06c-1.44,0-2.59-.56-5.12-.45h0c-1.49.07-3.46.37-6.26,1.2-.4,0-.81,0-1.27.05,8.08.77,4.2,5.4,12.66,5.4h.06c8.46,0,4.63-4.63,12.71-5.4-.52-.05-1-.07-1.44-.08-7.47-2.19-9-.72-11.28-.72Zm0,5.01h-.06c-6.49,0-4.49-4.36-11.19-4.28-.04,0-.08,0-.12,0,6.72-1.43,8.26.83,11.3.83h.06c3.02,0,4.56-2.23,11.18-.86-6.6-.04-4.71,4.3-11.17,4.3Z"/><path class="cls-5" d="m450.03,478.49c-3.82,0-6.92,3.1-6.92,6.92.76-3.21,3.63-5.47,6.92-5.47s6.16,2.27,6.92,5.47c0-3.82-3.1-6.92-6.92-6.92Z"/><path class="cls-5" d="m418.95,439.26s0,0,.01-.01c0,0-.01,0-.02.01h0Z"/><path class="cls-5" d="m445.1,436.19c1.51,2.02,2.47,4.17,2.87,6.43.77,4.38-.59,9.11-4.03,13.96.39,0,1.16.38,1.54.77,3.05-5.84,4.13-11.84,3.13-17.54-.26-1.49-.67-2.96-1.21-4.38-8.46-6.92-19.99-7.69-28.45,3.84,8.84-7.68,19.99-8.83,26.14-3.06Z"/><path class="cls-5" d="m439.71,440.04c2.3,1.92,3.85,2.69,4.61,3.08s1.15-.77.77-1.15c-.38-.39-1.54,0-3.85-1.92-2.31-1.92-3.46-3.08-8.46-3.08h0c-7.69,0-12.31,6.15-11.54,6.54.77.38,4.61-5.38,11.54-5.38,2.31,0,4.61,0,6.92,1.92Z"/><path class="cls-5" d="m443.55,444.65c-.77,0-1.54.77-4.61,2.31-3.08,1.54-7.69,1.54-15.38-1.54h0c6.54,5,13.08,4.62,16.92,2.31,3.85-2.31,3.85-3.08,3.08-3.08Z"/></g></g></g><circle class="cls-4" cx="450.03" cy="450.03" r="450.03"/></g></g></g></g></g></svg>