<?xml version="1.0" encoding="UTF-8"?><svg xmlns="http://www.w3.org/2000/svg" xmlns:xlink="http://www.w3.org/1999/xlink" viewBox="0 0 900.06 900.06"><defs><style>.cls-1{fill:#fff;}.cls-2{fill:#999270;}.cls-3{fill:#f9f0aa;}.cls-4{isolation:isolate;}.cls-5{fill:#e2cc78;}.cls-6{fill:#4997d0;}.cls-7{fill:url(#radial-gradient);mix-blend-mode:multiply;opacity:.3;}.cls-8{clip-path:url(#clippath);}.cls-9{fill:none;}.cls-10{fill:#67923d;}.cls-11{fill:#ba1f3e;}</style><clipPath id="clippath"><circle class="cls-9" cx="450.03" cy="450.03" r="450.03"/></clipPath><radialGradient id="radial-gradient" cx="450.03" cy="450.03" fx="450.03" fy="450.03" r="450.03" gradientUnits="userSpaceOnUse"><stop offset="0" stop-color="#fff"/><stop offset=".36" stop-color="#fdfdfd"/><stop offset=".48" stop-color="#f6f6f6"/><stop offset=".58" stop-color="#eaeaea"/><stop offset=".65" stop-color="#d9d9d9"/><stop offset=".71" stop-color="#c3c3c3"/><stop offset=".77" stop-color="#a8a8a8"/><stop offset=".82" stop-color="#878787"/><stop offset=".87" stop-color="#626262"/><stop offset=".91" stop-color="#373737"/><stop offset=".95" stop-color="#090909"/><stop offset=".96" stop-color="#000"/></radialGradient></defs><g class="cls-4"><g id="Layer_2"><g id="Layer_1-2"><g id="Guatemala"><g class="cls-8"><g><g><path class="cls-1" d="m210.01,0h480.03v900.06H210.01V0Z"/><path class="cls-6" d="m-270.02,0H210.01v900.06h-480.03V0Z"/><path class="cls-6" d="m690.04,0h480.03v900.06h-480.03V0Z"/></g><g><path class="cls-3" d="m405.66,496.83h-.03c-.1.02-.35.05-.7.05-.84,0-2.27-.19-3.72-1.23-2.23-1.61-3.64-4.62-4.19-8.94-1.03-8.09,3.92-9.34,3.97-9.35h.03s0,0,0,0l11.45-1.08c-.86-2.05-2.1-3.67-3.73-4.8-4.3-2.99-9.82-1.66-9.88-1.65l-.18.04v-.07c-1.51.43-4.42,1.59-6.46,4.47-2.3,3.23-2.9,7.68-1.8,13.23,2.92,14.65,13.17,14.03,13.75,13.99h0s2.08-.42,2.08-.42c3.29-.91,5.91-2.64,7.84-5.12l-8.42.9h0Z"/><path class="cls-5" d="m406.47,487.1c0-.09-.9-9.02-5.37-9.44h-.09c-.38.09-4.69,1.5-3.73,9.02.54,4.24,1.91,7.18,4.07,8.74,2.1,1.52,4.23,1.13,4.26,1.13h0c4.12-1.54,6.53-5.8,7.56-9.74l-6.7.43v-.14Z"/><path class="cls-3" d="m401.99,477.54c3.73,1.29,4.63,8.27,4.75,9.39l6.52-.42c.48-1.94.63-3.77.48-5.14-.2-1.81-.59-3.42-1.14-4.83l-10.6,1Z"/><path class="cls-3" d="m401.88,469.22c2.01,0,4.69.38,7.01,2.01,2.88,2,4.6,5.4,5.12,10.12.45,4.07-1.68,12.28-7.44,15.1l7.76-.83c.67-.92,1.26-1.93,1.75-3.05,2.5-5.71,2.71-13.91.64-24.55-4.02.19-11.17.59-15.27,1.21.14,0,.28,0,.42,0Z"/><path class="cls-3" d="m407.5,388.36c-.88.12-4.1.51-5.41.6-.71.05-3.55.23-5.22.23-.6,0-1.04-.02-1.2-.08v-.06c-.45-.04-8.01-.9-8.24-11.28-.03-1.28.09-5.66,2.83-8.46,1.4-1.43,3.24-2.16,5.46-2.16l9.88-.55c-2.64-3.8-6.83-4.41-9.25-4.41-.11,0-.2,0-.3,0l-1.24.09c-4.23.46-7.38,2.51-9.35,6.09-3.69,6.72-2.15,17.25,1.27,24.17.37.74.93,1.84,1.65,3.24,4.09,7.97,13.68,26.64,20.89,45.96,8.98,24.08,11.37,41.22,7.1,50.95-1.95,4.44-5.33,7.35-10.04,8.65,21.59-1.46,86.27-5.77,97.97-5.77.4,0,.74,0,1.02.02,5.41-3.04,8.96-8,10.54-14.75,5.51-23.55-13.84-66.13-34.17-95.75-.67-.03-37.62-1.61-74.18,3.28Z"/><path class="cls-5" d="m399.17,383.4c.04-.13,4.27-13-3.51-15.91l-.09-.04v-.02c-2.07.03-3.8.72-5.11,2.06-2.66,2.71-2.77,7-2.74,8.25.23,10.38,7.93,11,8.01,11.01l1.27-.07c1.33-.23,3.51-.83,5.55-2.46,1.03-.82,1.91-1.82,2.67-2.9l-6.1.27.07-.2Z"/><path class="cls-3" d="m399.5,383.3l5.9-.26c1.81-2.72,2.76-6.04,2.49-9.26-.25-2.98-1.03-5.18-2.09-6.84l-9.47.53c6.75,3.17,3.67,14.21,3.17,15.83Z"/><path class="cls-3" d="m398.14,362.01c3.61.49,9.29,2.71,10.04,11.73.47,5.75-2.51,10.33-5.46,12.7-1.88,1.51-3.88,2.16-5.26,2.45,1.14-.02,2.76-.1,4.62-.22,1.31-.09,4.52-.47,5.39-.59,36.73-4.92,73.87-3.3,74.24-3.28h.06s.04,0,.04,0c4.45-.73,7.55-3.57,8.71-8.01,1.53-5.81-.64-12.67-5.16-16.33-26.06-.97-60.77-.34-87.22,1.56Z"/><path class="cls-2" d="m482.63,385.3c4.34-.95,7.36-3.9,8.53-8.35,1.6-6.07-.68-13.24-5.45-17.07-.06-.05-.19-.09-.28-.09-8.05-.3-16.99-.45-26.57-.45-18.56,0-38.02.58-54.79,1.62,0,0-.22,0-.22,0l-.72.05c-2.48.16-4.91.32-7.26.5-.02,0-.05,0-.07.01l-1.08.07c-4.47.48-7.79,2.65-9.86,6.43-3.98,7.24-2.14,17.92,1.25,24.78.3.61.74,1.46,1.28,2.52l.37.73c15.37,29.93,24.94,53.91,28.45,71.31-4.92.23-13.18.73-16.64,1.53-.2.03-4.93.79-7.9,4.97-2.41,3.38-3.05,8.01-1.91,13.74,2.76,13.84,12.12,14.54,13.97,14.54.26,0,.43-.01.51-.02l22.35-1.5c25.03-1.65,68.41-4.41,77.67-4.41.41,0,.76,0,1.08.02h0c.07,0,.17-.04.23-.07,5.6-3.13,9.27-8.24,10.89-15.2,5.51-23.56-13.63-66.01-33.86-95.68Zm21.66,109.89c-11.03,0-68.32,3.77-95.31,5.59,3.51-1.58,6.1-4.24,7.72-7.94,4.31-9.82,1.92-27.06-7.09-51.23-7.21-19.34-16.81-38.03-20.91-46l-.22-.44c-.61-1.19-1.1-2.14-1.42-2.8-3.38-6.84-4.9-17.22-1.28-23.83,1.91-3.47,4.95-5.46,9.04-5.9l1.23-.08h.29c2.12,0,5.95.49,8.53,3.7l-9.16.51c-2.32,0-4.25.76-5.72,2.27-2.83,2.9-2.96,7.42-2.93,8.73.22,9.92,7.03,11.42,8.38,11.62.03.03.06.05.1.06.14.06.41.11,1.34.11,1.5,0,3.93-.15,5.25-.23,1.33-.09,4.56-.48,5.43-.6,21.88-2.93,43.89-3.55,58.5-3.55,8.57,0,14.33.22,15.42.26,20.23,29.54,39.48,71.9,34,95.3-1.55,6.6-5,11.47-10.27,14.46-.26,0-.57-.01-.93-.01Zm-100.14,5.92c-.05,0-.2.01-.41.01-2.4,0-10.41-.99-12.95-13.7-1.08-5.44-.5-9.79,1.74-12.94,1.88-2.64,4.5-3.79,6.04-4.26.04.01.08.02.12.02.03,0,.06,0,.09-.01l.18-.05c.31-.07,1.44-.29,2.93-.29,1.79,0,4.4.33,6.64,1.89,1.42.99,2.56,2.39,3.39,4.17l-10.86,1.03s-.02,0-.04,0c-.05,0-.1,0-.14.02-.22.06-5.31,1.48-4.25,9.76.56,4.43,2.03,7.52,4.35,9.2,1.5,1.08,2.97,1.3,3.94,1.3.38,0,.65-.04.78-.05l7.51-.8c-1.82,2.06-4.19,3.5-7.04,4.28l-2.03.42Zm8.82-14.95l-5.88.38c-.22-1.73-1.09-6.74-3.81-8.73l9.08-.85c.5,1.33.84,2.83,1.02,4.47.14,1.3,0,3.01-.4,4.74Zm-6.47,1.45s6.19-.4,6.19-.4c-.72,2.47-2.67,7.3-7.13,8.96-.05,0-.27.04-.6.04-.69,0-2.04-.14-3.37-1.11-2.07-1.5-3.39-4.36-3.92-8.49-.88-6.92,2.76-8.4,3.4-8.61h0c4.14.4,5.02,9.03,5.04,9.25.02.19.18.34.37.34Zm9.26,4.81c-.45,1.02-.99,1.98-1.61,2.85l-5.91.63c4.66-3.36,6.63-10.45,6.17-14.59-.53-4.82-2.31-8.32-5.28-10.38-1.32-.92-2.75-1.45-4.09-1.74,3.81-.38,8.43-.63,11.4-.77,1.98,10.39,1.75,18.46-.68,24.01Zm-18.15-124.65l8-.45c1.06,1.74,1.71,3.92,1.92,6.48.25,2.98-.6,6.2-2.33,8.86l-5.18.23c.68-2.46,2.73-11.49-2.41-15.13Zm1.21,15.52l-.07.2c-.04.12-.02.25.06.34.07.1.18.15.3.15,0,0,5.34-.24,5.34-.24-.66.85-1.38,1.59-2.14,2.2-1.92,1.54-3.98,2.15-5.33,2.38l-1.22.07c-.3-.02-7.44-.7-7.66-10.65-.03-1.21.08-5.37,2.64-7.98,1.21-1.24,2.81-1.9,4.75-1.95.02.01.04.02.06.03,7.37,2.76,3.33,15.31,3.28,15.44Zm82.88,1.13c-1.07-.04-6.85-.27-15.63-.27-14.65,0-36.72.62-58.65,3.55-.83.11-4.05.51-5.37.59-.64.04-1.26.08-1.85.11.89-.39,1.84-.93,2.76-1.67,3.03-2.43,6.09-7.13,5.6-13.02-.62-7.43-4.54-10.37-7.9-11.5,17.32-1.17,38.35-1.84,58.17-1.84,9.52,0,18.4.15,26.4.45,4.34,3.59,6.42,10.24,4.94,15.86-1.13,4.28-4.11,7.03-8.46,7.73Z"/></g><g><path class="cls-10" d="m583.7,469.1c.72.5,1.62.77,2.69.77.24,0,.5-.01.76-.04,2.42-.25,5.33-1.61,8.38-4.01,5.02-3.92,10.42-10.72,14.5-20.05l-.04-.02.04-.1-.17.02-.04-.03s-.03.03-.04.04c-3.36.43-22.13,12.87-26.95,22.15h-.05s.03.04.03.04c-.03.06-.07.12-.1.19l-.03.07.04.06c.14.19.3.35.47.51-1.5,1.89-3.06,3.35-4.72,4.41,1.59-4.77,2.9-9.61,3.78-14.54l2.86-1.19-.25-.61-2.48,1.03c.29-1.74.55-3.49.72-5.25,1.31-1.62,2.4-3.19,3.33-4.79.16.02.31.07.47.07.65,0,1.36-.19,2.09-.5.13-.05.25-.08.38-.14,5.6-2.7,12.01-13.59,13.4-29.21h-.01s0-.05,0-.07l.02-.23-.2.11c-1.58.84-6.38,6.69-10.6,13.41,1.54-5.43,2.22-12.8,1.39-21.34-.13-1.66-.33-3.38-.59-5.14,3.03-3.24,6.15-8.45,8.75-16.04.53-1.53,1.04-3.14,1.51-4.87l.09-.33-.28.19c-12.4,8.53-18.42,17.71-20.7,21.87-.13-.87-.26-1.75-.43-2.61l2.32-3.15-.53-.39-1.98,2.69c-.16-.78-.32-1.57-.52-2.34-.18-.69-.36-1.4-.54-2.1h.07c.55.25,1.12.38,1.72.38.83,0,1.71-.25,2.6-.74.29-.15.58-.32.88-.51,6.06-4.11,11.51-18.04,10.19-36.73h-.06s0-.06,0-.09l-.02-.23-.18.14c-3.11,2.42-15.36,25.72-15.21,37.66h0c-1.15-4.42-2.41-9-3.85-13.64l1.75-3.08-.57-.33-1.45,2.55c-.13-.43-.27-.85-.4-1.28.77-2.92,1.1-5.79,1.02-8.56.24-.09.49-.19.72-.33.6-.35,1.16-.87,1.67-1.57,3.65-5.01,4.2-17.52-1.81-31.72h-.02s-.02-.04-.03-.07l-.09-.21-.13.19c-.55.8-1.25,3.4-1.86,6.88-.05-5.54-1.63-12.61-5.35-20.1h-.03s-.02-.04-.03-.06l-.1-.2-.12.19c-1.51,2.53-3.44,22.92.13,31.2l-.02.02h.03s.03.07.03.07h.08s.06,0,.09,0c.1,0,.19-.03.29-.04.03,2.57-.35,4.8-1.11,6.78-.67-1.5-1.37-2.98-2.1-4.46-.09-1.63-.59-3.9-1-5.76-.14-.62-.27-1.2-.37-1.71l-.28.06c.42-.69.71-1.55.84-2.56.89-6.89-5.16-19.44-18.44-30.09l-.02.02s-.05-.05-.08-.07l-.18-.14-.02.23c-.23,2.34,3.19,13.17,7.82,22.42l-.16.16c.32.44.62.9.93,1.35,1.59,3.03,3.3,5.81,5.04,7.99,3.36,5.89,6.18,12.01,8.58,18.18-2.12-1.23-4.26-3.06-6.3-4.92.2-.11.39-.24.57-.38.02-.01.04-.02.05-.04l.06-.05h0s.15-.12.15-.12l-.19-.03c-1.55-6.37-7.87-14.61-11.51-18.97-4.85-5.8-10.33-11.13-12.23-11.89l-.21-.08.04.22c1.55,8.64,4.48,15.86,7.88,21.24,3.35,5.36,7.18,8.88,10.57,10.15.91.34,1.77.51,2.56.51.57,0,1.1-.09,1.59-.26,2.35,2.14,4.82,4.28,7.31,5.56.26.69.52,1.39.78,2.08l-2.87-.98-.21.62,3.28,1.12.05-.13c1.77,4.88,3.31,9.75,4.68,14.53-.35-.29-.67-.52-.94-.73-.19-.14-.37-.28-.55-.42-3.04-9.51-18.86-24.61-21.96-25.58l-.21-.06.05.21s0,.03.01.05l-.05.02c3.45,14.79,11.35,24.51,17.37,26.45.73.23,1.41.35,2.05.35.04,0,.07,0,.11,0,.02,0,.03,0,.05,0,.92,0,1.72-.26,2.4-.75.11.09.22.17.34.26.47.34.99.74,1.65,1.35.9,3.19,1.73,6.33,2.51,9.39.34,1.35.61,2.71.85,4.09-.77-1.08-1.71-2.06-2.74-2.7.03-.04.07-.07.11-.11l.16-.22-.18.02c-5.1-9.6-25.84-22.4-29.39-22.71l-.21-.02.09.19c4.75,10.4,11.28,17.73,17.16,21.52,2.66,1.75,5.18,2.76,7.33,2.99.32.03.62.05.92.05,1.47,0,2.65-.43,3.53-1.23,1.35.79,2.62,2.3,3.47,3.84.24,1.58.42,3.17.56,4.78-2.22-1.97-5.51-3.88-8.98-5.52-.54-.81-1-1.4-1.34-1.69l-.17-.15-.03.22s0,.03,0,.05h-.04c-.03.27-.05.53-.08.79-6.18-2.74-12.47-4.56-14.02-4.35l-.21.03.13.17c4.47,5.89,9.31,9.78,13.62,11.98-.09,13.43,3.75,23.69,8.44,27.89.21.2.43.41.64.58.89.71,1.78,1.16,2.65,1.38,0,0,0,0,0,0,.16,2.44.17,4.85.06,7.24l-1.2-1.08-.44.49,1.58,1.43c-.18,3.01-.55,5.99-1.08,8.94-1.02-1.36-1.89-2.98-2.73-4.56l-.02-.03c.18-.07.35-.11.52-.2l.22-.12-.18-.08s.06-.02.08-.03l.07-.04v-.07c0-6.91-4.3-16.73-6.86-21.97-3.41-6.97-7.56-13.58-9.27-14.73l-.18-.12v.22c-.13,2.39-.14,4.69-.05,6.9.51,15.15,5.56,26.08,10.93,29.49,1.11.7,2.2,1.06,3.22,1.06.29,0,.57-.05.85-.1l.07.14c.95,1.79,1.95,3.62,3.16,5.11-.74,3.89-1.76,7.73-2.96,11.52-.38-1.8-.98-3.77-1.71-5.77.07-4.24-.19-7.58-.65-8.88.01-.07.03-.13.04-.2l-.14-.06-.07-.15-.12.18c-.62.9-1.2,1.8-1.76,2.7-2.83-6-6.07-11.16-7.3-12.02l-.18-.13v.22s-.01.04-.01.06h-.03c-.38,8.29,1.03,15.3,3.21,20.27-3.8,9.13-4.23,17.14-2.17,21.5.71,1.51,1.7,2.5,2.87,2.93-.73,1.67-1.46,3.33-2.19,4.99-1.05,2.38-2.14,4.85-3.18,7.26-.4.92-.82,1.83-1.26,2.72l-.59-1.59s.02,0,.03,0c.16,0,.33,0,.5-.03h.07s.03-.08.03-.08c4.16-11.45-.05-38.63-2.28-41.88l-.13-.18-.09.21c-.06.15-.11.29-.17.44-.48,1.14-.93,2.27-1.34,3.39-.02.06-.04.11-.06.17-5.52,15.02-5.13,27.91-1.6,34.09.28.51.57.99.88,1.41,1.01,1.35,2.18,2.12,3.43,2.36l.91,2.48c-.92,1.81-1.93,3.56-3,5.25l-1.26-2.81-.6.27,1.43,3.21c-2.23,3.44-4.75,6.67-7.47,9.77-.32-2.34-.51-4.79-.25-7.24.15.02.3.07.45.07.07,0,.13,0,.2,0h.08s.03-.07.03-.07h.11s-.08-.09-.08-.09c3.46-8.81.89-29.97-.76-32.57l-.12-.19-.1.21s-.02.04-.03.06h-.03c-3.76,8.14-5.19,15.75-5,21.6l-.05.07s-.02.03-.04.05l-.04-.02c-8.46,11.64-10.59,23.14-8.32,28.49.17.41.37.77.59,1.09.31.46.67.81,1.06,1.09-1.04.99-2.09,1.98-3.14,2.97-1.68,1.59-3.42,3.22-5.12,4.86-.19.18-.4.34-.6.51,6-11.14,7.67-37.04,6.25-40.64l-.08-.21-.13.18s-.04.06-.06.09l-.04-.02c-4.67,6.52-7.85,12.99-9.77,18.85-.16-2.79-.47-5.8-1.04-9.07h-.07s0,0,0-.01l-.04-.22-.17.15c-2.89,2.67-13,28.09-11.59,40.23h-.01s.01.01.01.01c0,.04,0,.08.01.12v.08s.08.02.08.02c.02,0,.03,0,.05.01l-.78,1.5c-2.8,1.16-5.7,2.11-8.54,3.02-3.8,1.23-7.73,2.5-11.41,4.29-1.2.57-2.4,1.36-3.57,2.12-1.14.75-2.31,1.51-3.48,2.07,1.19-1.85,2.38-3.63,3.43-4.73.54.19,1.12.29,1.75.29.67,0,1.39-.11,2.16-.32,1.02-.29,2.08-.76,3.16-1.4,7.24-4.15,15.76-16.09,20.05-33.64h0s.05-.21.05-.21l-.21.07c-1.62.53-6.02,4.17-10.94,9.15.04-.12.08-.25.12-.37.22-.64.43-1.31.64-1.98.12-.41.25-.81.37-1.23.23-.78.45-1.58.66-2.41.11-.42.21-.84.31-1.26.15-.64.3-1.29.45-1.95.07-.3.14-.59.2-.89h0s.04-.22.04-.22l-.21.08c-2.07.79-8.17,6.67-13.61,13.12-4.07,4.82-11.14,13.94-13.06,21.13h-.03s.02.03.02.03c-.01.04-.03.09-.04.13l-.02.07.05.05c.42.38.89.67,1.41.87-2.06,1.57-3.21,3.79-4.33,5.96-.26.5-.53,1-.81,1.5-9.52,1.81-18.1,4.16-26.65,8.2-8.21-3.85-16.45-6.14-25.53-7.91-.78-2.01-2.05-4-3.85-6.05.71-.92,1.16-2.16,1.31-3.67.16-1.6-.02-3.44-.5-5.44-1.14-4.93-4.25-10.94-9.3-17.09-.16-.2-.33-.4-.5-.61-.43-.51-.87-1.02-1.32-1.53-.39-.44-.8-.89-1.22-1.34-.24-.26-.48-.51-.72-.76-.6-.62-1.24-1.26-1.9-1.9-.15-.14-.29-.29-.44-.43-.72-.69-1.49-1.39-2.29-2.09-.15-.13-.29-.26-.44-.39-.8-.7-1.64-1.4-2.51-2.1-.14-.12-.29-.23-.44-.35-.9-.72-1.83-1.44-2.82-2.15h0s0,0,0,0l-.18-.13v.23c-.14,2.31,2.68,10.41,6.32,18.31-2.9-2.97-6.4-5.94-10.53-8.73-.06-.04-.11-.08-.16-.12-.12-.08-.25-.16-.37-.24-1.78-1.18-3.66-2.33-5.66-3.43l-.19-.11v.22c.24,4.08,13.71,28.62,24.18,35.26v.03c-.91-.59-1.83-1.16-2.75-1.6-2.32-1.13-4.75-2.04-7.18-2.88l-.91-2.53-.62.22.73,2.03c-1.15-.39-2.3-.77-3.44-1.13-1-.32-2.01-.65-3.02-.99-.07-.03-.12-.06-.19-.09-.1-.03-.21-.06-.31-.09-2.74-.93-5.47-1.95-8.05-3.24.3.06.6.1.9.1.48,0,.94-.08,1.4-.24l.07-.02v-.08c1.5-12.09-8.67-37.69-11.57-40.36l-.17-.15-.04.22s0,0,0,.01h-.08c-1.97,11.38-1.1,19.95-.03,25.13.98,4.73,2.57,8.72,4.51,11.47-1.36-1.08-2.95-1.93-4.51-2.74-1.93-1.01-3.93-2.05-5.46-3.55-.56-.54-1.12-1.06-1.68-1.59,1.26-.33,2.28-1.2,2.99-2.55.25-.45.46-.96.64-1.52,2.34-7.42-1.94-22.49-14.64-36.91l-.04.02s-.04-.05-.06-.07l-.15-.17-.06.22c-1.08,3.8,3.33,30.26,10.65,40.34-.93-.88-1.86-1.77-2.77-2.63-2.87-2.71-5.69-5.38-8.41-8.08.83-.34,1.49-.98,1.92-1.94.17-.36.31-.76.42-1.2,1.1-4.52-1.2-12.45-7.36-20.6.61-6.04-.7-14.45-4.88-23.52h-.04s-.02-.03-.03-.05l-.1-.21-.12.19c-1.65,2.6-4.22,23.78-.75,32.58l-.07.07h.09s.03.07.03.07h.08c.07,0,.13.01.2.01.12,0,.23-.04.35-.05l-.14,3.16c-2.59-3.3-4.94-6.78-6.95-10.54l.63-2.44-.64-.16-.45,1.73c-.36-.7-.71-1.41-1.04-2.13l.59-5.31c1.2-.19,2.3-.96,3.18-2.31.25-.38.47-.8.68-1.25,2.95-5.98,2.32-18.52-4.57-32.46-.09-.18-.16-.36-.26-.54l-.1-.2-.11.19c-.77,1.29-1.62,6.58-1.98,12.93-.68-3.67-2-7.76-4.06-12.05,2.92-4.62,5.37-11.5,6.14-19.96h-.03s0-.06,0-.08l.02-.22-.2.1c-1.48.76-6.19,6.48-10.1,12.84-.23-.34-.44-.69-.68-1.03l-.12-.18-.06.13-.15.07c.02.07.03.14.04.21-.23.64-.41,1.8-.52,3.33-1.3,2.3-2.42,4.61-3.21,6.74-.85-3.13-1.54-6.3-2.04-9.5.28.06.56.1.86.1,1.02,0,2.11-.35,3.22-1.06,5.37-3.42,10.42-14.34,10.93-29.49.09-2.21.08-4.52-.04-6.9v-.22s-.19.12-.19.12c-1.15.78-3.43,4.07-5.84,8.27,1.36-4.8,2.14-10.62,1.98-17.16,4.84-2.58,10.21-6.99,15.17-13.53l.13-.17-.21-.03c-.1-.01-.22-.02-.35-.02-2.12,0-7.85,1.7-13.51,4.03-3.16,1.3-8.11,3.55-12.01,6.27.25-2.02.59-4.01,1.04-5.99,1.83-.95,3.47-1.86,4.84-3.06.85.49,1.86.77,3.05.77.32,0,.66-.02,1-.06,2.53-.27,5.52-1.55,8.66-3.73,6.23-4.24,13.04-12.05,18.03-22.99l.09-.19-.21.02c-1.81.16-7.74,3.3-14.1,7.68,4.01-5.49,7.66-13.1,9.83-22.41l-.06-.03s.01-.04.02-.06l.05-.21-.21.06c-3.75,1.18-23.2,19.75-26.49,31.13l-.02.07.06.05c.09.08.2.14.3.21-.51.34-1.19.93-1.92,1.57,2.08-7.33,4.54-14.91,7.64-22.38l2.82-.48-.11-.65-2.4.41c.73-1.74,1.51-3.47,2.31-5.19,2.19-.96,4.88-2.48,6.54-4.6.2.43.46.82.78,1.18l.03.03.02.02h0s.14.15.14.15l.02-.2c6.4-2.18,14.31-9.59,18.47-13.83,5.54-5.64,10.54-11.92,11.16-13.99l.06-.21-.21.06c-8.64,2.34-15.76,6.04-20.98,10.08-5.2,3.98-8.52,8.3-9.59,11.99-.43,1.5-.48,2.84-.17,3.98-1.39,1.96-3.76,3.44-5.85,4.43,2.52-5.26,5.41-10.4,8.76-15.3l.06.03-.02-.08c.04-.05.07-.11.11-.16,6.74-5.57,13.95-24.08,13.75-27.01l-.02-.22-.18.13c-1.41,1.02-2.71,2.08-3.93,3.15-8.28,7.21-12.29,15.37-11.95,20.34.09,1.37.52,2.44,1.24,3.16-3.43,4.76-6.38,9.77-8.97,14.92-.01-.28,0-.55-.02-.84-.07-1.43-.13-2.91.1-4.2.23.1.47.19.72.23h.08s.04-.05.04-.05h.02s-.01-.01-.01-.01c4.76-7.41,6.32-27.54,5.3-30.27l-.08-.21-.13.18s-.03.05-.05.07h-.02c-8.22,11.22-10.34,22.35-8.18,27.54.34.83.8,1.46,1.34,1.92.15.13.31.22.47.33l-.11-.02c-.29,1.42-.22,3.01-.14,4.54.03.72.06,1.4.06,2.05-.54,1.11-1.07,2.22-1.58,3.34l-.71-2.18-.62.21.93,2.85c-1.71,3.81-3.23,7.67-4.62,11.53-.32-3.16-.63-6.86-.66-10.07.28.07.57.13.86.13.07,0,.14,0,.21,0h.08s.03-.08.03-.08c4.08-10.17,1.11-34.91-.8-37.95l-.12-.19-.1.21s-.03.06-.04.09h-.03c-7.28,15.64-7.16,29.65-3.27,35.41.74,1.09,1.59,1.79,2.52,2.16.02,3.75.43,8.2.81,11.7h.02c-.09.26-.19.53-.28.79-.7-.63-1.31-1.6-1.86-2.49l-.56.34c.62,1.01,1.32,2.12,2.19,2.8-1.71,5.01-3.18,9.99-4.49,14.84-.38-1.66-.86-3.09-1.45-4.37.2-.04.4-.08.59-.15l.07-.02v-.08c1.4-11.87-8.36-36.35-11.2-39.09l-.17-.16-.04.23s0,.05-.01.08h-.06c-3.26,18.45.71,32.9,6.32,37.63.31.26.61.48.92.67.95.63,1.91.97,2.84.97.02,0,.03,0,.05,0,.76,1.59,1.33,3.38,1.76,5.63h.03c-.47,1.75-.93,3.5-1.36,5.21-.55,2.17-.96,4.37-1.26,6.59-1.75-5.32-5.65-14.21-14.06-23.77l-.22-.26v.34s0,0,0,0h0c.34,12.51,3.09,20.54,6.29,24.94-.99,5.45-1.41,10.8-1.21,15.63.08,1.99.28,3.83.56,5.54-5.55-9.1-12.21-17.31-14.33-18.43l-.2-.11.02.23s0,.06.01.09h-.03c1.77,19.83,9.89,33.66,17,37.08.55.26,1.08.46,1.6.59.53.14,1.04.21,1.53.21.69,0,1.34-.14,1.94-.42.23,7.1,1.57,14,3.55,20.75-1.63-1.41-3.19-3.36-4.82-6.01.14-.14.28-.27.39-.43l.04-.06-.03-.07c-.03-.06-.06-.12-.09-.17l.04-.05h-.06c-4.58-8.81-22.39-20.62-25.62-21.06-.02-.02-.03-.03-.05-.05l-.05.03-.17-.02.05.1-.03.02c3.49,7.99,8,14.02,12.35,17.87,3.41,3.04,6.74,4.76,9.43,5.03.25.02.49.04.72.04,1.03,0,1.9-.27,2.59-.76,1.89,3.07,3.7,5.21,5.64,6.68.2.67.42,1.33.64,2-1.62-.29-2.79-.81-3.78-1.35l-.31.57c1.11.61,2.42,1.19,4.32,1.48,1.33,4.06,2.86,8.06,4.49,12.02l-1.34-.78c.39-1.62-.16-3.31-1.63-4.91-2.08-2.27-5.9-4.25-11.04-5.35-4.99-4.19-9.62-7.25-11.11-7.52l-.21-.04.06.15-.15.09c.81,2.27,1.7,4.4,2.65,6.39-4.11-.04-8.69.4-13.65,1.5l-.21.05.1.11v.11s.09.02.14.03c1.74,1.73,10.54,5.66,19.52,8.04,4.36,5.73,9.04,9.1,12.72,9.74.42.07.82.11,1.2.11s.72-.04,1.05-.1c.82-.11,1.53-.39,2.12-.87,1.55,1.16,3.13,2.94,4.94,5.25.02.05.04.1.07.15.76,1.72,1.53,3.47,2.29,5.22-.9-.38-2.04-.72-3.41-1.04.01-.06.05-.11.06-.16v-.08s-.03-.03-.03-.03l.02-.1-.09.05c-7.71-5.73-28.8-8.3-31.91-7.3l-.21.07.17.14s.04.03.06.05h0c9.13,7.6,18.48,10.98,24.76,10.98,1.54,0,2.9-.2,4.02-.6.47-.17.89-.37,1.27-.6.8-.47,1.35-1.08,1.68-1.79,1.73.4,3.08.85,4.03,1.34.18.42.37.85.55,1.27.31.71.64,1.41.97,2.1l-2.66-.09-.02.66,3.01.1c3.01,6.05,6.98,11.45,11.41,16.49-9.27-6.07-22.56-11.12-25.6-11.12-.06,0-.12,0-.18,0l-.22.02.13.18s0,0,0,0l-.05.06c9.64,13.25,21.12,19.84,28.03,19.84.35,0,.68-.02,1-.05.75-.08,1.38-.27,1.95-.52.7-.29,1.29-.68,1.73-1.2,2.64,2.64,5.34,5.21,8.02,7.75,1.31,1.25,2.65,2.53,3.99,3.81-10.93-5.92-33.32-8.67-36.64-7.53l-.21.07.17.14s.05.04.07.05l-.02.04c11.29,9.45,22.81,13.65,30.52,13.65,1.9,0,3.57-.25,4.95-.75.47-.17.9-.37,1.29-.59,1.24-.68,2.07-1.61,2.45-2.73,1.35,1.06,2.92,1.9,4.47,2.7,1.9.99,3.84,2.04,5.34,3.5-12.47-4.55-40.14-.6-43.61,1.83l-.17.12.18.09s.02,0,.03.01l-.03.13c10.57,5.28,20.2,7.36,27.79,7.36,5.72,0,10.28-1.19,13.18-3.1.37-.24.7-.5,1.01-.77,1.67-1.33,2.57-2.92,2.65-4.65.96.93,2.58,1.93,2.95,2.13,1.18.6,2.4,1.13,3.63,1.63-5.88.97-13.47,4.36-20.93,10.66l.02.03s-.04.03-.06.05l-.17.14.21.07c.38.13,1.08.19,2.01.19,3.82,0,11.64-1.06,18.58-3.03-3.98,1.79-7.7,3.83-10.34,5.37-7.57,4.43-14.72,9.72-15.94,11.8l-.11.18h.21s.04,0,.06,0l.02.08c.23,0,.45,0,.68,0,20.23,0,34-7.4,38.26-14.35.61-.99,1.01-1.96,1.21-2.89.34-1.31.28-2.54-.18-3.66,1.97.69,3.92,1.45,5.8,2.33l-1.48,2.07.53.38,1.54-2.16c1.04.55,2.09,1.22,3.1,1.88,1.8,1.18,3.66,2.38,5.5,2.82-.05.02-.09.03-.14.05-1.98.76-4.03,1.54-6.96,2.04-.04-.1-.08-.2-.12-.3l-.13-.25-.04.1h-.02c-10.76.56-31.48,14.5-33.36,17.72l-.11.18h.21c.18,0,.36,0,.54,0,4.57,0,8.74-.47,12.48-1.25,10.17-2.08,17.09-6.54,19.73-10.81,1.06-1.71,1.4-3.34,1.03-4.78,2.94-.51,5-1.29,6.98-2.05.38-.15.76-.29,1.14-.43,9.97,1.66,20.56,3.94,31.28,8.84-.42.21-.83.4-1.25.62-1.79.98-3.8,2.19-5.03,4.16l.1.06h0s0,0,0,0h0s-.06.1-.06.1l2.17,1.34.06-.1c1.21-1.94,3.18-3.15,4.94-4.07.56-.3,1.12-.58,1.69-.86.64.32,1.29.64,1.93.98,1.77.93,3.73,2.14,4.94,4.07l.06.1,2.17-1.34-.06-.1.1-.06c-1.23-1.97-3.24-3.18-5.03-4.16-.5-.27-1-.49-1.5-.75,6.89-3.17,13.72-5.26,20.37-6.79,2.65,1.15,4.89,2.07,6.84,2.71-.14,1.28.23,2.69,1.14,4.16,2.26,3.65,7.64,7.44,15.5,9.77,4.72,1.42,10.34,2.3,16.72,2.3.18,0,.36,0,.55,0h.21s-.11-.18-.11-.18c-1.89-3.22-22.61-17.16-33.36-17.72h-.02s-.04-.12-.04-.12l-.13.25c-.15.29-.25.59-.33.89-1.71-.57-3.64-1.35-5.88-2.31,3.7-.82,7.34-1.48,10.91-2.06.31-.05.63-.14.94-.24l3.26,1.85.33-.57-2.78-1.58c.4-.17.81-.36,1.21-.57.79.11,1.58.2,2.35.28,2.33.24,4.72.5,7.02,1.53-.13.19-.29.36-.39.58l-.03.07.05.06c6.66,8.34,29.16,16.95,33.48,16.95.08,0,.16,0,.23-.01l.21-.02-.12-.17s-.02-.03-.04-.05l.05-.05c-3.21-4.54-6.59-8.22-9.94-11.13,6.85,2,13.48,3.18,16.44,3.18.5,0,.9-.03,1.17-.1l.21-.05-.15-.15s-.03-.03-.04-.04l.04-.05c-12.1-12.6-24.76-16.63-31.39-15.05-.91.22-1.7.54-2.35.96-.81.48-1.43,1.11-1.83,1.86-3.86-.69-7.74-.82-11.98-.41,1.1-.72,2.23-1.46,3.35-2.02,1.3-.62,2.64-1.16,3.98-1.67l1.5.63.25-.6-.87-.37c2.11-.78,4.24-1.47,6.34-2.14,2.13-.68,4.3-1.38,6.43-2.17,1.03.3,2.05.64,3.05,1.02.19,1.86,1.36,3.55,3.43,4.91.02.02.05.03.08.05.05.03.09.07.14.1,2.9,1.91,7.45,3.1,13.18,3.1,7.59,0,17.22-2.09,27.79-7.36l-.02-.09s0,0,.01,0l.18-.09-.17-.12c-3.56-2.5-32.62-6.59-44.57-1.46l-.07.03v.08c0,.05,0,.1,0,.15-.67-.25-1.35-.49-2.05-.7,1.59-.61,3.16-1.27,4.67-2.04.44-.23,2.36-1.43,3.24-2.42,1.03-1.25,2.4-2.18,3.84-3.01l.13.02c1.19.16,2.4.32,3.69.32.43,0,.88-.04,1.33-.08.46.67,1.1,1.25,1.91,1.73.5.31,1.07.58,1.7.8,1.56.56,3.45.85,5.61.85,8.75,0,21.81-4.77,34.62-15.48l-.03-.06s.05-.04.08-.06l.17-.14-.21-.07c-4.11-1.41-33.8,2.41-44.52,10.39l-.06-.03v.06s0,0,0,.01l-.06.05v.08c.1.44.24.85.43,1.24-1.35.09-2.61-.01-3.83-.17.43-.23.86-.46,1.28-.68,1.9-.99,3.86-2.01,5.38-3.46,1.87-1.82,3.79-3.64,5.64-5.41,2.68-2.55,5.38-5.12,8.02-7.75.3.36.66.67,1.09.92.69.43,1.56.71,2.58.81.32.03.66.05,1,.05,6.91,0,18.39-6.6,28.03-19.84l-.05-.05s0,0,0-.01l.13-.18-.22-.02c-.06,0-.11,0-.18,0-3.05,0-16.36,5.06-25.64,11.14,2.93-3.33,5.65-6.82,8.03-10.55l3.61-.6-.11-.65-3.03.5c1.05-1.69,2.04-3.43,2.93-5.23.13-.01.25-.03.38-.04.79-.09,1.54-.17,2.48-.05.36.96,1.08,1.76,2.14,2.37.42.25.9.47,1.42.66,1.31.46,2.88.7,4.68.7,7.31,0,18.2-3.94,28.83-12.78h0s.04-.04.06-.06l.17-.14-.21-.07c-3.62-1.16-28.19,1.83-37.17,8.5l-.09-.05.02.1-.06.04v.05c-.87-.08-1.61,0-2.32.08.33-.68.65-1.36.95-2.06,1.06-2.46,2.17-4.98,3.24-7.42.02-.05.05-.11.07-.16.36-.46.72-.91,1.09-1.35.65.75,1.53,1.19,2.58,1.33.33.07.68.1,1.06.1s.78-.04,1.2-.11c4.86-.84,11.44-6.42,16.75-15.91,7.72-2.13,15.11-5.44,16.62-6.93.04,0,.08-.02.12-.02v-.09s.13-.14.13-.14l-.21-.05c-4.64-1.02-8.91-1.41-12.7-1.33.19-.5.39-.99.57-1.5l-.15-.09.06-.15-.21.04c-.68.12-2,.82-3.7,1.93-6.5.68-11.25,2.81-13.57,5.34-1.06,1.16-1.59,2.37-1.56,3.55-.99.89-2.05,2.36-3.15,3.99,1.51-3.66,2.95-7.35,4.23-11.08,1.97-1.13,3.8-2.77,5.56-4.97Zm-2.93-44.77c-1.31-3.99-2.9-8-4.48-11.52.34.03.67.05.99.05.35,0,.68-.02.99-.06.94-.11,1.72-.4,2.33-.81.22,4.12.2,8.26.16,12.34Zm4.16-15.25c.58,0,1.18-.09,1.81-.26.75-.21,1.55-.57,2.38-1.07-2.28,4.43-4.69,11.02-6.04,17.58.05-5.59.04-11.27-.55-16.85.73.38,1.53.6,2.4.6Zm-10.46,64.56s.07.02.1.03c.3.1.59.16.87.19-.52,1.49-1.07,2.98-1.64,4.46.26-1.54.48-3.11.66-4.68Zm-50.13,65.59c.13.4.26.8.41,1.16.34.8.76,1.47,1.24,2.01.62.73,1.35,1.23,2.17,1.49-1.06.69-2.19,1.3-3.31,1.88-1.56.82-3.15,1.66-4.51,2.74,1.63-2.31,3.02-5.51,4-9.29Zm-127.49,19.95l.07.04v-.02c.64.21,1.29.43,1.94.65-1.49.16-3.08.49-4.72.95,1.01-.51,1.91-1.06,2.68-1.63h.03Zm-71.14-89.91c.08-.04.15-.09.23-.13.2,3.05.56,6.27,1.09,9.37-1.11-2.89-2.15-5.81-3.07-8.75.56-.05,1.14-.2,1.75-.49Zm-3.9-56.83c.96,0,2.01-.14,3.13-.39-1.6,3.47-3.23,7.49-4.6,11.54-.08-1-.18-2-.31-3.01,0-2.76.03-5.54.18-8.3.16.03.29.08.46.1.37.04.75.06,1.14.06Zm-4.4,32.29c-.4-1.43-.94-2.94-1.6-4.51.56.26,1.15.39,1.76.42-.02.38-.03.77-.06,1.16-.06.98-.09,1.96-.1,2.94Zm2.42-4.2c.87-.22,1.76-.67,2.65-1.38.27-.22.54-.47.8-.73.26-.24.52-.5.77-.78-1.59,3.66-3.25,8.07-4.13,12.18-.23-3.06-.29-6.15-.09-9.29,0,0,0,0,0,0Zm263.36,10.86c.26-3.2.33-6.44.12-9.72-.01-.17-.01-.33-.02-.5.24.04.49.07.73.07,1.09,0,2.14-.42,3.15-1.22-1.15,2.55-1.98,4.96-2.28,7.02l-.1.03.09.06v.07s.05.04.05.04c.26.17.54.29.83.39-.75,1.26-1.58,2.49-2.57,3.76Zm-12.12-94.06c.29-.09.58-.23.85-.41.57-.36,1.1-.89,1.56-1.61.38-.6.71-1.3.99-2.09-.73,7.15-.82,15.32.9,20.09l-.02.02h.03s0,0,0,0l.03.07h.08c.1.02.21.02.31.02.17,0,.34-.05.51-.07.06,2.33-.2,4.74-.77,7.2-1.69-5.16-3.62-10.36-5.87-15.49.98-2.23,1.45-4.77,1.41-7.73Zm-4.73.71c-.72-1.42-1.47-2.83-2.25-4.23.45-.28.84-.63,1.16-1.08.09.43.2.9.31,1.41.28,1.23.58,2.63.79,3.91Zm-16.06,164.49c-2.63,2.95-5.42,5.8-8.33,8.63,2.59-6.82,3.82-17.25,3.91-23.19.39,1.86,1,3.42,1.78,4.57,0,.01.02.02.03.04,0,0,0,0,0,.01.67.98,1.44,1.61,2.28,1.91-.31,2.74-.05,5.47.32,8.03Zm-36.52,29.97c.23.04.47.06.7.06.29,0,.59-.03.88-.09-.68.34-1.37.65-2.07.96l.48-.92Zm-35.43,13.47c1.2-2.34,2.35-4.56,4.55-6.04.31.06.62.09.95.09.71,0,1.47-.13,2.28-.39.32-.11.66-.26.99-.4,0,0,0,.01,0,.02h-.04s.03.04.03.04c-.01.05-.03.1-.05.15l-.02.07.05.05c.33.32.7.56,1.09.77-1.18,1.29-2.48,3.29-3.86,5.44-.38.13-.75.24-1.13.31-1.83.3-3.62.61-5.38.94.18-.35.38-.69.56-1.04Zm-54.34,1.35c-2.06-.39-4.15-.77-6.31-1.12-.19-.03-.38-.08-.57-.13-1.11-2.01-2.36-3.72-3.86-5.26.36-.86.54-1.87.5-3.04,0-.24-.05-.51-.07-.76,1.66,2.24,3.42,4.24,5.21,5.72v.04s.02-.02.02-.02c.03.03.07.06.1.09l.06.05.07-.03c.5-.23.94-.55,1.33-.93,1.6,1.83,2.76,3.61,3.52,5.4Zm-12.74-4.45s.07.05.1.06l.06.04.07-.04c.61-.38,1.06-.92,1.43-1.54,1.25,1.3,2.32,2.73,3.27,4.36-1.39-.55-2.79-1.47-4.16-2.37-.26-.17-.53-.34-.79-.51h.02Zm-63.85-48.23c.58-.19,1.14-.54,1.64-1.06.01-.01.02-.02.03-.03,1.55,5.07,3.65,10.39,6.01,13.94-2.78-2.84-5.43-5.75-7.87-8.79l.18-4.06Zm-9.98-11.85c-1.04-2.41-2.13-4.88-3.18-7.26-.73-1.65-1.46-3.3-2.18-4.96,1.18-.43,2.16-1.42,2.88-2.93.23-.49.42-1.05.59-1.63.24,5.07.94,9.85,2.34,13.08l.03.07h.08s.07,0,.1,0l-.45,4.07c-.06-.15-.14-.29-.2-.43Zm-13.03-112.75l.57-.5c.89-.78,1.8-1.59,2.29-1.84.67.34,1.43.53,2.27.53.02,0,.04,0,.06,0,.04,0,.08,0,.13,0,.51,0,1.05-.09,1.61-.21-2.64,2.56-4.81,5.15-6.09,7.55h0s-.17-.01-.17-.01l.16.22c.24.32.52.61.82.85-1.16.98-2.54,1.78-4.06,2.58.05-.19.08-.39.13-.58.71-2.81,1.47-5.68,2.28-8.6h0Zm2.96,100.92s.07-.06.1-.1l.05-.06-.03-.07c-.82-1.97-2.23-4.11-3.97-6.29.43-.03.85-.07,1.26-.13l2.32,1.35c1.22,2.93,2.48,5.84,3.75,8.73-1.21-1.44-2.34-2.58-3.47-3.44Zm175.55,74.71c-.02.06-.05.12-.07.19l-.02.06c-.22,0-.43,0-.64.03-1.19.1-2.2.4-3.01.89-.46.25-.86.54-1.2.89-2.42-1.11-4.91-1.38-7.33-1.63-.48-.05-.96-.12-1.45-.18.26-.16.53-.32.79-.49,4.63-.55,8.8-.47,12.93.24Zm70.89-79.16c1.15-1.71,2.34-3.46,3.39-4.54.02.09.04.18.06.27l.02.07h.08c.07.02.14.03.21.04l.02.07.04-.06c.63.09,1.31.14,2.02.15-3.71,3.59-7.08,7.49-8.94,10.98-.23.26-.45.52-.68.78.89-2.02,1.77-4.04,2.63-6.08.38-.55.76-1.11,1.15-1.68Z"/><g><path class="cls-11" d="m323.51,372.71c-.99,0-1.79.82-1.79,1.82s.8,1.82,1.79,1.82,1.79-.82,1.79-1.82-.8-1.82-1.79-1.82Z"/><path class="cls-11" d="m336.24,363.1c-.99,0-1.79.82-1.79,1.82s.8,1.82,1.79,1.82,1.79-.82,1.79-1.82-.8-1.82-1.79-1.82Z"/><ellipse class="cls-11" cx="330.7" cy="359.71" rx="1.79" ry="1.82"/><path class="cls-11" d="m316.92,468.23c-1.16,0-2.11.96-2.11,2.14s.94,2.14,2.11,2.14,2.11-.96,2.11-2.14-.94-2.14-2.11-2.14Z"/><path class="cls-11" d="m320.77,443.45c-1.16,0-2.11.96-2.11,2.14s.95,2.14,2.11,2.14,2.11-.96,2.11-2.14-.94-2.14-2.11-2.14Z"/><ellipse class="cls-11" cx="340.82" cy="503.44" rx="2.11" ry="2.14"/><path class="cls-11" d="m331.96,504.35c-1.16,0-2.11.96-2.11,2.14s.94,2.14,2.11,2.14,2.11-.96,2.11-2.14-.94-2.14-2.11-2.14Z"/><ellipse class="cls-11" cx="399.37" cy="554.84" rx="2.11" ry="2.14"/><ellipse class="cls-11" cx="403.8" cy="565.81" rx="2.11" ry="2.14"/></g><g><path class="cls-11" d="m578.77,382c1,0,1.82-.83,1.82-1.84s-.81-1.85-1.82-1.85-1.82.83-1.82,1.85.81,1.84,1.82,1.84Z"/><path class="cls-11" d="m586.35,398.62c0-1.02-.81-1.84-1.82-1.84s-1.82.83-1.82,1.84.81,1.85,1.82,1.85,1.82-.83,1.82-1.85Z"/><path class="cls-11" d="m586.58,454.56c-1.16,0-2.11.96-2.11,2.14s.95,2.14,2.11,2.14,2.11-.96,2.11-2.14-.94-2.14-2.11-2.14Z"/><path class="cls-11" d="m578.81,443.7c-1.16,0-2.11.96-2.11,2.14s.94,2.14,2.11,2.14,2.11-.96,2.11-2.14-.94-2.14-2.11-2.14Z"/><path class="cls-11" d="m556.38,505.49c-1.16,0-2.11.96-2.11,2.14s.94,2.14,2.11,2.14,2.11-.96,2.11-2.14-.94-2.14-2.11-2.14Z"/><path class="cls-11" d="m565.95,509.72c-1.16,0-2.11.96-2.11,2.14s.95,2.14,2.11,2.14,2.11-.96,2.11-2.14-.94-2.14-2.11-2.14Z"/><path class="cls-11" d="m501.45,559.87c-1.16,0-2.11.96-2.11,2.14s.94,2.14,2.11,2.14,2.11-.96,2.11-2.14-.94-2.14-2.11-2.14Z"/><path class="cls-11" d="m490.8,567.66c-1.16,0-2.11.96-2.11,2.14s.95,2.14,2.11,2.14,2.11-.96,2.11-2.14-.94-2.14-2.11-2.14Z"/><path class="cls-11" d="m567.25,369.55c-1,0-1.81.83-1.81,1.84s.81,1.84,1.81,1.84,1.81-.83,1.81-1.84-.81-1.84-1.81-1.84Z"/></g></g></g><circle class="cls-7" cx="450.03" cy="450.03" r="450.03"/></g></g></g></g></g></svg>