<?xml version="1.0" encoding="UTF-8"?><svg xmlns="http://www.w3.org/2000/svg" xmlns:xlink="http://www.w3.org/1999/xlink" viewBox="0 0 900.06 900.06"><defs><style>.cls-1{fill:#fff;}.cls-2{isolation:isolate;}.cls-3{fill:url(#radial-gradient);mix-blend-mode:multiply;opacity:.3;}.cls-4{fill:#da121a;}.cls-5{clip-path:url(#clippath);}.cls-6{fill:none;}.cls-7{fill:#072357;}</style><clipPath id="clippath"><circle class="cls-6" cx="450.03" cy="450.03" r="450.03"/></clipPath><radialGradient id="radial-gradient" cx="450.03" cy="450.03" fx="450.03" fy="450.03" r="450.03" gradientUnits="userSpaceOnUse"><stop offset="0" stop-color="#fff"/><stop offset=".36" stop-color="#fdfdfd"/><stop offset=".48" stop-color="#f6f6f6"/><stop offset=".58" stop-color="#eaeaea"/><stop offset=".65" stop-color="#d9d9d9"/><stop offset=".71" stop-color="#c3c3c3"/><stop offset=".77" stop-color="#a8a8a8"/><stop offset=".82" stop-color="#878787"/><stop offset=".87" stop-color="#626262"/><stop offset=".91" stop-color="#373737"/><stop offset=".95" stop-color="#090909"/><stop offset=".96" stop-color="#000"/></radialGradient></defs><g class="cls-2"><g id="Layer_2"><g id="Layer_1-2"><g id="Panama"><g class="cls-5"><g><rect class="cls-4" x="450.03" y="0" width="675.31" height="450.03"/><rect class="cls-7" x="-225.28" y="450.03" width="675.31" height="450.03"/><rect class="cls-1" x="-225.28" y="0" width="675.31" height="450.03"/><rect class="cls-1" x="450.03" y="450.03" width="675.31" height="450.03"/><polygon class="cls-7" points="112.38 114.92 139.7 199.02 228.13 199.02 156.59 251 183.92 335.11 112.38 283.13 40.83 335.11 68.16 251 -3.38 199.02 85.05 199.02 112.38 114.92"/><polygon class="cls-4" points="787.68 564.95 815.01 649.05 903.44 649.05 831.9 701.03 859.22 785.13 787.68 733.16 716.14 785.13 743.47 701.03 671.92 649.05 760.35 649.05 787.68 564.95"/></g><circle class="cls-3" cx="450.03" cy="450.03" r="450.03"/></g></g></g></g></g></svg>