<?xml version="1.0" encoding="UTF-8"?><svg xmlns="http://www.w3.org/2000/svg" xmlns:xlink="http://www.w3.org/1999/xlink" viewBox="0 0 900.06 900.06"><defs><style>.cls-1{fill:#ffda26;}.cls-2{fill:#fff;}.cls-3{isolation:isolate;}.cls-4{fill:#1147b2;}.cls-5{fill:#874e11;}.cls-6{fill:url(#radial-gradient);mix-blend-mode:multiply;opacity:.3;}.cls-7{clip-path:url(#clippath);}.cls-8{fill:none;}</style><clipPath id="clippath"><circle class="cls-8" cx="450.03" cy="450.03" r="450.03"/></clipPath><radialGradient id="radial-gradient" cx="450.03" cy="450.03" fx="450.03" fy="450.03" r="450.03" gradientUnits="userSpaceOnUse"><stop offset="0" stop-color="#fff"/><stop offset=".36" stop-color="#fdfdfd"/><stop offset=".48" stop-color="#f6f6f6"/><stop offset=".58" stop-color="#eaeaea"/><stop offset=".65" stop-color="#d9d9d9"/><stop offset=".71" stop-color="#c3c3c3"/><stop offset=".77" stop-color="#a8a8a8"/><stop offset=".82" stop-color="#878787"/><stop offset=".87" stop-color="#626262"/><stop offset=".91" stop-color="#373737"/><stop offset=".95" stop-color="#090909"/><stop offset=".96" stop-color="#000"/></radialGradient></defs><g class="cls-3"><g id="Layer_2"><g id="Layer_1-2"><g id="Uruguay"><g class="cls-7"><g><rect class="cls-4" width="1350.08" height="900.05"/><rect class="cls-2" width="500.03" height="500.03"/><g><g><path class="cls-1" d="m194.59,381.83c1.22,9.56,2.16,17.13-4.22,26.85,6.83-7.53,8.34-17.68,10.34-31.14,2.46-16.58,5.77-38.88,21.35-66.68l-18.81,13.02c-12.26,29.74-10.19,46.04-8.67,57.95Z"/><path class="cls-1" d="m164.77,269.2c-28.93,12.21-38.74,24.6-46.63,34.58-6.1,7.71-10.94,13.8-22.35,16.22,10.08-.55,18.31-6.61,29.18-14.67,13.46-9.98,31.58-23.41,62.25-32.05l-22.45-4.08Z"/><path class="cls-1" d="m193.96,276.84l-60.52,87.42,71.51-71.51c-4.44-4.68-8.17-10.03-10.99-15.91Z"/><path class="cls-1" d="m189.16,222.06l-13.08-18.89c-29.5-12.1-45.15-10.14-57.74-8.56-9.63,1.21-17.25,2.14-27.02-4.25,7.53,6.84,17.69,8.35,31.15,10.35,16.58,2.46,38.88,5.77,66.68,21.35Z"/><path class="cls-1" d="m191.41,229.35l-104.61,19.02h101.1c.17-6.65,1.39-13.04,3.5-19.02Z"/><path class="cls-1" d="m226.75,187.22l4.07-22.4c-11.69-26.27-23.8-36.5-33.63-44.8-8.2-6.92-14.66-12.4-17.17-24.35.5,10.14,6.58,18.39,14.68,29.3,9.98,13.46,23.41,31.58,32.05,62.25Z"/><path class="cls-1" d="m223.19,193.96l-87.41-60.52,71.51,71.51c4.68-4.44,10.03-8.17,15.91-10.99Z"/><path class="cls-1" d="m305.36,118.39c-1.19-9.65-2.1-17.28,4.3-27.04-6.83,7.53-8.35,17.68-10.34,31.14-2.46,16.58-5.77,38.88-21.35,66.68l18.74-12.97c12.13-29.53,10.2-45.2,8.65-57.8Z"/><path class="cls-1" d="m251.67,86.81v101.1c6.65.18,13.04,1.39,19.02,3.51l-19.02-104.6Z"/><path class="cls-1" d="m334.65,230.73c28.37-12.08,38.43-24.37,46.54-34.29,6.38-7.8,11.45-13.96,23.01-16.39-10.07.56-18.29,6.62-29.15,14.67-13.46,9.98-31.58,23.41-62.25,32.05l21.84,3.97Z"/><path class="cls-1" d="m306.07,223.19l60.52-87.41-71.51,71.51c4.44,4.68,8.17,10.03,10.99,15.91Z"/><path class="cls-1" d="m310.87,277.97l13.02,18.81c29.04,11.79,44.73,9.96,57.37,8.48,9.83-1.15,17.59-2.04,27.44,4.42-7.53-6.85-17.69-8.36-31.15-10.36-16.58-2.46-38.88-5.77-66.68-21.35Z"/><path class="cls-1" d="m308.62,270.69l104.61-19.02h-101.1c-.18,6.65-1.39,13.04-3.51,19.02Z"/><path class="cls-1" d="m273.28,312.81l-4.03,22.16c12.16,28.76,24.52,38.68,34.48,46.66,7.74,6.21,13.85,11.14,16.27,22.6-.55-10.08-6.61-18.3-14.67-29.17-9.98-13.46-23.41-31.57-32.05-62.25Z"/><path class="cls-1" d="m276.84,306.07l87.42,60.52-71.51-71.51c-4.68,4.44-10.03,8.17-15.91,10.99Z"/><path class="cls-1" d="m248.37,413.23v-101.11c-6.65-.17-13.04-1.39-19.02-3.51l19.02,104.61Z"/><circle class="cls-1" cx="250.01" cy="250.01" r="58.85"/></g><path class="cls-5" d="m386.17,288.64c-11.35-3-24.68-6.53-40.75-21.29l95.34-17.33-100.31-18.24c25.78-11.82,35.83-24.11,43.31-33.26,8.01-9.79,13.34-16.32,32.84-16.32.36,0,.73,0,1.1,0l7.09.09-6.32-3.21c-22.16-11.24-32.17-5.41-44.86,1.97-10.14,5.9-22.07,12.84-43.87,13.76l55.15-79.67-83.29,57.66c10.41-27.45,8.48-43.17,7.04-54.82-1.56-12.68-2.51-20.33,11.99-34.48l5.07-4.95-6.74,2.2c-23.61,7.72-26.58,18.92-30.33,33.11-3,11.35-6.53,24.68-21.29,40.75l-17.33-95.34-18.16,99.9c-11.46-23.88-23.49-34.05-32.53-41.68-10.46-8.83-17.37-14.66-17.12-35.16l.09-7.09-3.21,6.32c-11.24,22.16-5.41,32.17,1.97,44.86,5.9,10.14,12.84,22.07,13.76,43.87l-79.67-55.15,57.56,83.15c-27.42-10.38-43.12-8.42-54.77-6.95-12.66,1.59-20.3,2.55-34.44-11.94l-4.95-5.08,2.2,6.74c7.72,23.61,18.92,26.58,33.11,30.33,11.35,3,24.68,6.53,40.75,21.29l-95.34,17.33,99.67,18.12c-26.28,11.95-36.1,24.37-43.4,33.6-7.63,9.66-12.72,16.1-32.1,16.1-.36,0-.73,0-1.11,0l-7.09-.09,6.32,3.21c8.93,4.53,15.89,6.29,21.85,6.29,8.82,0,15.44-3.85,23.01-8.26,10.15-5.9,22.07-12.84,43.87-13.76l-55.15,79.67,83.22-57.61c-10.53,27.63-8.54,43.34-7.05,54.98,1.6,12.57,2.57,20.15-11.91,34.28l-5.07,4.95,6.74-2.2c23.61-7.72,26.58-18.93,30.33-33.11,3-11.35,6.53-24.68,21.29-40.75l17.33,95.33,18.18-99.97c11.91,26.13,24.27,36.05,33.47,43.42,9.88,7.92,16.41,13.16,16.16,33.49l-.09,7.09,3.21-6.32c11.24-22.16,5.41-32.17-1.97-44.86-5.9-10.14-12.84-22.07-13.76-43.87l79.67,55.15-57.63-83.25c26.99,10.1,42.71,8.27,54.39,6.9,12.48-1.46,20.71-2.43,34.89,12.09l4.95,5.07-2.2-6.74c-7.72-23.61-18.92-26.58-33.11-30.33Zm-136.15,20.23c-32.45,0-58.85-26.4-58.85-58.85s26.4-58.85,58.85-58.85,58.85,26.4,58.85,58.85-26.4,58.85-58.85,58.85Zm58.6-38.18c2.11-5.98,3.33-12.37,3.51-19.02h101.1l-104.61,19.02Zm72.58-74.26c-8.11,9.92-18.17,22.22-46.54,34.29l-21.84-3.97c30.67-8.64,48.79-22.07,62.25-32.05,10.86-8.05,19.08-14.11,29.15-14.67-11.57,2.43-16.63,8.59-23.01,16.39Zm-75.12,26.76c-2.82-5.87-6.55-11.23-10.99-15.91l71.51-71.51-60.52,87.41Zm-.71-104.8c1.55,12.6,3.47,28.27-8.65,57.8l-18.74,12.97c15.58-27.8,18.89-50.11,21.35-66.68,2-13.46,3.51-23.61,10.34-31.14-6.41,9.76-5.49,17.39-4.3,27.04Zm-53.7-31.58l19.02,104.6c-5.98-2.11-12.37-3.33-19.02-3.51v-101.1Zm-54.47,33.22c9.83,8.3,21.95,18.53,33.63,44.8l-4.07,22.4c-8.64-30.67-22.07-48.79-32.05-62.25-8.09-10.91-14.17-19.16-14.68-29.3,2.5,11.95,8.96,17.43,17.17,24.35Zm25.99,73.93c-5.87,2.82-11.23,6.55-15.91,10.99l-71.51-71.51,87.41,60.52Zm-104.83.66c12.58-1.58,28.23-3.54,57.74,8.56l13.08,18.89c-27.8-15.58-50.1-18.89-66.68-21.35-13.46-2-23.62-3.51-31.15-10.35,9.76,6.4,17.38,5.46,27.02,4.25Zm73.06,34.73c-2.11,5.98-3.33,12.37-3.5,19.02h-101.1l104.61-19.02Zm-73.27,74.43c7.89-9.98,17.7-22.38,46.63-34.58l22.45,4.08c-30.67,8.64-48.79,22.07-62.25,32.05-10.87,8.06-19.1,14.12-29.18,14.67,11.41-2.42,16.25-8.5,22.35-16.22Zm75.82-26.94c2.82,5.88,6.55,11.23,10.99,15.91l-71.51,71.51,60.52-87.42Zm.63,104.99c-1.52-11.91-3.59-28.21,8.67-57.95l18.81-13.02c-15.58,27.8-18.89,50.1-21.35,66.68-2,13.46-3.51,23.61-10.34,31.14,6.38-9.72,5.44-17.29,4.22-26.85Zm53.78,31.4l-19.02-104.61c5.98,2.11,12.37,3.33,19.02,3.51v101.11Zm55.36-31.61c-9.96-7.98-22.31-17.9-34.48-46.66l4.03-22.16c8.64,30.67,22.07,48.79,32.05,62.25,8.06,10.87,14.12,19.09,14.67,29.17-2.42-11.47-8.53-16.4-16.27-22.6Zm-26.89-75.55c5.87-2.82,11.23-6.55,15.91-10.99l71.51,71.51-87.42-60.52Zm104.42-.81c-12.64,1.48-28.34,3.31-57.37-8.48l-13.02-18.81c27.8,15.58,50.1,18.89,66.68,21.35,13.46,2,23.62,3.51,31.15,10.36-9.85-6.46-17.61-5.57-27.44-4.42Z"/></g><rect class="cls-2" x="500.03" width="850.05" height="100.01"/><rect class="cls-2" x="500.03" y="200.01" width="850.05" height="100.01"/><rect class="cls-2" x="500.03" y="400.03" width="850.05" height="100.01"/><rect class="cls-2" y="600.04" width="1350.08" height="100.01"/><rect class="cls-2" y="800.05" width="1350.08" height="100.01"/></g><circle class="cls-6" cx="450.03" cy="450.03" r="450.03"/></g></g></g></g></g></svg>