<?xml version="1.0" encoding="UTF-8"?>
<svg id="Capa_2" data-name="Capa 2" xmlns="http://www.w3.org/2000/svg" viewBox="0 0 412.84 406.8">
  <defs>
    <style>
      .cls-1 {
        fill: none;
        stroke: #000;
        stroke-miterlimit: 10;
        stroke-width: 4.07px;
      }

      .cls-2 {
        fill: #0e1b30;
      }

      .cls-3 {
        fill: #ed412a;
      }
    </style>
  </defs>
  <g id="Capa_1-2" data-name="Capa 1">
    <g>
      <path class="cls-3" d="M386.53,306.59c-9.43,16.47-69.87-8.37-83.21,3.73-13.82,12.53,4.81,74.98-11.86,82.45-16.84,7.55-51.17-47.95-69.52-45.95-18.16,1.98-39.76,63.63-58.03,59.81-17.62-3.69-12.75-68.63-29.21-78.07-16.47-9.43-70.03,27.62-82.12,14.28-12.53-13.82,29.72-63.63,22.25-80.3C67.29,245.7,2.05,244.15.05,225.81c-1.98-18.16,61.31-33.67,65.13-51.93,3.69-17.62-48.3-57.2-38.87-73.66,9.43-16.47,69.87,8.37,83.21-3.73,13.82-12.53-4.81-74.98,11.86-82.45,16.84-7.55,51.17,47.95,69.52,45.95,18.16-1.98,39.76-63.63,58.03-59.81,17.62,3.69,12.75,68.63,29.21,78.07,16.47,9.43,70.03-27.62,82.12-14.28,12.53,13.82-29.72,63.63-22.25,80.3,7.55,16.84,72.79,18.39,74.8,36.73,1.98,18.16-61.31,33.67-65.13,51.93-3.69,17.62,48.3,57.2,38.87,73.66Z"/>
      <g>
        <path class="cls-2" d="M96.48,312.84c12.81-34.28,9.62-76.63,9.69-112.52.05-29.57-.7-59.49.11-89.06-2.56-.06-5.32-.27-8.22-.58-1.24,26.22-1.25,52.77-1.97,78.93-.98,35.8,1.03,77.13-11.72,111.24-3.8,10.16-9.66,17.12-16.8,22.01.31,1.42.87,2.67,1.79,3.69,3.32,3.66,10.18,3.03,18.5.67,3.49-3.84,6.44-8.53,8.63-14.38Z"/>
        <path class="cls-2" d="M127.2,295.98c1.04-22.28.49-44.62-.17-66.9-1.35-45.69-4.93-92.18-1.7-137.17,1.19-16.53,2.52-43.46,18.79-52.84-1.8-1.27-3.54-2.31-5.2-3.08-8.11,5.19-12.54,15.03-15.14,25.3.45,18.29,3.28,40.36-3.97,46.93-.48.43-1.05.8-1.66,1.13-1.88,35.71-.27,72.37-.12,108.35.13,31.87,2.95,69.08-5.71,100.8,4.78-1.76,9.45-3.37,13.72-4.48.57-6.05.88-12.12,1.16-18.05Z"/>
        <path class="cls-2" d="M80.97,179.68c.64-23.62.73-47.44,1.42-71.14-4.3-.63-8.58-1.24-12.62-1.66-.77,15.01-1.27,30.09-1.84,45.08,7.6,9.66,13.87,18.74,12.59,24.85-1,4.8-6.66,9.39-14.06,13.88-.54,16.95-1.24,34.41-3.57,51.33,5.65,1.59,11.03,3.25,15.47,5.17,2.51-22.65,2.04-46.21,2.62-67.52Z"/>
        <path class="cls-2" d="M276.49,342.05c-9.87-27.77-23.17-55.51-26.84-83.89-2.86-22.05,4.03-40.39,24.14-50.62,18.22-9.27,40.52-12.06,61.42-14.93,17.29-2.38,35.85-3.87,53.36-8.14.04-.45.05-.9,0-1.35-.2-1.8-1.12-3.42-2.55-4.89-17.61,6.51-37.24,8.79-55.33,11.58-20.96,3.23-43.1,5.84-61.92,14.16-20.1,8.88-30.62,24.94-29.3,46.82,1.58,26.13,12.76,52.85,21.05,78.85,3.85,12.08,8.73,26,11.09,39.93,3.53,1.81,6.73,2.44,9.43,1.23,1.52-.68,2.7-1.91,3.62-3.52-2.36-8.82-5.41-17.41-8.18-25.22Z"/>
        <path class="cls-2" d="M143.65,115.12c.72-17.83,1.88-51.14,23.27-55.3-1.25-1.21-2.51-2.44-3.78-3.67-22.18,3.61-24.85,34.32-26.22,51.55-3.45,43.28.39,88.48,2.09,132.64.88,22.86,3.23,48.43,1.99,73.04.39.15.77.31,1.13.51,5.17,2.96,7.97,12.12,10.12,22.84,2.33-26.49-.95-54.89-2.38-79.65-2.72-47.28-8.09-95.27-6.22-141.96Z"/>
        <path class="cls-2" d="M49.71,127.96c.02-6.58.06-13.16.11-19.75-1.64.8-2.93,1.87-3.76,3.32-2.37,4.13-.36,9.91,3.65,16.43Z"/>
        <path class="cls-2" d="M225.02,306.79c-6.72-35.85-16.05-72.33-16.95-108-.56-22.18,3.26-44.86,25.47-54.09,15.94-6.63,36.02-3.89,53.15-2.19,10.95,1.09,22.95,2.92,34.82,3.3.05-1.44.3-3.01.7-4.68-12.9.63-26.37-1.41-38.32-2.57-17.61-1.72-35.36-3.72-52.63.09-23.11,5.1-27.38,28.83-27.68,48.72-.54,35.92,7.27,73.3,12.48,109.74,1.48,10.38,3.39,21.55,4.88,32.96,2.77.19,5.9,1.64,9.24,3.9-1.63-9.42-3.56-18.61-5.17-27.16Z"/>
        <path class="cls-2" d="M171.17,136.06c.48-17.77,1.32-52.9,23.79-55.73,14.81-1.87,29.98,5.31,44.14,11.44,16.29,7.05,37.5,19.09,55.96,15.07,12.73-2.77,19.9-14.44,24.69-26.97-5.89,1.91-12.29,4.43-18.59,6.78-3.99,6.89-9.15,12.44-16.1,14.64-16.41,5.2-36.05-6-50.55-12.26-13.81-5.97-29.42-13.29-44.75-12.04-24.33,1.97-27.51,34.15-28.8,52.12-3.05,42.66,1.58,87.35,4.18,130.9,1.41,23.68,2.77,47.45,2.49,71.19-.18,15.46-.34,32.2-5.19,47.03-.03.09-.06.16-.09.25,1.55,2.46,3.39,4.12,5.67,4.6,3.91.82,7.99-1.76,12.15-6.15,7.2-31.5,1.9-68.47-.41-99.41-3.52-47.1-9.85-94.87-8.6-141.46Z"/>
        <path class="cls-2" d="M264.25,86.18c-1.15-2.24-2.13-4.91-2.99-7.89-16.57,4.64-36.11-5.17-51.03-11.1-1.6-.64-3.23-1.29-4.87-1.95-.43.55-.86,1.09-1.29,1.61,2.96,1.21,5.9,2.46,8.79,3.69,14.89,6.3,34.18,17.3,51.38,15.65Z"/>
        <path class="cls-2" d="M293,273.2c-3.86-21.11,3.14-39.71,22.64-49.53,9.75-4.92,20.75-7.91,32.08-10.08,2.46-1.41,5.05-2.82,7.7-4.22-16.48,2.54-33,5.62-47.69,11.99-20.54,8.91-32.03,25.68-30.75,47.8.81,13.97,4.93,28.02,9.98,41.97.51-6.03,1.8-10.87,4.6-13.4,1.73-1.57,4.38-2.43,7.64-2.81-2.67-7.15-4.85-14.38-6.2-21.71Z"/>
        <path class="cls-2" d="M347.3,282.62c-2.42-8.47-2.24-16.47.17-23.57-2.9-3.6-5.76-7.18-8.27-10.61-7.53,8.3-11.62,18.89-10.28,31.35.66,6.12,2.21,12.2,4.33,18.24,7.69,1.08,15.09,1.9,20.94,1.44-2.82-5.47-5.23-11.06-6.89-16.85Z"/>
        <path class="cls-2" d="M247.01,325.09c-8.66-30.83-20.52-61.97-23.19-93.04-1.93-22.44,4.63-41.97,25.33-51.83,17.35-8.27,38.64-9.36,58.56-10.47,15.58-.87,32.56-.84,48.63-3.65-4.2-1.15-8.42-2.29-12.41-3.49-13.14,2.25-26.85,2.65-39.44,3.47-19.67,1.27-40.56,1.86-58.28,8.69-20.69,7.98-28.99,24.96-28.25,46.82,1.01,30.03,10.81,61.14,17.83,91.39,2.29,9.87,5.17,20.76,7.32,31.89,4.06,3.87,8.21,8.03,12.27,11.89-2.25-11.06-5.63-21.92-8.37-31.66Z"/>
        <path class="cls-2" d="M45.83,237.27c1.92-12.11,2.79-24.61,3.18-37.05-4.93,2.59-9.75,5.19-13.89,7.81-.58,8.2-1.49,16.33-2.94,24.26,3.84,1.85,8.56,3.46,13.66,4.98Z"/>
        <path class="cls-2" d="M240.56,32.56c3.46-.88,6.39-2.38,8.96-4.24-1.65-2.94-3.65-4.92-6.19-5.45-5.12-1.07-10.54,3.67-16.06,10.71,4.54.31,9.01.07,13.28-1.02Z"/>
        <path class="cls-2" d="M204.97,291.1c-4.86-42.02-12.15-84.81-11.49-126.39.31-19.36,1.45-50.13,24.87-55.91,15.44-3.81,32.65,1.98,47.56,6.32,18.06,5.25,40.33,14.28,59.52,9.23,1.41-.37,2.74-.87,4.02-1.43,8.21-16.95,18.97-35.67,12.76-43.23-4.64,15.53-11.05,34.1-25.68,39.22-16.81,5.88-37.81-2.69-53.89-7.43-15.04-4.43-31.58-9.91-47.32-8.05-23.9,2.83-26.87,32.58-27.88,50.95-2.33,42.34,3.97,86.56,7.46,129.71,1.66,20.51,4.72,43.61,4.42,65.99,3.62-5.41,7.22-10.43,10.73-14.1-1.18-15.44-3.44-30.78-5.07-44.88Z"/>
        <path class="cls-2" d="M214.12,52.76c12.77,5.15,26.68,9.65,39.07,6.76,1.39-.32,2.69-.78,3.94-1.3-.57-3.36-1.14-6.72-1.74-9.97-1.78,1.18-3.72,2.17-5.85,2.9-10.52,3.57-22.13,1.67-33.26-1.66-.72,1.1-1.43,2.19-2.15,3.27Z"/>
      </g>
      <path class="cls-1" d="M366.27,294.98c-8.37,14.61-62.01-7.43-73.85,3.31-12.27,11.12,4.27,66.55-10.53,73.18-14.94,6.7-45.42-42.56-61.7-40.78-16.12,1.76-35.29,56.47-51.5,53.08-15.64-3.27-11.31-60.91-25.93-69.29-14.61-8.37-62.15,24.51-72.88,12.68s26.38-56.48,19.74-71.27c-6.7-14.94-64.6-16.32-66.38-32.6-1.76-16.12,54.41-29.88,57.81-46.09,3.27-15.64-42.87-50.77-34.5-65.38,8.37-14.61,62.01,7.43,73.85-3.31,12.27-11.12-4.27-66.55,10.53-73.18,14.94-6.7,45.42,42.56,61.7,40.78,16.12-1.76,35.29-56.47,51.5-53.08,15.64,3.27,11.31,60.91,25.93,69.29,14.61,8.37,62.15-24.51,72.88-12.68,11.12,12.27-26.38,56.48-19.74,71.27,6.7,14.94,64.6,16.32,66.38,32.6,1.76,16.12-54.41,29.88-57.81,46.09-3.27,15.64,42.87,50.77,34.5,65.38Z"/>
    </g>
  </g>
</svg>