<?xml version="1.0" encoding="UTF-8"?>
<svg id="Capa_2" data-name="Capa 2" xmlns="http://www.w3.org/2000/svg" viewBox="0 0 924.11 281.15">
  <defs>
    <style>
      .cls-1 {
        fill: #fff;
      }

      .cls-2 {
        fill: #ed412a;
      }
    </style>
  </defs>
  <g id="Capa_1-2" data-name="Capa 1">
    <g>
      <g>
        <path class="cls-1" d="M425.89,225.32h-11.16v-2.79h11.16c1.37,0,2.52-1.1,2.52-2.52v-5.76c0-1.37-1.14-2.52-2.52-2.52h-6.77c-2.93,0-5.31-2.38-5.31-5.31v-5.08c0-2.93,2.38-5.31,5.31-5.31h11.62v2.74h-11.62c-1.42,0-2.56,1.14-2.56,2.56v5.08c0,1.42,1.14,2.56,2.56,2.56h6.77c2.93,0,5.31,2.38,5.31,5.31v5.72c0,2.93-2.38,5.31-5.31,5.31Z"/>
        <path class="cls-1" d="M441.76,215.72v2.29c0,2.52,2.01,4.57,4.53,4.57h9.29v2.74h-9.29c-4.03,0-7.32-3.25-7.32-7.32v-7.32c0-4.07,3.29-7.32,7.32-7.32h3.2c4.03,0,7.32,3.25,7.32,7.32v5.03h-15.05ZM454.02,210.69c0-2.52-2.01-4.57-4.53-4.57h-3.2c-2.52,0-4.53,2.06-4.53,4.57v2.29h12.26v-2.29Z"/>
        <path class="cls-1" d="M471.91,225.32c-4.03,0-7.32-3.25-7.32-7.32v-7.32c0-4.07,3.29-7.32,7.32-7.32h6.4c2.01,0,3.66,1.65,3.66,3.66v3.66h-2.74v-3.66c0-.5-.41-.91-.91-.91h-6.4c-2.52,0-4.53,2.06-4.53,4.57v7.32c0,2.52,2.01,4.57,4.53,4.57h9.79v2.74h-9.79Z"/>
        <path class="cls-1" d="M497.52,225.32c-4.03,0-7.32-3.25-7.32-7.32v-14.64h2.79v14.64c0,2.52,2.01,4.57,4.53,4.57h3.2c2.52,0,4.53-2.06,4.53-4.57v-14.64h2.79v14.64c0,4.07-3.29,7.32-7.32,7.32h-3.2Z"/>
        <path class="cls-1" d="M529.55,212.51v-5.49c0-.5-.41-.91-.92-.91h-9.15v19.21h-2.74v-21.96h11.89c2.01,0,3.66,1.65,3.66,3.66v5.49h-2.74Z"/>
        <path class="cls-1" d="M539.15,197.88v-5.49h2.74v5.49h-2.74ZM539.15,225.32v-21.96h2.74v21.96h-2.74Z"/>
        <path class="cls-1" d="M556.54,225.32c-2.01,0-3.66-1.65-3.66-3.66v-15.55h-3.66v-2.74h3.66v-7.32h2.74v7.32h9.15v2.74h-9.15v15.55c0,.5.41.91.92.91h8.23v2.74h-8.23Z"/>
        <path class="cls-1" d="M586.27,234.47h-2.01v-2.74h2.01c.5,0,.91-.41.91-.91v-5.49h-7.78c-4.03,0-7.32-3.25-7.32-7.32v-14.64h2.79v14.64c0,2.52,2.01,4.57,4.53,4.57h7.73v-19.21h2.79v27.45c0,2.01-1.65,3.66-3.66,3.66Z"/>
        <path class="cls-1" d="M624.24,225.32c-6.04,0-10.98-4.94-10.98-10.98v-10.98c0-4.07,3.29-7.32,7.32-7.32h7.04c2.93,0,5.31,2.38,5.31,5.31v3.84h-2.74v-3.84c0-1.42-1.14-2.56-2.56-2.56h-7.04c-2.52,0-4.57,2.06-4.57,4.57v10.98c0,4.53,3.66,8.19,8.23,8.19h8.69v2.79h-8.69Z"/>
        <path class="cls-1" d="M651.23,225.32h-3.2c-4.03,0-7.32-3.25-7.32-7.32v-7.32c0-4.07,3.29-7.32,7.32-7.32h3.2c4.03,0,7.32,3.25,7.32,7.32v7.32c0,4.07-3.29,7.32-7.32,7.32ZM655.76,210.69c0-2.52-2.01-4.57-4.53-4.57h-3.2c-2.52,0-4.53,2.06-4.53,4.57v7.32c0,2.52,2.01,4.57,4.53,4.57h3.2c2.52,0,4.53-2.06,4.53-4.57v-7.32Z"/>
        <path class="cls-1" d="M681.83,225.32v-14.64c0-2.52-2.01-4.57-4.53-4.57h-7.73v19.21h-2.79v-21.96h10.52c4.03,0,7.32,3.25,7.32,7.32v14.64h-2.79Z"/>
        <path class="cls-1" d="M697.89,206.11v19.21h-2.74v-19.21h-3.66v-2.74h3.66v-7.32c0-2.01,1.65-3.66,3.66-3.66h7.78v2.74h-7.78c-.5,0-.91.41-.91.91v7.32h8.69v2.74h-8.69Z"/>
        <path class="cls-1" d="M716.24,215.72v2.29c0,2.52,2.01,4.57,4.53,4.57h9.29v2.74h-9.29c-4.03,0-7.32-3.25-7.32-7.32v-7.32c0-4.07,3.29-7.32,7.32-7.32h3.2c4.03,0,7.32,3.25,7.32,7.32v5.03h-15.05ZM728.49,210.69c0-2.52-2.01-4.57-4.53-4.57h-3.2c-2.52,0-4.53,2.06-4.53,4.57v2.29h12.26v-2.29Z"/>
        <path class="cls-1" d="M752.33,212.51v-5.49c0-.5-.41-.91-.91-.91h-9.15v19.21h-2.74v-21.96h11.89c2.01,0,3.66,1.65,3.66,3.66v5.49h-2.74Z"/>
        <path class="cls-1" d="M764.27,215.72v2.29c0,2.52,2.01,4.57,4.53,4.57h9.29v2.74h-9.29c-4.03,0-7.32-3.25-7.32-7.32v-7.32c0-4.07,3.29-7.32,7.32-7.32h3.2c4.03,0,7.32,3.25,7.32,7.32v5.03h-15.05ZM776.53,210.69c0-2.52-2.01-4.57-4.53-4.57h-3.2c-2.52,0-4.53,2.06-4.53,4.57v2.29h12.26v-2.29Z"/>
        <path class="cls-1" d="M802.6,225.32v-14.64c0-2.52-2.01-4.57-4.53-4.57h-7.73v19.21h-2.79v-21.96h10.52c4.03,0,7.32,3.25,7.32,7.32v14.64h-2.79Z"/>
        <path class="cls-1" d="M820.95,225.32c-4.03,0-7.32-3.25-7.32-7.32v-7.32c0-4.07,3.29-7.32,7.32-7.32h6.4c2.01,0,3.66,1.65,3.66,3.66v3.66h-2.74v-3.66c0-.5-.41-.91-.92-.91h-6.4c-2.52,0-4.53,2.06-4.53,4.57v7.32c0,2.52,2.01,4.57,4.53,4.57h9.79v2.74h-9.79Z"/>
        <path class="cls-1" d="M841.58,215.72v2.29c0,2.52,2.01,4.57,4.53,4.57h9.29v2.74h-9.29c-4.03,0-7.32-3.25-7.32-7.32v-7.32c0-4.07,3.29-7.32,7.32-7.32h3.2c4.03,0,7.32,3.25,7.32,7.32v5.03h-15.05ZM853.84,210.69c0-2.52-2.01-4.57-4.53-4.57h-3.2c-2.52,0-4.53,2.06-4.53,4.57v2.29h12.26v-2.29Z"/>
      </g>
      <g>
        <path class="cls-2" d="M421.17,163.11c-4.91-5.71-7.36-14.19-7.36-25.43V47.82h23.86v88.86c0,3.91.38,6.95,1.14,9.14.76,2.19,2.38,3.29,4.86,3.29s4.09-1.07,4.86-3.21c.76-2.14,1.14-5.21,1.14-9.21V47.82h23.86v89.86c0,11.24-2.45,19.72-7.36,25.43-4.91,5.71-12.41,8.57-22.5,8.57s-17.6-2.86-22.5-8.57Z"/>
        <path class="cls-2" d="M482.95,170.54V47.82h25.29l11.29,58.72v-58.72h23.72v122.72h-24l-12.29-61.43v61.43h-24Z"/>
        <path class="cls-2" d="M554.1,170.54V47.82h24.29v49.14l11.43-49.14h24.72l-13.71,56.15,16.57,66.57h-25.43l-13.43-59.43v59.43h-24.43Z"/>
        <path class="cls-2" d="M621.53,170.54V47.82h25.29l11.29,58.72v-58.72h23.72v122.72h-24l-12.29-61.43v61.43h-24Z"/>
        <path class="cls-2" d="M699.38,162.61c-5.14-6.05-7.71-14.55-7.71-25.5v-58.43c0-10.57,2.57-18.55,7.71-23.93,5.14-5.38,12.67-8.07,22.57-8.07s17.43,2.69,22.57,8.07c5.14,5.38,7.71,13.36,7.71,23.93v58.43c0,11.05-2.57,19.57-7.71,25.57-5.14,6-12.67,9-22.57,9s-17.43-3.02-22.57-9.07ZM726.39,146.26c.76-1.9,1.14-4.57,1.14-8v-60c0-2.67-.36-4.83-1.07-6.5-.71-1.67-2.17-2.5-4.36-2.5-4.1,0-6.14,3.1-6.14,9.29v59.86c0,3.52.43,6.19,1.29,8,.86,1.81,2.43,2.71,4.71,2.71s3.67-.95,4.43-2.86Z"/>
        <path class="cls-2" d="M771.67,170.54l-13.14-122.72h24l6.86,77.43,6.86-77.43h22.86l6.57,77.43,6.57-77.43h24.29l-13.43,122.72h-29.43l-6.14-59.15-5.86,59.15h-30Z"/>
        <path class="cls-2" d="M863.82,170.54V47.82h25.29l11.29,58.72v-58.72h23.72v122.72h-24l-12.29-61.43v61.43h-24Z"/>
      </g>
      <g>
        <path class="cls-1" d="M236.85,140.52c-3.96,0-7.16,3.21-7.16,7.16s3.21,7.16,7.16,7.16,7.16-3.2,7.16-7.16-3.2-7.16-7.16-7.16Z"/>
        <path class="cls-1" d="M182.5,205.53c-2.27-.2-10.75,11.42-11.43,14.25h23.13c-1.79-2.99-8.55-13.98-11.7-14.25Z"/>
        <path class="cls-1" d="M174.76,190.95c5.25,3.11,12.4,1.16,17.74-.81.13-14.97-2.25-30.05-1.47-45.03l-4.44,4.44c-2.23,2.22-5.84,2.22-8.06,0l-4.42-4.42c.61,10.36.18,20.78-.66,31.14-.38,4.71-3.93,11.58,1.31,14.68Z"/>
        <path class="cls-1" d="M128.44,140.61c-3.9,0-7.07,3.17-7.07,7.07s3.16,7.07,7.07,7.07,7.07-3.16,7.07-7.07-3.17-7.07-7.07-7.07Z"/>
        <path class="cls-1" d="M346.88,80.31c-1.34-.94-2.91-1.4-4.48-1.4-1.36,0-2.72.36-3.95,1.07-2.63,1.55-4.12,4.48-3.81,7.52.88,8.67-4.4,18-12.3,21.7-3.77,1.76-8.24,2.59-14.04,2.59-3.78,0-7.67-.36-10.97-.7l-2.07-.22c-4.98-.53-10.13-1.08-15.37-1.08-.76,0-1.5.01-2.23.03-.96-3.03-3.21-6.64-6.42-11.37-1.55-2.28-3.13-4.52-4.94-6.6.07-.02.15-.04.22-.06.74-.1,1.44-.14,2.08-.14.93,0,1.76.1,2.57.29.04.01.09.02.13.03,1.13.26,2.25.55,3.39.85,3.22.82,6.86,1.77,11.09,2.11.99.1,2.01.14,3,.14,10.89,0,20.67-5.67,25.49-14.7,4.18-7.57,4.54-15.76,4.34-22.78-.02-1.88-.08-3.78-.13-5.69-.3-10.16-.59-19.76,4.12-27,3.15-4.77,8.35-7.97,12.92-7.97.78,0,1.55.08,2.3.26.59.13,1.19.2,1.77.2,3.28,0,6.29-2.06,7.39-5.28,1.29-3.8-.51-7.96-4.17-9.62-2.53-1.15-5.2-1.91-8.02-2.26-1.14-.13-2.28-.2-3.43-.2-11.38,0-23.06,6.51-30.52,17.06-7.31,10.58-9.63,23.24-11.67,34.4-.22,1.21-.45,2.43-.65,3.52l-.16.77c-.07.37-.18.9-.3,1.5-.13-.06-.26-.12-.39-.19-3.62-1.78-7.72-3.8-12.06-4.85-4.63-1.26-9.43-1.89-14.3-1.89-6.01,0-12.07,1-17.76,2.89l.22-.64c4.94-14.62,1.94-31.17-7.66-42.16-1.53-1.76-3.69-2.67-5.88-2.67-1.48,0-2.96.41-4.28,1.28-3.27,2.14-4.44,6.36-2.75,9.89,2.88,6.01,3.04,13.01.45,19.2-.62,1.49-1.54,3.11-2.65,4.67-2.08,2.76-4.69,4.87-8.22,7.59-3.04-3.48-6.83-6.43-11.19-8.66-5.59-2.95-12.08-4.51-18.75-4.51-11.99,0-23.17,4.98-30.36,13.26-3.57-2.74-6.22-4.87-8.34-7.68-1.11-1.56-2.03-3.18-2.65-4.68-2.6-6.19-2.44-13.18.45-19.19,1.68-3.52.5-7.73-2.75-9.89-1.31-.86-2.81-1.28-4.29-1.28-2.18,0-4.35.91-5.87,2.66-9.14,10.45-12.33,25.71-8.36,39.86.25,1,.59,1.99.9,2.88.01.02.02.04.02.08-5.71-1.91-11.77-2.89-17.79-2.89-7.34,0-14.4,1.4-20.94,4.18-1.91.79-3.73,1.71-5.49,2.6-.1.04-.19.1-.29.14-.12-.59-.23-1.11-.3-1.47l-.14-.71c-.27-1.38-.51-2.76-.77-4.16-1.23-6.72-2.51-13.69-4.94-20.56-2.85-8.12-6.84-14.65-11.84-19.39C52.02,4.1,42.58,0,33.8,0c-4.06,0-7.95.84-11.52,2.5-3.62,1.66-5.41,5.8-4.13,9.56,1.09,3.23,4.1,5.32,7.39,5.32.56,0,1.13-.06,1.68-.18.82-.18,1.66-.28,2.47-.28.3,0,.59.01.87.04,4.41.39,8.9,3.37,12.02,8,1.89,2.8,3.09,6.41,3.73,11.38.66,4.96.5,10.2.33,15.76-.12,4.01-.26,8.17-.06,12.45.72,13.98,7.99,24.73,19.46,28.79,3.25,1.14,6.73,1.71,10.34,1.71.95,0,1.92-.03,2.85-.11,4.22-.32,7.8-1.25,10.97-2.07,1.54-.4,3-.78,4.44-1.06.62-.1,1.28-.16,1.94-.16.76,0,1.5.08,2.24.2-1.82,2.07-3.41,4.31-4.96,6.61-3.03,4.5-5.38,8.17-6.37,11.36-.69-.02-1.38-.03-2.11-.03-5.25,0-10.4.55-15.39,1.09l-2.04.21c-3.3.35-7.19.7-10.97.7-5.81,0-10.27-.81-14.04-2.59-7.9-3.69-13.18-13.03-12.3-21.7.31-3.04-1.18-5.97-3.81-7.52-1.23-.71-2.59-1.07-3.95-1.07-1.57,0-3.13.47-4.48,1.4C6.39,88.72-.81,103.61.07,118.25c.88,14.64,9.81,28.57,22.75,35.47,6.78,3.62,14.16,5.32,21.31,6.94,9.81,2.25,18.27,4.19,22.69,10.38,3.69,5.16,2.94,13.57-1.59,18.01-2.43,2.36-6.02,3.72-9.83,3.72-3.1,0-6.01-.9-8.21-2.56-4.67-3.51-3.76-12.93-3.01-20.57.39-4.01-2.34-7.67-6.31-8.41-.49-.1-.98-.14-1.46-.14-3.42,0-6.52,2.25-7.49,5.64-10.69,37.04-3.03,61.73,24.08,77.69,8.79,5.17,19.83,7.91,31.91,7.91h.01c14.71,0,29.97-4.11,42.09-11.3,4.32,5.07,8.93,9.81,13.72,14.11,1.48,1.33,3.34,1.99,5.22,1.99,1.76,0,3.52-.59,4.96-1.78,2.99-2.46,3.71-6.73,1.72-10.04l-3.96-6.59c1.2-.09,2.41-.29,3.61-.59,3.27-.85,5.63-3.7,5.84-7.08.03-.5.02-1.01-.04-1.5,1.54.62,3.35.93,5.42,1.1l9.38,42.69c1.01,4.6,5.03,7.81,9.77,7.81s8.76-3.21,9.77-7.81l9.38-42.69c2.06-.18,3.88-.48,5.42-1.1-.03.31-.07.61-.07.93-.04,3.32,2.03,6.31,5.16,7.43,1.29.47,2.69.75,4.17.85-.21.29-.41.59-.61.88-1.13,1.64-2.26,3.27-3.38,4.9-.43.65-.77,1.35-.99,2.08-.77,2.46-.32,5.17,1.2,7.22,1.57,2.15,4.08,3.38,6.88,3.38,1.29,0,2.59-.27,3.74-.78,1.59-.72,3.24-1.46,13.54-13.7.47-.56.94-1.15,1.4-1.72,12.13,7.19,27.38,11.3,42.11,11.3,12.08,0,23.11-2.74,31.92-7.91,27.1-15.96,34.76-40.64,24.08-77.69-.98-3.38-4.07-5.59-7.47-5.59-.49,0-.99.04-1.49.14-3.96.75-6.69,4.44-6.3,8.45.74,7.57,1.65,16.98-3.02,20.49-2.21,1.66-5.12,2.56-8.21,2.56-3.81,0-7.4-1.36-9.82-3.72-4.55-4.44-5.29-12.85-1.6-18.01,4.42-6.19,12.89-8.12,22.69-10.38,7.14-1.63,14.53-3.32,21.31-6.94,12.95-6.91,21.88-20.83,22.76-35.47.87-14.64-6.33-29.54-18.34-37.95ZM270.26,112.75c-8.22-2.67-15.91-3.78-23.22-3.16-2.85.23-5.64.74-8.39,1.52h0c-6.78,1.92-13.27,5.48-19.62,10.85-.18.15-.35.3-.52.45-.51.45-1.01.92-1.5,1.4l-.02.02s-.02.02-.03.02c-2.11,2.07-4,4.35-5.93,6.6,0,0,0,.01-.01.02-2.52,2.95-5.1,5.85-8.25,8.15,0-2.08.32-4.1.83-6.07.02-.1.05-.21.08-.31,0,0,0,0,0-.01.81-3.09,2.05-6.08,3.18-9.08.31-.82.61-1.65.89-2.47-1.17-.21-2.25-.3-3.11-.49-1.33-.31-2.12-.88-1.89-2.6.06-.43.17-.94.37-1.53.61-1.86,2.41-4.02,4.89-6.17,1.74-1.52,3.81-3.03,6.02-4.46,2.3-1.48,4.76-2.85,7.19-4.02,4.79-2.31,9.43-3.8,12.39-3.67.16-1.51-2.79-.86-3.66-.74-3.37.5-6.64,1.54-9.92,2.52-1.91.57-3.82,1.11-5.76,1.5-1.05.22-2.11.38-3.17.49.03-.03.06-.06.09-.09l-.15.09c.15-.26,5.23-8.71,21.66-12.1,0,0,6.56-.9,15.01,0h.07c1.92.47,3.58,1.04,5.07,1.73,5.25,2.42,8.25,6.23,11.95,11.69.86,1.26,6.03,9.28,5.48,9.94ZM258.98,147.68c0,11.1-8.18,20.3-18.84,21.89-1.07.16-2.17.24-3.3.24-12.23,0-22.14-9.91-22.14-22.13,0-1.12.08-2.23.25-3.31,2.8-2.07,4.93-4.56,7-6.98,1.58-1.85,3.07-3.6,4.75-5.01,3.85-3.26,7.8-5.5,11.92-6.76,4.91.39,9.37,2.38,12.86,5.45,4.6,4.05,7.51,9.99,7.51,16.61ZM197.95,48.63c4.67,2.39,8.75,5.89,11.44,10.22-8.27-5.18-17.16-8.31-26.75-8.28-9.59-.02-18.47,3.12-26.73,8.32,8.47-13.57,28.15-17.58,42.04-10.26ZM192.48,63.03c-10.14-2.9-20.28-.96-29.58,4.05,7.86-14.57,31.59-14.59,39.47-.03-3.41-1.74-6.61-3.13-9.89-4.02ZM196.77,75.48c-2.68-1.01-5-1.81-7.32-2.31-7.27-1.65-13.94-.48-20.94,2.33,2.17-5.5,8.34-8.67,14.13-8.65,5.79-.03,11.96,3.14,14.14,8.63ZM93.26,84.12c-4.77.93-9.13,2.61-14.6,3.03-3.37.27-6.75-.03-10.04-1.18-9.54-3.37-13.75-12.41-14.24-21.83-.43-9.63.93-19.4-.33-28.82-.68-5.21-2.03-10.35-5.03-14.74-4.02-5.97-10.44-10.74-17.78-11.39-1.88-.16-3.81-.03-5.71.39,9.61-4.43,20.95,0,28.14,7.02,4.66,4.41,7.77,10.35,9.88,16.36,2.72,7.68,3.92,15.81,5.4,23.59.64,3.1,1.65,9.24,4.37,10.78.21.07.38.07.56-.03.54-.29.62-.35,1.73-.75,3.06-1.18,6.74-3.35,10.25-4.83,11.79-4.99,25.54-4.66,37.26.46,11.36,4.8,20.22,14.41,24.64,25.85-.04-2.56-.47-5.13-1.25-7.56-3.02-9.82-12.29-16.85-16.45-26.91l-.72-1.72c-.31-1.01-.91-2.49-1.14-3.52-3.18-11.15-.99-23.99,6.68-32.76-3.89,8.12-4.03,17.39-.6,25.58.91,2.19,2.17,4.34,3.55,6.27,2.96,3.95,6.49,6.65,10.8,9.96,5.87,4.35,11.77,9.65,15.59,16.16,4.37,7.31,6.75,15.41,6.85,24.13.04,3.03-.24,6.1-.83,9.17l8.28-25.31c2.22-2.23,5.83-2.23,8.06,0l8.28,25.31c-.59-3.06-.87-6.14-.83-9.17.11-8.71,2.48-16.82,6.85-24.13,3.82-6.51,9.73-11.81,15.59-16.16,4.32-3.32,7.85-6.01,10.8-9.96,1.38-1.93,2.64-4.08,3.55-6.27,3.43-8.19,3.29-17.45-.6-25.58,8.09,9.27,10.06,22.95,6.14,34.53l-.6,1.76c-.47,1.03-.98,2.45-1.51,3.42-4.46,9.32-12.82,15.9-15.66,25.21-.8,2.46-1.23,5.06-1.26,7.66,4.36-11.32,12.87-20.95,24.65-25.95,9.94-4.33,21.25-5.24,31.68-2.38,5.42,1.28,11.06,4.8,15.83,6.75,1.05.39,1.18.45,1.65.72.21.11.41.16.64.07,2.72-1.54,3.74-7.68,4.37-10.78,2.23-11.83,4-24.79,11.08-35.04,5.96-8.41,16.14-14.73,26.67-13.55,1.99.25,3.91.81,5.68,1.62-9.26-2.16-18.49,3.45-23.49,11-7.13,10.96-5.44,24.58-5.29,37.17.19,6.31-.16,13.05-3.37,18.86-4.09,7.66-12.47,11.37-20.98,10.55-4.99-.38-9.21-1.84-13.44-2.79-2.54-.62-5.09-.64-7.66-.28-2.83.46-5.71,1.47-8.19,3.03h0s-17.3-6.9-35.17.74c0,0-18.39,7.66-15.94,16.05.01.03.03.07.04.1.03.05.05.1.08.15-2.94,2.31-5.79,5.07-7.42,8.01-.4.71-.72,1.44-.96,2.17-.08.23-.18.56-.29.95-.43,1.6-.86,4.39.74,6.93.61.97,1.35,1.68,2.16,2.2-1.6,4.25-3.22,8.99-3.22,14.21,0,.11,0,.22.01.32l-3.03,3.03c-.04.8-.05,1.6.06,2.36.83,6.11,2.46,13.21,5.18,18.76,1.88,3.82,6.16,8.47,9.14,13.17,2.4,3.78,3.96,7.58,2.76,11.01-.46,1.32-1.34,2.59-2.74,3.77,2.9-8.57-4.26-14.88-10.77-19.16-.89,5.79,1.58,13.36-1.28,18.9-.56,1.09-1.33,2.1-2.37,3.01-5.18,4.5-20.35,4.11-24.69-1.52-.35-.45-.65-.92-.91-1.4-3.05-5.66-.09-12.94-.67-18.97-.94-1.08-8.33,6.65-10.67,9.6-.37.46-.61.81-.69.98-.5,1.14-.62,2.15-.57,3.12.09,1.76.74,3.39.76,5.46-1.25-1.03-2.11-2.11-2.62-3.22-1.6-3.39-.18-7.12,2.1-10.74,2.4-3.81,5.74-7.49,7.56-10.54,3.82-6.46,6.26-13.21,7.23-20.71.16-1.22.09-2.52.03-3.82l-3.08-3.08c.01-.11.01-.22.01-.32,0-5.22-1.62-9.96-3.22-14.21.8-.52,1.54-1.23,2.16-2.2,1.59-2.54,1.16-5.33.74-6.93-.11-.4-.21-.72-.29-.95-.24-.73-.56-1.45-.96-2.17-1.63-2.94-4.47-5.7-7.42-8.01.03-.05.05-.1.08-.15,1.9-6.17-7.49-11.95-12.68-14.6-.02-.01-.03-.02-.04-.02-1.1-.5-2.19-1.03-3.29-1.55-16.04-6.81-31.6-1.93-34.57-.89,0,0-.02,0-.02.01-.26.13-.45.21-.48.18-4.27-2.74-9.69-3.83-14.67-3ZM100.34,102.81c3.7-5.47,6.71-9.28,11.97-11.7,1.48-.68,3.14-1.25,5.05-1.72,8.44-.9,15.01,0,15.01,0,16.17,3.33,21.35,11.57,21.65,12.08,0,0,.01.01.01.02h0c-1.06-.1-2.12-.27-3.16-.48-1.94-.39-3.86-.93-5.76-1.5-3.28-.98-6.55-2.02-9.92-2.52-.86-.12-3.81-.77-3.66.74,2.96-.13,7.6,1.36,12.39,3.67,2.43,1.17,4.89,2.55,7.19,4.02,2.21,1.42,4.27,2.94,6.01,4.45,2.49,2.16,4.29,4.31,4.9,6.18.19.6.31,1.11.37,1.54.22,1.71-.57,2.28-1.89,2.59-.86.2-1.94.28-3.12.49.28.82.58,1.65.89,2.47,1.03,2.73,2.15,5.47,2.95,8.27.11.37.21.75.31,1.13.51,1.98.82,4,.83,6.07-2.88-2.1-5.27-4.7-7.59-7.38l-.02-.02h0c-2.41-2.8-4.74-5.67-7.42-8.17,0,0-.01-.01-.02-.01-.01-.01-.02-.02-.03-.02l-.02-.02c-.21-.21-.43-.4-.65-.6-.17-.15-.35-.3-.52-.45-6.34-5.36-12.83-8.93-19.59-10.84-2.75-.79-5.56-1.29-8.42-1.53-7.32-.62-15.01.48-23.22,3.16-.55-.66,4.62-8.68,5.48-9.94ZM150.29,147.68c0,12.07-9.78,21.85-21.85,21.85-1.11,0-2.19-.08-3.25-.24-10.53-1.57-18.6-10.65-18.6-21.61,0-6.53,2.86-12.4,7.41-16.4,3.42-3.02,7.79-4.98,12.6-5.38h0c4.06,1.25,7.95,3.46,11.74,6.67,1.66,1.4,3.13,3.12,4.69,4.95,2.06,2.41,4.19,4.91,6.99,6.96.02.01.03.02.04.03h0c.15,1.04.23,2.09.23,3.17ZM56.96,237.69c-22.06-12.98-30.85-33.06-20.55-68.8-.91,9.37-2.1,21.41,6.09,27.57,8.19,6.16,20.84,5.34,28.17-1.82,7.33-7.16,8.45-19.79,2.5-28.12-10-14-31.49-11.56-46.67-19.66-10.61-5.66-17.91-17.06-18.64-29.06-.72-12,5.18-24.19,15.03-31.08-1.23,12.02,5.82,24.44,16.76,29.56,8.94,4.18,19.31,3.61,29.13,2.57,8.31-.87,16.85-1.99,25.02-.62.1.02.19.03.29.05,1.38.24,2.75.55,4.1.95,1.69.5,3.37,1.18,4.96,2.01-6.97,6.66-11.31,16.05-11.31,26.43,0,10.97,4.86,20.83,12.54,27.54-.36-.07-.73-.11-1.1-.11-1.34,0-2.65.48-3.69,1.39-1.58,1.4-2.24,3.57-1.69,5.62,4.83,18.11,13.97,36.05,26.06,51.66-19.48,12.01-48.41,14.87-67,3.92ZM184.8,271.67c-.49,2.24-3.81,2.24-4.31,0l-9.42-42.86h23.14l-9.42,42.86ZM236.62,230.54c-1.95,2.55-3.89,4.97-5.74,7.18-1.71,2.03-9.18,10.88-10.76,11.59-.42.19-1.35.15-1.18-.39,4.79-7.03,9.81-13.98,14.14-21.35,1.2-2.03,2.33-4.09,3.4-6.19-1.64.69-3.1,1.74-4.52,2.87-2.13,1.69-4.17,3.57-6.65,4.7-2.92,1.34-7.24,2.73-10.36,1.6,6.86-2.28,12.76-5.63,17.75-9.88,8.75-7.44,14.7-17.64,18.13-29.64-.84.32-1.86.67-2.42,1.38-4.11,5.16-8.84,16.3-14.47,22.23-1.43,1.5-2.91,2.67-4.45,3.33-7.77,3.29-19.08,1.6-27.31,1.01.37,1.52,4.23.13,2.36,3.14-1.09,1.76-42.73,1.76-43.82,0-1.88-3.01,1.99-1.62,2.36-3.14-9.08.72-24.86,2.96-31.73-4.23-.06-.06-.11-.11-.17-.17-5.3-5.77-9.48-16.09-14.33-22.17-.56-.71-1.58-1.05-2.41-1.38,3.27,10.95,9.46,22.26,18.23,30.07,2,1.78,4.13,3.39,6.39,4.76,4,2.43,7.03,3.02,11.26,4.69-6.71,1.72-11.79-2.44-16.94-6-1.25-.86-2.5-1.69-3.78-2.39l3.02,5.03,13.31,22.12c-6.22-5.58-12.06-11.89-17.36-18.72-11.57-14.88-20.57-32.24-25.3-49.94,3.47,1.4,5.68,4.7,9.37,6.17,4.16,1.66,8.66,1.67,13.11.89,3.67-.64,7.28-1.82,10.63-3.06,3.71-1.37,9.8-5.68,12.14-6.28,2.21-.57,4,2.27,2.68,4.28-3.4,5.18-18.43,8.14-24.6,9.14-.07.01-.13.02-.2.03-.3,1.02.16,1.27.55,1.67.09.09.18.2.25.31,3.26,5.28,8.16,9.72,11.72,14.79,13.91.79,24.47.86,31.71-12.6,8.29,3.73,15.65,3.28,23.99,0,6.8,12.96,17.8,13.27,31.09,12.6.71.03,1.09-.42,1.58-.82,1.1-.91,7.72-9.66,9.17-11.58.32-.42,1.2-1.51,1.83-2.51.51-.81.85-1.56.59-1.85-.07-.02-.13-.03-.2-.05-8.22-2.07-23.44-2.74-25.33-12.73,5.66-.62,9.97,3.95,15.17,5.97,3.75,1.47,7.34,2.44,10.98,2.79,3.5.34,7.07.11,10.89-.82,4.45-1.08,7.61-3.81,11.61-5.53-2.7,5.91-3.63,12.03-6.24,18.09-4.27,9.91-11.81,21.41-19.14,30.98ZM357.43,117.78c-.72,12-8.03,23.4-18.64,29.06-15.18,8.1-36.67,5.67-46.67,19.66-5.96,8.34-4.84,20.96,2.5,28.12,7.33,7.15,19.98,7.97,28.17,1.82,8.19-6.16,7-18.19,6.09-27.57,10.31,35.74,1.51,55.82-20.54,68.8-18.63,10.97-47.64,8.08-67.11-3.98,7.32-9.6,15.15-21.46,19.66-31.93,1.39-3.22,2.32-6.36,3.22-9.38.89-3.03,1.74-5.89,2.98-8.6.96-2.1.53-4.57-1.09-6.21-1.07-1.1-2.51-1.68-3.98-1.68-.74,0-1.49.14-2.2.45-.22.09-.43.2-.65.3,8.68-6.7,14.29-17.2,14.29-28.99,0-10.38-4.34-19.77-11.31-26.43,1.6-.83,3.27-1.51,4.97-2.01,9.47-2.79,19.59-1.42,29.41-.38,9.82,1.04,20.19,1.61,29.13-2.57,10.94-5.12,17.98-17.54,16.76-29.56,9.86,6.89,15.75,19.08,15.03,31.08Z"/>
      </g>
    </g>
  </g>
</svg>