<?xml version="1.0" encoding="UTF-8"?>
<svg id="Capa_2" data-name="Capa 2" xmlns="http://www.w3.org/2000/svg" viewBox="0 0 782.47 594.19">
  <defs>
    <style>
      .cls-1 {
        fill: #bf1616;
      }

      .cls-2 {
        fill: #1b335d;
      }

      .cls-3 {
        fill: #0e1b30;
      }

      .cls-4 {
        fill: #ed412a;
      }
    </style>
  </defs>
  <g id="Capa_1-2" data-name="Capa 1">
    <g>
      <path class="cls-2" d="M386.42,590.42l-21.07-95.9h51.78l-21.07,95.9c-1.1,5.02-8.53,5.02-9.64,0Z"/>
      <path class="cls-1" d="M205.4,377.46c2.32-2.04,5.26-3.12,8.25-3.12.82,0,1.65.09,2.46.25-17.18-15.02-28.05-37.08-28.05-61.63,0-23.23,9.71-44.24,25.31-59.15-3.58-1.86-7.32-3.38-11.11-4.5-3.03-.9-6.08-1.6-9.18-2.13-.21-.04-.42-.07-.65-.11-18.29-3.08-37.39-.57-56,1.38-21.98,2.32-45.17,3.6-65.18-5.76-24.48-11.46-40.24-39.25-37.49-66.14C11.72,191.97-1.48,219.25.13,246.1c1.62,26.86,17.97,52.37,41.71,65.03,33.96,18.13,82.05,12.68,104.43,44,13.33,18.65,10.82,46.91-5.59,62.93-16.41,16.01-44.71,17.84-63.04,4.06-18.33-13.78-15.66-40.71-13.63-61.68-23.05,79.97-3.38,124.89,45.98,153.95,41.61,24.5,106.33,18.1,149.92-8.77-27.06-34.92-47.5-75.07-58.31-115.59-1.22-4.58.25-9.44,3.79-12.57Z"/>
      <path class="cls-1" d="M748.71,176.55c2.74,26.89-13.02,54.69-37.49,66.14-20.01,9.36-43.2,8.08-65.18,5.76-21.97-2.31-44.62-5.39-65.81.86-3.8,1.12-7.54,2.64-11.12,4.5,15.6,14.91,25.31,35.92,25.31,59.15,0,26.37-12.54,49.86-31.97,64.86.49-.22.95-.46,1.45-.67,1.6-.69,3.27-1.01,4.92-1.01,3.29,0,6.52,1.3,8.91,3.75,3.62,3.68,4.58,9.21,2.43,13.9-2.78,6.06-4.68,12.46-6.67,19.24-2.01,6.77-4.08,13.79-7.19,21-10.1,23.43-27.62,49.97-43.99,71.44,43.58,26.99,108.47,33.45,150.17,8.91,49.35-29.05,69.04-73.97,45.97-153.95,2.03,20.97,4.7,47.9-13.63,61.68-18.33,13.78-46.63,11.94-63.04-4.06-16.41-16.02-18.91-44.27-5.59-62.93,22.38-31.32,70.47-25.87,104.43-44,23.74-12.67,40.1-38.18,41.71-65.03,1.61-26.84-11.57-54.12-33.63-69.55Z"/>
      <path class="cls-2" d="M568.82,388.61c-8.96,3.85-16.03,9.95-25.98,12.37-8.55,2.08-16.52,2.61-24.36,1.85-8.15-.77-16.18-2.95-24.58-6.23-11.63-4.53-21.28-14.74-33.94-13.35,4.21,22.34,38.27,23.84,56.67,28.48.15.04.29.07.44.11.59.65-.16,2.33-1.31,4.14-1.4,2.24-3.38,4.68-4.09,5.62-3.23,4.3-18.04,23.89-20.51,25.92-1.1.9-1.93,1.9-3.53,1.83-29.74,1.5-54.34.8-69.56-28.19-18.65,7.34-35.12,8.37-53.68.01-16.2,30.11-39.84,29.96-70.96,28.19-7.98-11.33-18.94-21.27-26.23-33.09-.16-.26-.36-.49-.56-.7-.87-.9-1.9-1.46-1.23-3.74.15-.02.3-.05.45-.07,13.8-2.24,47.43-8.85,55.03-20.45,2.95-4.5-1.05-10.87-6-9.59-5.24,1.35-18.86,10.98-27.16,14.05-7.48,2.77-15.57,5.41-23.78,6.85-9.95,1.76-20.04,1.73-29.34-1.98-8.25-3.3-13.2-10.67-20.97-13.81,10.57,39.61,30.72,78.44,56.61,111.74,11.87,15.27,24.94,29.39,38.85,41.88l-29.79-49.5-6.76-11.25c2.87,1.56,5.67,3.42,8.47,5.35,11.52,7.95,22.89,17.27,37.9,13.42-9.46-3.74-16.25-5.06-25.2-10.5-5.06-3.07-9.83-6.66-14.3-10.65-19.63-17.48-33.48-42.77-40.78-67.28,1.86.72,4.14,1.5,5.4,3.08,10.85,13.6,20.21,36.69,32.07,49.6.12.14.24.26.37.39,15.37,16.08,50.7,11.07,71.01,9.46-.84,3.4-9.49.29-5.29,7.03,2.43,3.93,95.62,3.93,98.05,0,4.19-6.75-4.46-3.63-5.29-7.03,18.42,1.33,43.73,5.11,61.11-2.26,3.45-1.46,6.77-4.08,9.96-7.44,12.59-13.28,23.18-38.2,32.37-49.75,1.26-1.58,3.54-2.36,5.41-3.08-7.67,26.86-20.98,49.66-40.57,66.32-11.17,9.5-24.36,16.99-39.72,22.11,6.98,2.52,16.66-.59,23.19-3.59,5.54-2.53,10.11-6.73,14.87-10.52,3.18-2.53,6.43-4.88,10.11-6.42-2.39,4.7-4.94,9.31-7.62,13.85-9.68,16.48-20.92,32.03-31.63,47.77-.37,1.21,1.7,1.3,2.64.87,3.53-1.58,20.25-21.38,24.08-25.93,4.15-4.95,8.49-10.36,12.85-16.07,16.4-21.41,33.27-47.14,42.83-69.31,5.85-13.57,7.92-27.26,13.96-40.48ZM365.35,474.33c1.51-6.35,20.5-32.34,25.57-31.89,7.04.62,22.18,25.21,26.18,31.89h-51.76Z"/>
      <path class="cls-3" d="M262.67,361.36c2.37.35,4.8.54,7.28.54,27.01,0,48.9-21.89,48.9-48.89,0-2.41-.18-4.78-.51-7.1h0s-.06-.04-.1-.07c-6.27-4.59-11.04-10.17-15.65-15.57-3.49-4.08-6.78-7.95-10.48-11.07-8.48-7.17-17.18-12.13-26.26-14.92h-.02c-10.77.9-20.54,5.28-28.19,12.03-10.17,8.96-16.58,22.08-16.58,36.7,0,24.53,18.06,44.84,41.61,48.36ZM269.95,297.17c8.74,0,15.82,7.09,15.82,15.82s-7.09,15.82-15.82,15.82-15.82-7.08-15.82-15.82,7.08-15.82,15.82-15.82Z"/>
      <path class="cls-3" d="M489.82,278.75c-3.74,3.17-7.08,7.08-10.62,11.22-4.62,5.42-9.39,11-15.66,15.63-.36,2.41-.55,4.88-.55,7.4,0,27.35,22.18,49.53,49.54,49.53,2.51,0,4.97-.19,7.37-.54,23.86-3.57,42.15-24.14,42.15-48.99,0-14.81-6.49-28.1-16.79-37.17-7.79-6.88-17.77-11.34-28.77-12.2-9.22,2.83-18.06,7.85-26.68,15.13ZM528.55,312.99c0,8.85-7.17,16.02-16.02,16.02s-16.03-7.17-16.03-16.02,7.18-16.03,16.03-16.03,16.02,7.18,16.02,16.03Z"/>
      <path class="cls-2" d="M52.46,3.1c16.42,1.46,30.8,12.13,39.79,25.49,6.7,9.82,9.73,21.32,11.25,32.98,2.81,21.1-.24,42.95.74,64.5,1.1,21.06,10.52,41.3,31.87,48.84,7.36,2.57,14.91,3.25,22.46,2.64,12.24-.94,22.01-4.7,32.68-6.78,11.13-1.86,23.25.57,32.82,6.71.09.06.51-.11,1.08-.4.01-.01.04-.01.05-.02,6.65-2.34,41.46-13.25,77.35,1.98,2.47,1.17,4.91,2.36,7.37,3.48.02.01.06.02.1.05,11.6,5.95,32.62,18.88,28.37,32.68-.06.11-.11.22-.17.34,6.58,5.17,12.95,11.35,16.6,17.93.9,1.6,1.62,3.22,2.16,4.85.17.51.41,1.25.65,2.13.96,3.58,1.92,9.81-1.65,15.5-1.37,2.17-3.03,3.75-4.83,4.93,3.59,9.5,7.21,20.11,7.21,31.79,0,.24,0,.49-.02.72l6.88,6.88c.15,2.91.29,5.82-.06,8.55-2.18,16.77-7.63,31.88-16.18,46.33-4.05,6.83-11.55,15.07-16.91,23.59-5.11,8.1-8.28,16.45-4.7,24.03,1.16,2.49,3.07,4.91,5.87,7.21-.05-4.63-1.5-8.27-1.7-12.21-.1-2.17.17-4.43,1.28-6.98.16-.39.71-1.16,1.53-2.19,5.24-6.58,21.77-23.88,23.88-21.47,1.3,13.5-5.32,29.8,1.5,42.45.57,1.07,1.25,2.12,2.03,3.13,9.71,12.61,43.65,13.48,55.25,3.4,2.33-2.03,4.05-4.29,5.31-6.73,6.41-12.39.87-29.33,2.87-42.28,14.56,9.58,30.6,23.7,24.1,42.88,3.13-2.66,5.09-5.49,6.12-8.44,2.68-7.67-.81-16.18-6.18-24.64-6.68-10.51-16.26-20.92-20.46-29.46-6.1-12.42-9.74-28.3-11.6-41.98-.24-1.71-.21-3.49-.12-5.29l6.78-6.78c-.02-.24-.02-.49-.02-.72,0-11.68,3.62-22.29,7.21-31.79-1.8-1.17-3.45-2.76-4.83-4.93-3.57-5.69-2.61-11.92-1.65-15.5.24-.89.47-1.62.65-2.13.54-1.63,1.26-3.25,2.16-4.85,3.64-6.58,10.01-12.76,16.6-17.93-.06-.11-.11-.22-.17-.34-.04-.07-.07-.15-.1-.22-5.47-18.79,35.67-35.92,35.67-35.92,40-17.09,78.7-1.65,78.7-1.65h.01c5.55-3.5,11.99-5.76,18.33-6.78,5.75-.79,11.45-.75,17.13.64,9.48,2.13,18.9,5.39,30.07,6.25,19.04,1.85,37.79-6.46,46.94-23.6,7.17-12.99,7.95-28.07,7.53-42.19-.34-28.15-4.13-58.64,11.83-83.16,11.17-16.88,31.84-29.44,52.55-24.61-3.95-1.8-8.24-3.05-12.71-3.62-23.55-2.66-46.34,11.5-59.67,30.31-15.85,22.93-19.81,51.93-24.8,78.4-1.41,6.94-3.69,20.67-9.78,24.13-.52.21-.97.09-1.43-.15-1.05-.6-1.35-.74-3.69-1.61-10.69-4.36-23.29-12.23-35.42-15.1-23.35-6.41-48.66-4.36-70.89,5.32-26.36,11.2-45.4,32.73-55.15,58.06.07-5.81,1.03-11.63,2.82-17.13,6.37-20.82,25.07-35.56,35.05-56.41,1.18-2.17,2.33-5.35,3.38-7.64l1.35-3.93c8.77-25.91,4.35-56.53-13.74-77.27,8.7,18.18,9.03,38.91,1.35,57.23-2.04,4.9-4.85,9.7-7.94,14.03-6.62,8.84-14.51,14.87-24.18,22.29-13.12,9.74-26.33,21.58-34.89,36.16-9.78,16.35-15.09,34.49-15.32,53.99-.09,6.77.54,13.65,1.86,20.51l-18.53-56.63c-4.99-4.99-13.07-4.99-18.04,0l-18.53,56.63c1.32-6.86,1.94-13.74,1.86-20.51-.24-19.5-5.55-37.64-15.34-53.99-8.54-14.58-21.76-26.42-34.89-36.16-9.65-7.42-17.54-13.45-24.16-22.29-3.09-4.33-5.9-9.13-7.94-14.03-7.68-18.32-7.36-39.05,1.35-57.23-17.16,19.63-22.06,48.36-14.95,73.31.52,2.31,1.86,5.61,2.56,7.88l1.62,3.84c9.3,22.51,30.05,38.23,36.81,60.21,1.76,5.44,2.71,11.17,2.81,16.91-9.9-25.6-29.72-47.09-55.13-57.84-26.23-11.46-56.99-12.18-83.38-1.02-7.85,3.3-16.1,8.15-22.94,10.8-2.47.91-2.66,1.03-3.87,1.68-.41.24-.8.24-1.26.07-6.08-3.45-8.37-17.19-9.79-24.13-3.32-17.39-6-35.6-12.08-52.78-4.73-13.44-11.68-26.73-22.12-36.61C86.56,3.96,61.19-5.94,39.69,3.97c4.25-.94,8.57-1.23,12.77-.87ZM370.68,376.95c1.87-23.19,2.83-46.51,1.47-69.69l9.89,9.89c4.97,4.97,13.05,4.97,18.04,0l9.94-9.94c-1.76,33.53,3.57,67.27,3.28,100.77-11.93,4.43-27.94,8.78-39.69,1.82-11.73-6.93-3.78-22.31-2.93-32.85Z"/>
      <path class="cls-4" d="M575.03,212.59c-8.27-12.22-14.99-20.75-26.73-26.16-3.33-1.53-7.06-2.82-11.35-3.87h-.15c-18.89-2.01-33.58,0-33.58,0-36.77,7.57-48.14,26.48-48.48,27.07l.34-.2c-.07.07-.14.14-.2.21,2.38-.24,4.75-.61,7.09-1.1,4.33-.87,8.6-2.08,12.88-3.35,7.34-2.18,14.66-4.53,22.19-5.64,1.93-.27,8.53-1.72,8.18,1.66-6.62-.3-17.01,3.04-27.72,8.2-5.42,2.61-10.93,5.69-16.08,8.99-4.96,3.19-9.59,6.58-13.48,9.97-5.55,4.83-9.59,9.65-10.95,13.81-.44,1.33-.7,2.46-.82,3.43-.5,3.85,1.27,5.14,4.24,5.82,1.92.44,4.34.62,6.96,1.1-.62,1.85-1.3,3.69-1.98,5.54-2.52,6.7-5.29,13.4-7.11,20.31-.01.01-.01.02-.01.02-.06.24-.12.47-.17.7-1.13,4.43-1.86,8.94-1.86,13.59,7.04-5.15,12.82-11.63,18.47-18.23.01-.01.02-.02.02-.04,4.33-5.04,8.57-10.14,13.28-14.77.01-.01.04-.04.06-.05l.04-.04c1.1-1.08,2.22-2.13,3.37-3.14.39-.34.77-.67,1.17-1.01,14.21-12.01,28.74-19.99,43.9-24.28h.01c6.13-1.73,12.39-2.87,18.76-3.39,16.37-1.4,33.58,1.08,51.97,7.07,1.23-1.48-10.35-19.41-12.27-22.24Z"/>
      <path class="cls-4" d="M285.06,199.56c7.53,1.11,14.85,3.45,22.19,5.64,4.26,1.27,8.55,2.48,12.89,3.35,2.34.49,4.7.86,7.08,1.1h-.01s-.01-.04-.02-.05c-.69-1.15-12.27-19.58-48.45-27.03,0,0-14.69-2.01-33.58,0-4.28,1.05-7.99,2.32-11.31,3.84-11.77,5.42-18.5,13.95-26.78,26.18-1.91,2.83-13.49,20.76-12.26,22.24,18.39-5.98,35.6-8.47,51.97-7.07,6.4.54,12.68,1.66,18.84,3.42,15.14,4.28,29.65,12.26,43.84,24.25.4.34.79.67,1.17,1.01.49.44.98.87,1.46,1.33l.04.04s.04.02.06.05c.01,0,.02.01.04.02,6.01,5.59,11.21,12.02,16.61,18.27h0s.04.05.04.05c5.2,6,10.55,11.81,16.99,16.51-.01-4.65-.72-9.16-1.86-13.59-.21-.85-.44-1.68-.69-2.52-1.81-6.28-4.31-12.41-6.61-18.52-.7-1.85-1.37-3.69-2-5.54,2.63-.47,5.05-.66,6.97-1.1,2.95-.69,4.73-1.97,4.23-5.8-.12-.97-.39-2.12-.82-3.45-1.36-4.18-5.4-8.99-10.96-13.83-3.88-3.38-8.49-6.77-13.44-9.95-5.15-3.3-10.66-6.38-16.1-9-10.71-5.16-21.1-8.5-27.72-8.2-.35-3.38,6.25-1.93,8.18-1.66Z"/>
      <path class="cls-4" d="M359.61,151.47c15.66-6.28,30.59-8.89,46.86-5.21,5.2,1.11,10.39,2.91,16.39,5.16-4.88-12.29-18.69-19.39-31.64-19.32-12.95-.05-26.74,7.07-31.61,19.37Z"/>
      <path class="cls-4" d="M347.08,132.64c20.8-11.22,43.49-15.56,66.18-9.07,7.35,2,14.5,5.11,22.14,9.01-17.63-32.57-70.73-32.54-88.32.06Z"/>
      <path class="cls-4" d="M451.07,114.22c-6-9.7-15.13-17.52-25.59-22.87-31.1-16.38-75.11-7.42-94.07,22.95,18.5-11.62,38.36-18.65,59.82-18.61,21.46-.07,41.33,6.93,59.84,18.53Z"/>
    </g>
  </g>
</svg>