<?xml version="1.0" encoding="UTF-8"?>
<svg id="Capa_2" data-name="Capa 2" xmlns="http://www.w3.org/2000/svg" viewBox="0 0 473 473">
  <defs>
    <style>
      .cls-1 {
        fill: #ed412a;
      }
    </style>
  </defs>
  <g id="Capa_2-2" data-name="Capa 2">
    <g>
      <path class="cls-1" d="M202.93,46.31h21.02c7,0,12.67-5.66,12.67-12.65V12.65c0-6.99-5.67-12.65-12.67-12.65h-21.02c-7,0-12.67,5.66-12.67,12.65v21.01c0,6.99,5.67,12.65,12.67,12.65Z"/>
      <path class="cls-1" d="M12.67,141.22h21.03c7,0,12.67-5.66,12.67-12.65v-21.01c0-6.99-5.67-12.65-12.67-12.65H12.67c-7,0-12.67,5.66-12.67,12.65v21.01c0,6.99,5.67,12.65,12.67,12.65Z"/>
      <path class="cls-1" d="M12.67,283.45h21.03c7,0,12.67-5.66,12.67-12.65v-21.01c0-6.99-5.67-12.65-12.67-12.65H12.67c-7,0-12.67,5.66-12.67,12.65v21.01c0,6.99,5.67,12.65,12.67,12.65Z"/>
      <path class="cls-1" d="M33.69,380.37H12.67c-7,0-12.67,5.67-12.67,12.66v21c0,6.99,5.67,12.66,12.67,12.66h21.03c7,0,12.67-5.66,12.67-12.66v-21c0-6.99-5.67-12.66-12.67-12.66Z"/>
      <path class="cls-1" d="M460.33,94.9h-21.03c-7,0-12.67,5.66-12.67,12.65v21.01c0,6.99,5.67,12.65,12.67,12.65h21.03c7,0,12.67-5.66,12.67-12.65v-21.01c0-6.99-5.67-12.65-12.67-12.65Z"/>
      <path class="cls-1" d="M460.33,283.45h-21.03c-7,0-12.67,5.66-12.67,12.65v21.01c0,6.99,5.67,12.65,12.67,12.65h21.03c7,0,12.67-5.66,12.67-12.65v-21.01c0-6.99-5.67-12.65-12.67-12.65Z"/>
      <path class="cls-1" d="M270.83,426.69h-21.03c-7,0-12.67,5.66-12.67,12.65v21.01c0,6.99,5.67,12.65,12.67,12.65h21.03c7,0,12.67-5.66,12.67-12.65v-21.01c0-6.99-5.67-12.65-12.67-12.65Z"/>
      <path class="cls-1" d="M413.85,378.24h-22.04c-6.99,0-12.66-5.66-12.66-12.65v-33.59s.03-.06.06-.06h.01s.05-.03.05-.06v-34.6c0-6.98,5.67-12.65,12.66-12.65h22.03c6.99,0,12.67-5.66,12.67-12.65v-23.02c0-6.98-5.67-12.65-12.67-12.65h-22.03c-7,0-12.66-5.66-12.66-12.65v-21c0-6.98,5.67-12.65,12.66-12.65h22.03c6.99,0,12.67-5.66,12.67-12.65v-23.02c0-6.98-5.67-12.65-12.67-12.65h-21.91c-7,0-12.67-5.66-12.67-12.65V59.22c0-6.99-5.67-12.65-12.66-12.65h-23.04c-7,0-12.66,5.66-12.66,12.65v22.39c0,6.99-5.67,12.65-12.67,12.65h-21.27c-7,0-12.66-5.66-12.66-12.65v-22.14c0-6.98-5.67-12.65-12.66-12.65h-23.04c-7,0-12.67,5.67-12.67,12.65v22.14c0,6.99-5.67,12.65-12.66,12.65h-21.02c-6.99,0-12.66-5.66-12.66-12.65v-22.14c0-6.98-5.67-12.65-12.66-12.65h-23.05c-6.99,0-12.67,5.67-12.67,12.65v22.01c0,6.99-5.67,12.65-12.66,12.65h-21.02c-7,0-12.67-5.66-12.67-12.65v-22.26c0-6.99-5.67-12.65-12.66-12.65h-23.05c-6.99,0-12.66,5.66-12.66,12.65v23.02c0,6.99,5.67,12.65,12.66,12.65h21.91c6.99,0,12.66,5.66,12.66,12.65v21.5c0,6.99-5.67,12.65-12.66,12.65h-21.91c-6.99,0-12.66,5.66-12.66,12.65v34.6s-.03.07-.07.07h-.01s-.05.03-.05.06v35.61c0,6.99,5.67,12.65,12.66,12.65h22.16c6.99,0,12.66,5.66,12.66,12.65v22.01c0,6.98,5.67,12.65,12.66,12.65h21.97c6.99,0,12.67,5.66,12.67,12.65v34.63s.01.03.03.03h0s.02.02.02.03v33.62c0,6.98-5.67,12.65-12.66,12.65h-21.27c-6.99,0-12.66-5.66-12.66-12.65v-21.88c0-6.99-5.67-12.65-12.66-12.65h-23.05c-6.99,0-12.66,5.66-12.66,12.65v23.02c0,6.99,5.67,12.65,12.66,12.65h22.16c6.99,0,12.66,5.66,12.66,12.65v21.88c0,6.99,5.67,12.65,12.66,12.65h23.05c6.99,0,12.66-5.66,12.66-12.65v-22.22c.11-6.89,5.74-12.44,12.66-12.44h21.15c7,0,12.66,5.66,12.66,12.65v22.14c0,6.98,5.67,12.65,12.66,12.65h23.05c6.99,0,12.66-5.66,12.66-12.65v-22.35c.12-6.89,5.74-12.44,12.67-12.44h21.02c6.99,0,12.66,5.66,12.66,12.65v22.14c0,6.98,5.67,12.65,12.66,12.65h23.05c7,0,12.66-5.66,12.66-12.65v-22.22c.12-6.89,5.74-12.44,12.66-12.44h21.02c7,0,12.66,5.66,12.66,12.65v21.88c0,6.99,5.67,12.65,12.67,12.65h23.05c6.99,0,12.66-5.66,12.66-12.65v-23.02c0-6.99-5.67-12.65-12.66-12.65ZM141.12,223.47c0,6.99-5.67,12.65-12.65,12.65h-21.07c-6.98,0-12.65-5.66-12.65-12.65v-33.59s.03-.06.06-.06h.01s.05-.03.05-.06v-34.86c0-6.99,5.66-12.66,12.65-12.66h20.94c6.98,0,12.65,5.66,12.65,12.66v68.58ZM188.49,270.79c0,6.99-5.66,12.65-12.63,12.65h-20.84c-6.98,0-12.63-5.66-12.63-12.65v-21.01c0-6.99,5.66-12.65,12.63-12.65h20.84c6.98,0,12.63,5.66,12.63,12.65v21.01ZM188.74,128.85c0,6.97-5.65,12.62-12.63,12.62h-21.1c-6.98,0-12.63-5.65-12.63-12.62v-21.08c0-6.97,5.66-12.62,12.63-12.62h21.1c6.98,0,12.63,5.65,12.63,12.62v21.08ZM236.12,365.48c0,6.97-5.67,12.62-12.66,12.62h-21.03c-7,0-12.67-5.65-12.67-12.62v-21.08c0-6.97,5.67-12.62,12.67-12.62h21.03c7,0,12.66,5.65,12.66,12.62v21.08ZM236.12,176.14c0,6.99-5.67,12.65-12.66,12.65h-21.03c-7,0-12.67-5.66-12.67-12.65v-21.01c0-6.99,5.67-12.65,12.67-12.65h21.03c7,0,12.66,5.66,12.66,12.65v21.01ZM283.49,270.79c0,6.99-5.67,12.65-12.67,12.65h-21.03c-7,0-12.67-5.66-12.67-12.65v-21.01c0-6.99,5.67-12.65,12.67-12.65h21.03c7,0,12.67,5.66,12.67,12.65v21.01ZM283.49,128.85c0,6.97-5.67,12.62-12.67,12.62h-21.03c-7,0-12.67-5.65-12.67-12.62v-21.08c0-6.97,5.67-12.62,12.67-12.62h21.03c7,0,12.67,5.65,12.67,12.62v21.08ZM330.87,365.48c0,6.97-5.67,12.62-12.67,12.62h-21.02c-7,0-12.67-5.65-12.67-12.62v-21.08c0-6.97,5.67-12.62,12.67-12.62h21.02c7,0,12.67,5.65,12.67,12.62v21.08ZM378.25,270.79c0,6.99-5.67,12.65-12.65,12.65h-21.07c-6.98,0-12.65-5.66-12.65-12.65v-21.01c0-6.99,5.67-12.65,12.65-12.65h21.07c6.98,0,12.65,5.66,12.65,12.65v21.01ZM378.25,176.14c0,6.99-5.67,12.65-12.65,12.65h-68.44c-6.98,0-12.65-5.66-12.65-12.65v-21.01c0-6.99,5.66-12.65,12.65-12.65h68.44c6.98,0,12.65,5.66,12.65,12.65v21.01Z"/>
    </g>
  </g>
</svg>